<svg width="59" height="58" viewBox="0 0 59 58" fill="none" xmlns="http://www.w3.org/2000/svg">
<rect x="1.5" y="1" width="56" height="56" rx="15" fill="url(#paint0_linear_1_455)" fill-opacity="0.1"/>
<rect x="1.5" y="1" width="56" height="56" rx="15" stroke="url(#paint1_linear_1_455)" stroke-width="2"/>
<path d="M36.1342 13.1667H22.8659C17.1026 13.1667 13.6667 16.6025 13.6667 22.3659V35.6184C13.6667 41.3975 17.1026 44.8334 22.8659 44.8334H36.1184C41.8817 44.8334 45.3176 41.3975 45.3176 35.6342V22.3659C45.3334 16.6025 41.8976 13.1667 36.1342 13.1667ZM23.9109 27.385C24.3701 26.9259 25.1301 26.9259 25.5892 27.385L28.3126 30.1084V20.3075C28.3126 19.6584 28.8509 19.12 29.5001 19.12C30.1492 19.12 30.6876 19.6584 30.6876 20.3075V30.1084L33.4109 27.385C33.8701 26.9259 34.6301 26.9259 35.0892 27.385C35.5484 27.8442 35.5484 28.6042 35.0892 29.0634L30.3392 33.8134C30.2284 33.9242 30.1017 34.0034 29.9592 34.0667C29.8167 34.13 29.6584 34.1617 29.5001 34.1617C29.3417 34.1617 29.1992 34.13 29.0409 34.0667C28.8984 34.0034 28.7717 33.9242 28.6609 33.8134L23.9109 29.0634C23.4517 28.6042 23.4517 27.86 23.9109 27.385ZM39.3801 37.265C36.1976 38.3259 32.8567 38.8642 29.5001 38.8642C26.1434 38.8642 22.8026 38.3259 19.6201 37.265C19.0026 37.0592 18.6701 36.3784 18.8759 35.7609C19.0817 35.1434 19.7467 34.795 20.3801 35.0167C26.2701 36.98 32.7459 36.98 38.6359 35.0167C39.2534 34.8109 39.9342 35.1434 40.1401 35.7609C40.3301 36.3942 39.9976 37.0592 39.3801 37.265Z" fill="url(#paint2_linear_1_455)"/>
<defs>
<linearGradient id="paint0_linear_1_455" x1="73.6794" y1="40.004" x2="-1.05843" y2="36.7639" gradientUnits="userSpaceOnUse">
<stop stop-color="#85EAFE"/>
<stop offset="1" stop-color="#525AC1"/>
</linearGradient>
<linearGradient id="paint1_linear_1_455" x1="73.6794" y1="40.004" x2="-1.05843" y2="36.7639" gradientUnits="userSpaceOnUse">
<stop stop-color="#85EAFE"/>
<stop offset="1" stop-color="#525AC1"/>
</linearGradient>
<linearGradient id="paint2_linear_1_455" x1="53.6011" y1="35.0079" x2="12.8162" y2="33.2407" gradientUnits="userSpaceOnUse">
<stop stop-color="#85EAFE"/>
<stop offset="1" stop-color="#525AC1"/>
</linearGradient>
</defs>
</svg>
