<svg xmlns="http://www.w3.org/2000/svg" width="20" height="21" viewBox="0 0 20 21" fill="none">
<path d="M14.1971 0.5H5.8129C2.17108 0.5 0 2.67 0 6.31V14.68C0 18.33 2.17108 20.5 5.8129 20.5H14.1871C17.8289 20.5 20 18.33 20 14.69V6.31C20.01 2.67 17.8389 0.5 14.1971 0.5ZM6.47323 9.48C6.76337 9.19 7.24361 9.19 7.53375 9.48L9.25461 11.2V5.01C9.25461 4.6 9.59478 4.26 10.005 4.26C10.4152 4.26 10.7554 4.6 10.7554 5.01V11.2L12.4762 9.48C12.7664 9.19 13.2466 9.19 13.5367 9.48C13.8269 9.77 13.8269 10.25 13.5367 10.54L10.5352 13.54C10.4652 13.61 10.3852 13.66 10.2951 13.7C10.2051 13.74 10.105 13.76 10.005 13.76C9.90494 13.76 9.81489 13.74 9.71484 13.7C9.6248 13.66 9.54476 13.61 9.47472 13.54L6.47323 10.54C6.18308 10.25 6.18308 9.78 6.47323 9.48ZM16.2481 15.72C14.2371 16.39 12.126 16.73 10.005 16.73C7.88393 16.73 5.77288 16.39 3.76187 15.72C3.37168 15.59 3.16158 15.16 3.29164 14.77C3.42171 14.38 3.84191 14.16 4.24211 14.3C7.96397 15.54 12.056 15.54 15.7779 14.3C16.1681 14.17 16.5983 14.38 16.7283 14.77C16.8484 15.17 16.6383 15.59 16.2481 15.72Z" fill="white"/>
</svg>