<svg width="44" height="44" viewBox="0 0 44 44" fill="none" xmlns="http://www.w3.org/2000/svg">
<path d="M22.0001 3.66663C11.8984 3.66663 3.66675 11.8983 3.66675 22C3.66675 32.1016 11.8984 40.3333 22.0001 40.3333C32.1017 40.3333 40.3334 32.1016 40.3334 22C40.3334 11.8983 32.1017 3.66663 22.0001 3.66663ZM27.1151 22.9716L20.6434 29.4433C20.3684 29.7183 20.0201 29.8466 19.6717 29.8466C19.3234 29.8466 18.9751 29.7183 18.7001 29.4433C18.1684 28.9116 18.1684 28.0316 18.7001 27.5L24.2001 22L18.7001 16.5C18.1684 15.9683 18.1684 15.0883 18.7001 14.5566C19.2317 14.025 20.1117 14.025 20.6434 14.5566L27.1151 21.0283C27.6651 21.56 27.6651 22.44 27.1151 22.9716Z" fill="white"/>
</svg>
