<svg xmlns="http://www.w3.org/2000/svg" width="16" height="21" viewBox="0 0 16 21" fill="none">
<path d="M0.354149 12.99L1.35415 11.33C1.56415 10.96 1.75415 10.26 1.75415 9.85V7.32C1.75415 4.97 3.13415 2.94 5.12415 1.99C5.64415 1.07 6.60415 0.5 7.70415 0.5C8.79415 0.5 9.77415 1.09 10.2941 2.02C12.2441 2.99 13.5941 5 13.5941 7.32V9.85C13.5941 10.26 13.7841 10.96 13.9941 11.32L15.0041 12.99C15.4041 13.66 15.4941 14.4 15.2441 15.08C15.0041 15.75 14.4341 16.27 13.6941 16.52C11.7541 17.18 9.71415 17.5 7.67415 17.5C5.63415 17.5 3.59415 17.18 1.65415 16.53C0.954148 16.3 0.414148 15.77 0.154148 15.08C-0.105852 14.39 -0.0358515 13.63 0.354149 12.99Z" fill="#525AC1"/>
<path d="M4.86416 18.51C5.28416 19.67 6.39416 20.5 7.69416 20.5C8.48416 20.5 9.26416 20.18 9.81416 19.61C10.1342 19.31 10.3742 18.91 10.5142 18.5C10.3842 18.52 10.2542 18.53 10.1142 18.55C9.88416 18.58 9.64416 18.61 9.40416 18.63C8.83416 18.68 8.25416 18.71 7.67416 18.71C7.10416 18.71 6.53416 18.68 5.97416 18.63C5.76416 18.61 5.55416 18.6 5.35416 18.57C5.19416 18.55 5.03416 18.53 4.86416 18.51Z" fill="#525AC1"/>
</svg>