<svg width="107" height="21" viewBox="0 0 107 21" fill="none" xmlns="http://www.w3.org/2000/svg">
<path d="M4.85991 10.5L2.42891 12.8716L0 10.5L2.42891 8.12837L4.85991 10.5ZM10.7536 4.74121L14.9159 8.80744L17.3448 6.43581L10.7536 0L4.16234 6.43581L6.59124 8.80744L10.7536 4.74121ZM19.0804 8.12837L16.6514 10.5L19.0804 12.8716L21.5072 10.5L19.0804 8.12837ZM10.7536 16.2588L6.59124 12.1946L4.16234 14.5642L10.7536 21L17.3448 14.5642L14.9159 12.1946L10.7536 16.2588ZM10.7536 12.8716L13.1825 10.5L10.7536 8.12837L8.32467 10.5L10.7536 12.8716ZM36.3874 13.0994V13.0665C36.3874 11.5196 35.5469 10.7462 34.1791 10.2374C35.0195 9.77579 35.7297 9.05158 35.7297 7.75293V7.72011C35.7297 5.91061 34.2463 4.74121 31.8363 4.74121H26.365V16.2588H31.975C34.6371 16.2588 36.3916 15.2063 36.3916 13.0994H36.3874ZM33.1516 8.17556C33.1516 9.03107 32.4267 9.3942 31.2816 9.3942H28.8926V6.96307H31.4539C32.5486 6.96307 33.1558 7.3898 33.1558 8.14683L33.1516 8.17556ZM33.8093 12.7834C33.8093 13.6389 33.118 14.0328 31.9708 14.0328H28.8926V11.5032H31.8909C33.2231 11.5032 33.8135 11.9812 33.8135 12.7547L33.8093 12.7834ZM41.8398 16.2588V4.74121H39.2365V16.2588H41.8398ZM55.7892 16.2588V4.74121H53.2195V11.8335L47.6935 4.74121H45.3003V16.2588H47.8616V8.93669L53.5725 16.2588H55.7892ZM70.163 16.2588L65.0993 4.65914H62.7061L57.6529 16.2588H60.2982L61.3803 13.6759H66.3684L67.4462 16.2588H70.163ZM65.446 11.4376H62.3027L63.8701 7.70369L65.446 11.4376ZM82.5324 16.2588V4.74121H79.9627V11.8335L74.4346 4.74121H72.0435V16.2588H74.6027V8.93669L80.3157 16.2588H82.5324ZM95.9271 14.4001L94.2777 12.7711C93.3511 13.5917 92.5253 14.119 91.1764 14.119C89.1551 14.119 87.7558 12.4777 87.7558 10.5V10.4672C87.7558 8.49355 89.1887 6.88101 91.1764 6.88101C92.3551 6.88101 93.2775 7.37339 94.1936 8.17966L95.8388 6.32093C94.7441 5.26846 93.4141 4.54426 91.189 4.54426C87.5667 4.54426 85.039 7.22567 85.039 10.4938V10.5267C85.039 13.8338 87.6171 16.4496 91.0882 16.4496C93.3595 16.4557 94.7063 15.6659 95.9186 14.4001H95.9271ZM107 16.2588V14.0021H100.587V11.5791H106.149V9.32239H100.587V6.9959H106.908V4.73916H98.0093V16.2567L107 16.2588Z" fill="url(#paint0_linear_1_186)"/>
<defs>
<linearGradient id="paint0_linear_1_186" x1="135.003" y1="14.4842" x2="3.29231" y2="-14.6094" gradientUnits="userSpaceOnUse">
<stop stop-color="#85EAFE"/>
<stop offset="1" stop-color="#525AC1"/>
</linearGradient>
</defs>
</svg>
