<svg width="82" height="108" viewBox="0 0 82 108" fill="none" xmlns="http://www.w3.org/2000/svg">
<path fill-rule="evenodd" clip-rule="evenodd" d="M79.4754 50.3971C84.6598 39.4756 79.6158 31.9345 71.2904 25.8461L79.5729 11.3201L72.6789 7.37844L64.6148 21.5217C62.8052 20.4862 60.9272 19.4728 59.0605 18.4674L67.1793 4.23133L60.2918 0.291122L52.0089 14.8114C50.4946 13.997 49.0091 13.1944 47.5797 12.3784L47.6045 12.3328L38.102 6.89155L32.7192 16.3359C32.7192 16.3359 37.8792 19.1225 37.726 19.1943C40.5168 20.7922 40.2419 23.3915 39.4809 25.3363L30.0458 41.8847C30.2376 41.9962 30.483 42.1502 30.739 42.363L30.0126 41.9482L16.7901 65.1289C16.0249 66.186 14.4838 67.6877 12.5311 66.5764C12.5621 66.7271 7.52255 63.7091 7.52255 63.7091L0.131415 73.4878L9.10197 78.6179C10.1139 79.1989 11.109 79.7866 12.0931 80.3679L12.0932 80.3679C12.7306 80.7444 13.3634 81.1182 13.9932 81.4856L5.61823 96.1812L12.5014 100.12L20.7918 85.5848C22.6512 86.7157 24.4694 87.7813 26.2564 88.8008L18.0031 103.268L24.895 107.209L33.2593 92.5453C45.3314 98.3198 55.5779 99.2139 64.5391 85.8326C71.7613 75.0574 70.5022 67.6851 65.0818 61.8941C70.5675 61.5641 75.688 58.3937 79.4732 50.3966L79.4754 50.3971ZM54.0913 76.0681C48.1206 86.4426 35.4244 78.9475 29.6205 75.5212C29.1008 75.2143 28.6363 74.9401 28.2369 74.7143L39.7754 54.6779C40.2633 54.9545 40.8662 55.2724 41.5492 55.6326L41.5495 55.6328C47.6634 58.8569 60.1929 65.4644 54.0936 76.0686L54.0913 76.0681ZM43.8176 49.04C48.6339 51.9032 59.1321 58.1443 64.5369 48.7598C70.0648 39.1589 59.6439 33.7123 54.5544 31.0523C53.9823 30.7532 53.4775 30.4894 53.0703 30.2589L42.652 48.3566C42.9881 48.5469 43.3793 48.7795 43.8176 49.04Z" fill="white"/>
</svg>
