<svg width="110" height="20" viewBox="0 0 110 20" fill="none" xmlns="http://www.w3.org/2000/svg">
<path d="M22.1884 5.58271C18.1978 5.58271 15.0756 8.66541 15.0756 12.8007C15.0756 16.9361 18.1239 20 22.1884 20C26.2714 20 29.3567 16.8797 29.3567 12.782C29.3752 8.68421 26.3268 5.58271 22.1884 5.58271ZM22.2254 17.0113C19.953 17.0113 18.2902 15.2068 18.2902 12.8007C18.2902 10.3571 19.9345 8.57143 22.2069 8.57143C24.5163 8.57143 26.179 10.3947 26.179 12.8007C26.1606 15.2068 24.4978 17.0113 22.2254 17.0113ZM30.2435 8.72181H32.2204V19.718H35.3981V5.84586H30.2435V8.72181ZM7.09439 8.55263C8.75714 8.55263 10.0873 9.60526 10.5862 11.1466H13.9486C13.3389 7.81955 10.6416 5.56391 7.13134 5.56391C3.12227 5.58271 0 8.66541 0 12.8007C0 16.9361 3.04837 20 7.11286 20C10.5492 20 13.302 17.7444 13.9117 14.3985H10.5862C10.1058 15.9586 8.79409 17.0301 7.11286 17.0301C4.80349 17.0301 3.19617 15.2256 3.19617 12.8195C3.19617 10.3571 4.78502 8.55263 7.09439 8.55263ZM90.5643 11.4474L88.2365 11.0902C87.128 10.9211 86.3335 10.5451 86.3335 9.66166C86.3335 8.70301 87.3681 8.21429 88.7722 8.21429C90.3057 8.21429 91.2848 8.89098 91.5065 9.9812H94.5734C94.2224 7.19925 92.1162 5.56391 88.8646 5.56391C85.5022 5.56391 83.2852 7.31203 83.2852 9.77443C83.2852 12.1429 84.7447 13.4962 87.6822 13.9286L90.0101 14.2857C91.1555 14.4549 91.7837 14.906 91.7837 15.7707C91.7837 16.8797 90.6752 17.3308 89.1417 17.3308C87.2573 17.3308 86.2042 16.5602 86.038 15.3759H82.9157C83.2113 18.0827 85.299 19.9812 89.1048 19.9812C92.5781 19.9812 94.869 18.3647 94.869 15.6015C94.8505 13.1391 93.1693 11.8609 90.5643 11.4474ZM33.8092 0.131581C32.6453 0.131581 31.777 0.99624 31.777 2.16165C31.777 3.34586 32.6453 4.19173 33.8092 4.19173C34.9731 4.19173 35.8414 3.32707 35.8414 2.16165C35.8414 0.99624 34.9731 0.131581 33.8092 0.131581ZM80.4031 10.6015C80.4031 7.59399 78.611 5.58271 74.7867 5.58271C71.1841 5.58271 69.1703 7.44361 68.7823 10.282H71.9231C72.0893 9.17293 72.9207 8.27067 74.7313 8.27067C76.3386 8.27067 77.133 9.00376 77.133 9.88722C77.133 11.0338 75.6735 11.3346 73.8814 11.5226C71.4427 11.7857 68.4313 12.6504 68.4313 15.8647C68.4313 18.3647 70.2603 19.9624 73.1609 19.9624C75.4333 19.9624 76.8559 19.0038 77.5764 17.4624C77.6873 18.8346 78.6849 19.718 80.089 19.718H81.9365V16.8421H80.3661L80.4031 10.6015ZM77.2808 14.0789C77.2808 15.9398 75.692 17.2932 73.7706 17.2932C72.5882 17.2932 71.572 16.7857 71.572 15.7143C71.572 14.3421 73.1794 13.9662 74.6758 13.8158C76.0984 13.6842 76.8928 13.3647 77.2993 12.7444C77.2808 12.7444 77.2808 14.0789 77.2808 14.0789ZM60.4316 5.58271C58.658 5.58271 57.18 6.33459 56.127 7.59399V0H52.9493V19.718H56.0715V17.8947C57.1246 19.2105 58.6396 19.9812 60.4316 19.9812C64.2375 19.9812 67.1196 16.9173 67.1196 12.782C67.1196 8.64661 64.1821 5.58271 60.4316 5.58271ZM59.9513 17.0113C57.6789 17.0113 56.0161 15.2068 56.0161 12.8007C56.0161 10.3947 57.7158 8.57143 59.9882 8.57143C62.2976 8.57143 63.9049 10.3759 63.9049 12.8007C63.8865 15.2068 62.2237 17.0113 59.9513 17.0113ZM45.3376 5.58271C43.2684 5.58271 41.9197 6.44737 41.1253 7.65038V5.84586H37.9845V19.718H41.1622V12.1805C41.1622 10.0564 42.4924 8.55263 44.4508 8.55263C46.2798 8.55263 47.4068 9.86842 47.4068 11.7669V19.718H50.5845V11.5414C50.5845 8.04512 48.8109 5.58271 45.3376 5.58271ZM109.982 12.3308C109.982 8.36466 107.118 5.56391 103.294 5.56391C99.2106 5.56391 96.2361 8.68421 96.2361 12.782C96.2361 17.1053 99.4323 19.9812 103.349 19.9812C106.656 19.9812 109.243 17.9887 109.908 15.188H106.601C106.12 16.4286 104.956 17.1241 103.404 17.1241C101.372 17.1241 99.8388 15.8271 99.4877 13.5902H110L109.982 12.3308ZM99.654 11.2594C100.153 9.32331 101.594 8.38346 103.22 8.38346C105.012 8.38346 106.397 9.43609 106.711 11.2594H99.654Z" fill="url(#paint0_linear_1_199)"/>
<defs>
<linearGradient id="paint0_linear_1_199" x1="138.789" y1="13.7945" x2="4.41725" y2="-18.2446" gradientUnits="userSpaceOnUse">
<stop stop-color="#85EAFE"/>
<stop offset="1" stop-color="#525AC1"/>
</linearGradient>
</defs>
</svg>
