<svg width="26" height="26" viewBox="0 0 26 26" fill="none" xmlns="http://www.w3.org/2000/svg">
<path d="M23.8334 11.8842V14.1158C23.8334 14.7117 23.3567 15.1992 22.7501 15.2208H20.6267C19.4567 15.2208 18.3842 14.365 18.2867 13.195C18.2217 12.5125 18.4817 11.8733 18.9367 11.4292C19.3376 11.0175 19.8901 10.7792 20.4967 10.7792H22.7501C23.3567 10.8008 23.8334 11.2883 23.8334 11.8842Z" fill="url(#paint0_linear_1_397)"/>
<path d="M22.1759 16.8458H20.6267C18.5684 16.8458 16.8351 15.2966 16.6617 13.325C16.5642 12.1983 16.9759 11.0716 17.7992 10.27C18.4926 9.55496 19.4567 9.15413 20.4967 9.15413H22.1759C22.4901 9.15413 22.7501 8.89413 22.7176 8.57996C22.4792 5.94746 20.7351 4.14913 18.1459 3.84579C17.8859 3.80246 17.6151 3.79163 17.3334 3.79163H7.58342C7.28008 3.79163 6.98758 3.81329 6.70591 3.85663C3.94341 4.20329 2.16675 6.26163 2.16675 9.20829V16.7916C2.16675 19.7816 4.59341 22.2083 7.58342 22.2083H17.3334C20.3667 22.2083 22.4576 20.3125 22.7176 17.42C22.7501 17.1058 22.4901 16.8458 22.1759 16.8458ZM14.0834 10.5625H7.58342C7.13925 10.5625 6.77092 10.1941 6.77092 9.74996C6.77092 9.30579 7.13925 8.93746 7.58342 8.93746H14.0834C14.5276 8.93746 14.8959 9.30579 14.8959 9.74996C14.8959 10.1941 14.5276 10.5625 14.0834 10.5625Z" fill="url(#paint1_linear_1_397)"/>
<defs>
<linearGradient id="paint0_linear_1_397" x1="25.2876" y1="13.8427" x2="18.1351" y2="13.4548" gradientUnits="userSpaceOnUse">
<stop stop-color="#85EAFE"/>
<stop offset="1" stop-color="#525AC1"/>
</linearGradient>
<linearGradient id="paint1_linear_1_397" x1="28.0995" y1="16.494" x2="1.62668" y2="15.2132" gradientUnits="userSpaceOnUse">
<stop stop-color="#85EAFE"/>
<stop offset="1" stop-color="#525AC1"/>
</linearGradient>
</defs>
</svg>
