<svg width="103" height="15" viewBox="0 0 103 15" fill="none" xmlns="http://www.w3.org/2000/svg">
<path d="M3.44451 14.8886C2.92727 14.8886 2.41002 14.8328 1.89278 14.7771C1.37553 14.6657 1.02881 14.61 0.801448 14.5542C0.574087 14.4985 0.341041 14.3314 0.227361 14.1586C0.0568401 13.9357 0 13.763 0 13.5401V1.30386C0 1.01969 0.113682 0.741084 0.346727 0.56835C0.574087 0.345468 0.807133 0.284176 1.15386 0.284176C2.64875 0.284176 4.14365 0.507058 5.63854 0.902674C7.13344 1.35401 8.45781 2.14524 9.54914 3.32652C10.6405 4.5078 11.2146 6.14599 11.2146 8.22994C11.2146 9.75111 10.8678 10.9937 10.1801 12.0078C9.4923 13.0219 8.57149 13.7574 7.41764 14.2645C6.26947 14.7715 4.94509 15 3.50704 15L3.44451 14.8886ZM3.44451 12.7433C5.17245 12.7433 6.49114 12.3477 7.46879 11.562C8.44644 10.7764 8.96369 9.64524 8.96369 8.12407C8.96369 6.263 8.33277 4.85327 7.12207 3.95059C5.85454 3.04792 4.24596 2.48514 2.17698 2.3737V12.5762C2.69422 12.6319 3.09779 12.6876 3.44451 12.6876V12.7433ZM18.6265 14.7771C17.5352 14.7771 16.5575 14.4929 15.6936 13.8744C14.8296 13.2559 14.1418 12.4647 13.6814 11.4506C13.1642 10.4365 12.9311 9.24963 12.9311 7.95691C12.9311 6.49146 13.221 5.19316 13.8519 3.95617C14.426 2.77489 15.2332 1.81649 16.2676 1.08098C17.2453 0.406761 18.3366 0.011144 19.4905 0.011144C20.5818 0.011144 21.5595 0.29532 22.4234 0.913819C23.2874 1.4766 23.9752 2.32355 24.4924 3.33767C25.0097 4.35178 25.2427 5.53863 25.2427 6.83135C25.2427 8.2968 24.9528 9.65082 24.3219 10.8321C23.7478 12.0134 22.9407 12.9718 21.9062 13.7073C20.9285 14.3815 19.8315 14.7771 18.6265 14.7771ZM18.6265 12.7433C19.4336 12.7433 20.1782 12.5204 20.8092 12.0078C21.4969 11.5007 22.0142 10.8265 22.4177 9.97957C22.8213 9.07689 22.9918 8.1185 22.9918 6.99294C22.9918 5.97883 22.8213 5.13187 22.4746 4.40193C22.1279 3.67199 21.6675 3.10364 21.0934 2.70802C20.5193 2.31241 19.9452 2.14525 19.3086 2.14525C18.5583 2.14525 17.8137 2.36813 17.1828 2.88076C16.5518 3.39339 16.0346 4.06204 15.631 4.96471C15.2275 5.86738 15.057 6.8815 15.057 7.95134C15.057 8.96545 15.2275 9.81241 15.5174 10.5423C15.8641 11.2779 16.2676 11.7849 16.7849 12.175C17.3021 12.5706 17.8762 12.7377 18.5128 12.7377H18.6265V12.7433ZM33.6323 14.8328C32.3079 14.8328 31.1598 14.4929 30.1253 13.8187C29.0908 13.1445 28.3405 12.2418 27.7664 11.1664C27.1923 10.0966 26.9593 8.90973 26.9593 7.67273C26.9593 6.43573 27.2492 5.24889 27.8232 4.06204C28.3973 2.87519 29.2613 1.92236 30.2958 1.18685C31.3303 0.451337 32.5978 0.0612931 33.979 0.0612931C35.2466 0.0612931 36.3379 0.345468 37.2587 0.852526C38.1227 1.4153 38.8104 1.97808 39.2708 2.7136C39.7313 3.38782 39.9018 3.95617 39.9018 4.34621C39.9018 4.63039 39.7881 4.90899 39.6119 5.08172C39.4414 5.24889 39.1515 5.3659 38.8616 5.3659C38.3444 5.3659 37.9976 5.14302 37.8271 4.69168C37.5372 4.01746 37.1393 3.39339 36.5027 2.94205C35.8718 2.49071 35.0647 2.26783 34.0302 2.26783C32.9389 2.26783 32.018 2.60773 31.3246 3.22623C30.5743 3.84473 30.0571 4.58024 29.716 5.42719C29.375 6.27415 29.1988 7.00409 29.1988 7.68388C29.1988 8.47511 29.3693 9.26077 29.716 9.99629C30.0627 10.7875 30.58 11.406 31.2678 11.9131C31.9555 12.4201 32.7626 12.7043 33.7403 12.7043C34.6611 12.7043 35.5251 12.4814 36.2128 12.0301C36.9006 11.5788 37.4179 10.9045 37.7646 10.0576H37.4179C36.9006 10.0576 36.3834 10.169 35.7524 10.3418C35.5251 10.3975 35.292 10.4532 35.1784 10.4532C34.8885 10.4532 34.6611 10.3418 34.4281 10.169C34.2007 10.0019 34.0813 9.71768 34.0813 9.37779C34.0813 8.87073 34.3712 8.53083 34.8885 8.30795C35.1158 8.19651 35.5194 8.14079 36.0935 8.02377C36.6676 7.96805 37.2417 7.91233 37.8214 7.91233C38.6854 7.91233 39.4868 8.02377 40.294 8.30795C40.7544 8.47511 40.9817 8.81501 40.9817 9.32206C40.9817 9.54495 40.9249 9.7734 40.7544 9.94056C40.5839 10.1077 40.4076 10.2247 40.1803 10.3362C40.0666 10.3362 39.9529 10.3919 39.8904 10.3919C39.4868 11.7459 38.7422 12.8157 37.6452 13.6627C36.5539 14.5097 35.2295 14.9053 33.6778 14.9053L33.6323 14.8328ZM44.3296 14.6601C44.0397 14.6601 43.7555 14.5487 43.5225 14.3202C43.2951 14.0973 43.1758 13.8689 43.1758 13.529V1.24257C43.1758 0.958395 43.2894 0.679792 43.5225 0.451338C43.7499 0.228455 43.9829 0.111441 44.3296 0.111441H53.1285C53.4184 0.111441 53.7026 0.222883 53.8788 0.451338C54.1061 0.67422 54.1686 0.902675 54.1686 1.24257C54.1686 1.52675 54.055 1.80535 53.8788 2.0338C53.6514 2.25669 53.4184 2.3737 53.1285 2.3737H45.4209V6.09027H52.094C52.3839 6.09027 52.6681 6.20171 52.8443 6.37444C53.0716 6.59733 53.1342 6.82578 53.1342 7.10995C53.1342 7.39413 53.0205 7.67273 52.8443 7.90119C52.6169 8.12407 52.3839 8.24109 52.094 8.24109H45.4209V12.526H53.0716C53.3615 12.526 53.6457 12.6374 53.8219 12.8659C54.0493 13.0888 54.1118 13.3172 54.1118 13.6571C54.1118 13.9413 53.9981 14.2199 53.8219 14.4484C53.5946 14.6712 53.3615 14.7883 53.0716 14.7883H44.3296V14.6601ZM61.9273 14.7771C60.7792 14.7771 59.6821 14.4929 58.7045 13.9859C57.7268 13.4788 56.9197 12.6876 56.3456 11.7292C55.7715 10.7151 55.4816 9.58952 55.4816 8.29123C55.4816 6.8815 55.8284 5.58321 56.4593 4.29049C57.1471 2.9922 58.011 1.97808 59.0455 1.24814C60.08 0.45691 61.1713 0.122585 62.3252 0.122585C62.7856 0.122585 63.246 0.178306 63.7064 0.345468C64.1668 0.51263 64.5704 0.685364 64.974 0.908247C65.1445 0.741085 65.3775 0.624071 65.6049 0.624071C65.8948 0.624071 66.1221 0.735513 66.3552 0.908247C66.5257 1.07541 66.6451 1.35958 66.6451 1.58247V2.9922C66.6451 3.27637 66.5314 3.55498 66.2983 3.72771C66.071 3.95059 65.8379 4.06761 65.4912 4.06761C65.2013 4.06761 64.974 4.01189 64.7409 3.78343C64.5704 3.61627 64.451 3.38782 64.451 3.16493V2.99777C63.9338 2.43499 63.1266 2.15082 62.0922 2.15082C61.3419 2.15082 60.6541 2.43499 59.9095 3.05349C59.2217 3.61627 58.642 4.4075 58.1816 5.3659C57.7211 6.32429 57.5506 7.28269 57.5506 8.29681C57.5506 9.19948 57.7211 9.99071 58.1247 10.6649C58.5283 11.3392 59.0455 11.8462 59.6765 12.1861C60.3074 12.526 61.0008 12.6932 61.8023 12.6932C63.2403 12.6932 64.3885 12.0747 65.3093 10.8878C65.423 10.7207 65.5992 10.6036 65.7129 10.5479C65.8266 10.4922 66.0028 10.4365 66.1733 10.4365C66.4632 10.4365 66.7474 10.5479 66.9804 10.7207C67.2078 10.8878 67.3271 11.172 67.3271 11.5119C67.3271 11.7348 67.2703 11.9632 67.1566 12.1304C66.5825 12.9773 65.7754 13.5958 64.8546 14.0472C63.9338 14.4985 62.8993 14.6657 61.8648 14.6657L61.9273 14.7771ZM74.4094 14.7771C73.3181 14.7771 72.3404 14.4929 71.4765 13.8744C70.6125 13.2559 69.9247 12.4647 69.4643 11.4506C68.9471 10.4365 68.714 9.24963 68.714 7.95691C68.714 6.49146 69.0039 5.19316 69.6348 3.95617C70.2089 2.77489 71.0161 1.81649 72.0505 1.08098C73.085 0.406761 74.1195 0.011144 75.2734 0.011144C76.3647 0.011144 77.3424 0.29532 78.2063 0.913819C79.0703 1.4766 79.7581 2.32355 80.2753 3.33767C80.7926 4.35178 81.0256 5.53863 81.0256 6.83135C81.0256 8.2968 80.7357 9.65082 80.1048 10.8321C79.5307 12.0134 78.7236 12.9718 77.6891 13.7073C76.7057 14.3815 75.6144 14.7771 74.4094 14.7771ZM74.4094 12.7433C75.2165 12.7433 75.9043 12.5204 76.5921 12.0078C77.2798 11.4952 77.7971 10.8265 78.2006 9.97957C78.6042 9.07689 78.7747 8.1185 78.7747 6.99294C78.7747 5.97883 78.6042 5.13187 78.2575 4.40193C77.9108 3.66642 77.4504 3.10364 76.8763 2.70802C76.3022 2.31241 75.7281 2.14525 75.0915 2.14525C74.3412 2.14525 73.5966 2.36813 72.9657 2.88076C72.3348 3.38782 71.8175 4.06204 71.4139 4.96471C71.0104 5.86738 70.8399 6.8815 70.8399 7.95134C70.8399 8.96545 71.0104 9.81241 71.3003 10.5423C71.647 11.2779 72.0506 11.7849 72.5678 12.175C73.085 12.565 73.6591 12.7377 74.2957 12.7377H74.4094V12.7433ZM83.1514 14.6601C82.8615 14.6601 82.5773 14.5487 82.3443 14.3202C82.1169 14.0973 81.9976 13.8689 81.9976 13.529C81.9976 13.2448 82.1113 12.9662 82.3443 12.7377C82.5717 12.5149 82.8047 12.3978 83.1514 12.3978H84.7032V2.26226H83.1514C82.8615 2.26226 82.5773 2.15082 82.3443 1.92236C82.1169 1.69948 81.9976 1.47103 81.9976 1.13113C81.9976 0.846954 82.1113 0.568351 82.3443 0.395617C82.5717 0.172734 82.8047 0.111441 83.1514 0.111441H88.4432C88.7331 0.111441 89.0173 0.222883 89.1935 0.395617C89.4209 0.6185 89.4834 0.846954 89.4834 1.13113C89.4834 1.4153 89.3697 1.69391 89.1935 1.92236C88.9662 2.14525 88.7331 2.26226 88.4432 2.26226H86.9483V12.409H88.4432C88.79 12.409 89.0173 12.5204 89.2504 12.7489C89.4209 12.9718 89.5403 13.2002 89.5403 13.5401C89.5403 13.8243 89.4266 14.1029 89.2504 14.3314C89.023 14.5542 88.79 14.6712 88.5001 14.6712H83.2651H83.1514V14.6601ZM92.9848 14.7771C92.6949 14.7771 92.4675 14.6657 92.2345 14.4372C92.0071 14.2143 91.8877 13.9859 91.8877 13.7017V1.13113C91.8877 0.846954 92.0014 0.624072 92.1776 0.395617C92.3482 0.172734 92.638 0.0557206 92.9279 0.0557206C93.0984 0.0557206 93.2747 0.111441 93.4452 0.167162C93.6157 0.222883 93.7351 0.334324 93.8487 0.507058L100.749 10.2582V1.07541C100.749 0.791233 100.863 0.51263 101.096 0.339896C101.323 0.117014 101.556 0 101.903 0C102.193 0 102.42 0.111442 102.653 0.339896C102.881 0.562779 103 0.791233 103 1.07541V13.646C103 13.9302 102.886 14.2088 102.71 14.3815C102.483 14.6044 102.25 14.6657 101.96 14.6657C101.789 14.6657 101.613 14.61 101.443 14.5542C101.272 14.4985 101.153 14.3314 101.039 14.2143L94.1955 4.46322V13.5958C94.1955 13.88 94.0818 14.1586 93.8487 14.3314C93.6214 14.4985 93.3883 14.6155 93.0416 14.6155L92.9848 14.7771Z" fill="url(#paint0_linear_1_173)"/>
<defs>
<linearGradient id="paint0_linear_1_173" x1="129.957" y1="10.3459" x2="7.80739" y2="-26.0161" gradientUnits="userSpaceOnUse">
<stop stop-color="#85EAFE"/>
<stop offset="1" stop-color="#525AC1"/>
</linearGradient>
</defs>
</svg>
