<svg xmlns="http://www.w3.org/2000/svg" width="21" height="21" viewBox="0 0 21 21" fill="none">
<path d="M13.9738 10.9002V14.9703C13.9738 15.3303 13.9338 15.6703 13.8438 15.9803C13.4738 17.4503 12.2538 18.3703 10.5737 18.3703H7.85369L4.83363 20.3804C4.38362 20.6904 3.78361 20.3604 3.78361 19.8204V18.3703C2.76359 18.3703 1.91357 18.0303 1.32356 17.4403C0.723551 16.8403 0.383545 15.9903 0.383545 14.9703V10.9002C0.383545 9.00015 1.56357 7.69013 3.3836 7.52012C3.5136 7.51012 3.64361 7.50012 3.78361 7.50012H10.5737C12.6138 7.50012 13.9738 8.86015 13.9738 10.9002Z" fill="#525AC1"/>
<path d="M16.1338 14.1003C17.4038 14.1003 18.4738 13.6803 19.2138 12.9302C19.9639 12.1902 20.3839 11.1202 20.3839 9.85018V4.75008C20.3839 2.40004 18.4838 0.5 16.1338 0.5H7.63363C5.28358 0.5 3.38354 2.40004 3.38354 4.75008V5.50009C3.38354 5.7801 3.60355 6.0001 3.88355 6.0001H10.5737C13.2837 6.0001 15.4738 8.19015 15.4738 10.9002V13.6002C15.4738 13.8803 15.6938 14.1003 15.9738 14.1003H16.1338Z" fill="#525AC1"/>
</svg>