<svg width="105" height="26" viewBox="0 0 105 26" fill="none" xmlns="http://www.w3.org/2000/svg">
<path d="M48.1457 14.525V18.5893C48.1432 18.6726 48.1087 18.7518 48.0492 18.8108C47.9897 18.8697 47.9097 18.9039 47.8255 18.9063C47.7831 18.9075 47.741 18.9001 47.7016 18.8846C47.6622 18.8691 47.6264 18.8458 47.5964 18.8161C47.5665 18.7864 47.5429 18.751 47.5273 18.712C47.5116 18.673 47.5041 18.6312 47.5054 18.5893V14.525C47.5054 13.151 46.7195 11.7867 45.1769 11.7867C43.1978 11.7867 42.344 13.4969 42.4605 15.2552C42.4605 15.2822 42.4666 15.3578 42.472 15.424C42.4761 15.4752 42.4799 15.5213 42.4799 15.5339V18.5797C42.4797 18.6608 42.4503 18.7393 42.3969 18.801C42.3436 18.8626 42.2698 18.9034 42.1888 18.9159C42.1435 18.9219 42.0975 18.9181 42.0538 18.9048C42.0102 18.8915 41.97 18.8691 41.9359 18.839C41.9018 18.8089 41.8747 18.7718 41.8564 18.7304C41.8381 18.689 41.829 18.6441 41.8298 18.5989V5.23392C41.8306 5.15007 41.8646 5.06985 41.9245 5.01055C41.9843 4.95125 42.0653 4.91761 42.15 4.91685C42.2341 4.91927 42.3142 4.95345 42.3737 5.0124C42.4332 5.07135 42.4677 5.1506 42.4702 5.23392V12.7859C43.0232 11.8059 44.0127 11.1429 45.1672 11.1429C47.0688 11.1429 48.1457 12.7859 48.1457 14.525Z" fill="url(#paint0_linear_1_183)"/>
<path d="M37.8429 11.373C37.7834 11.3141 37.7034 11.2799 37.6193 11.2775H35.9021V8.80819C35.9029 8.76297 35.8938 8.71811 35.8755 8.67667C35.8572 8.63523 35.8301 8.5982 35.796 8.5681C35.7619 8.53799 35.7217 8.51553 35.678 8.50224C35.6344 8.48896 35.5884 8.48517 35.5431 8.49112C35.4621 8.5037 35.3883 8.54447 35.3349 8.60611C35.2816 8.66775 35.2522 8.74622 35.252 8.82741V11.2775H33.593C33.5084 11.2782 33.4274 11.3119 33.3675 11.3712C33.3076 11.4305 33.2736 11.5107 33.2729 11.5946C33.2717 11.6365 33.2791 11.6783 33.2948 11.7173C33.3105 11.7563 33.334 11.7917 33.364 11.8214C33.3939 11.8511 33.4297 11.8744 33.4691 11.8899C33.5085 11.9054 33.5507 11.9128 33.593 11.9116H35.252V18.6277C35.2545 18.7111 35.289 18.7903 35.3485 18.8493C35.408 18.9082 35.4881 18.9424 35.5722 18.9448C35.6569 18.944 35.7379 18.9104 35.7977 18.8511C35.8576 18.7918 35.8916 18.7116 35.8923 18.6277V11.9116H37.6193C37.6616 11.9128 37.7038 11.9054 37.7432 11.8899C37.7826 11.8744 37.8183 11.8511 37.8483 11.8214C37.8783 11.7917 37.9018 11.7563 37.9175 11.7173C37.9332 11.6783 37.9406 11.6365 37.9394 11.5946C37.937 11.5112 37.9025 11.432 37.8429 11.373Z" fill="url(#paint1_linear_1_183)"/>
<path fill-rule="evenodd" clip-rule="evenodd" d="M29.6951 15.3122C29.7605 15.2492 29.7981 15.1631 29.7996 15.0727C29.7899 13.0262 28.2377 11.1238 26.0645 11.1238C23.8913 11.1238 22.3487 13.0454 22.3487 15.0919C22.3487 17.1385 23.901 19.0601 26.0645 19.0601C27.3257 19.0601 28.616 18.5124 29.266 17.3979C29.2979 17.3493 29.3148 17.2925 29.3146 17.2345C29.3158 17.1926 29.3083 17.1508 29.2926 17.1118C29.277 17.0728 29.2534 17.0374 29.2235 17.0077C29.1935 16.978 29.1577 16.9547 29.1183 16.9392C29.0789 16.9237 29.0368 16.9163 28.9944 16.9175C28.9376 16.9198 28.8822 16.9359 28.8332 16.9644C28.7841 16.9929 28.7429 17.0329 28.713 17.0808C28.0727 17.9936 27.219 18.426 26.0645 18.426C24.3764 18.426 23.1831 16.9847 23.0181 15.409H29.4504C29.5416 15.41 29.6296 15.3752 29.6951 15.3122ZM26.0645 11.7579C27.7526 11.7579 28.975 13.1991 29.1108 14.7749H23.0181C23.1831 13.1991 24.3764 11.7579 26.0645 11.7579Z" fill="url(#paint2_linear_1_183)"/>
<path fill-rule="evenodd" clip-rule="evenodd" d="M59.5958 15.3122C59.6612 15.2492 59.6988 15.1631 59.7004 15.0727C59.6907 13.0262 58.119 11.1238 55.9652 11.1238C53.792 11.1238 52.2494 13.0454 52.2494 15.0919C52.2494 17.1385 53.8017 19.0601 55.9652 19.0601C57.2264 19.0601 58.5168 18.5124 59.1668 17.3979C59.1986 17.3493 59.2155 17.2925 59.2153 17.2345C59.2165 17.1926 59.209 17.1508 59.1934 17.1118C59.1777 17.0728 59.1542 17.0374 59.1242 17.0077C59.0942 16.978 59.0584 16.9547 59.0191 16.9392C58.9797 16.9237 58.9375 16.9163 58.8951 16.9175C58.8383 16.9198 58.7829 16.9359 58.7339 16.9644C58.6848 16.9929 58.6436 17.0329 58.6138 17.0808C57.9735 17.9936 57.1197 18.426 55.9652 18.426C54.2771 18.426 53.0838 16.9847 52.9189 15.409H59.3511C59.4424 15.41 59.5303 15.3752 59.5958 15.3122ZM55.9555 11.7579C57.6436 11.7579 58.866 13.1991 59.0018 14.7749H52.9092C53.0741 13.1991 54.2674 11.7579 55.9555 11.7579Z" fill="url(#paint3_linear_1_183)"/>
<path d="M67.6073 11.5753C67.6135 11.6606 67.5853 11.7449 67.5289 11.8097C67.4726 11.8745 67.3926 11.9146 67.3065 11.9212C65.4147 12.1998 64.561 13.7275 64.561 15.5051V18.5508C64.5608 18.632 64.5314 18.7105 64.4781 18.7721C64.4247 18.8338 64.3509 18.8745 64.2699 18.8871C64.2246 18.8931 64.1786 18.8893 64.135 18.876C64.0913 18.8627 64.0511 18.8403 64.017 18.8101C63.9829 18.78 63.9558 18.743 63.9375 18.7016C63.9192 18.6601 63.9101 18.6153 63.9109 18.5701V11.6234C63.9111 11.5422 63.9405 11.4637 63.9939 11.4021C64.0472 11.3404 64.121 11.2996 64.202 11.2871C64.2473 11.2811 64.2933 11.2849 64.337 11.2982C64.3806 11.3115 64.4209 11.3339 64.4549 11.364C64.489 11.3941 64.5161 11.4312 64.5344 11.4726C64.5527 11.5141 64.5618 11.5589 64.561 11.6041V13.0165C65.0946 12.123 66.152 11.2775 67.258 11.2775C67.423 11.2775 67.6073 11.3928 67.6073 11.5753Z" fill="url(#paint4_linear_1_183)"/>
<path fill-rule="evenodd" clip-rule="evenodd" d="M78.0776 15.3122C78.143 15.2492 78.1806 15.1631 78.1822 15.0727C78.1725 13.0262 76.6202 11.1238 74.447 11.1238C72.2738 11.1238 70.7312 13.0454 70.7312 15.0919C70.7312 17.1385 72.2835 19.0601 74.447 19.0601C75.7082 19.0601 76.9986 18.5124 77.6486 17.3979C77.6804 17.3493 77.6973 17.2925 77.6971 17.2345C77.6983 17.1926 77.6908 17.1508 77.6752 17.1118C77.6595 17.0728 77.636 17.0374 77.606 17.0077C77.576 16.978 77.5402 16.9547 77.5008 16.9392C77.4615 16.9237 77.4193 16.9163 77.3769 16.9175C77.3201 16.9198 77.2647 16.9359 77.2157 16.9644C77.1666 16.9929 77.1254 17.0329 77.0956 17.0808C76.4553 17.9936 75.6015 18.426 74.447 18.426C72.7589 18.426 71.5656 16.9847 71.4007 15.409H77.8329C77.9242 15.41 78.0121 15.3752 78.0776 15.3122ZM74.447 11.7579C76.1351 11.7579 77.3575 13.1991 77.4933 14.7749H71.4007C71.5656 13.1991 72.7589 11.7579 74.447 11.7579Z" fill="url(#paint5_linear_1_183)"/>
<path d="M88.5824 11.6522V18.6277C88.58 18.711 88.5455 18.7903 88.486 18.8492C88.4264 18.9082 88.3464 18.9423 88.2623 18.9448C88.2199 18.946 88.1777 18.9386 88.1384 18.9231C88.099 18.9076 88.0632 18.8842 88.0332 18.8546C88.0032 18.8249 87.9797 18.7894 87.964 18.7504C87.9484 18.7114 87.9409 18.6697 87.9421 18.6277V17.3018C87.4085 18.3491 86.4675 19.1081 85.2645 19.1081C83.3532 19.1081 82.2957 17.4651 82.2957 15.726V11.6426C82.2965 11.5587 82.3305 11.4785 82.3903 11.4192C82.4502 11.3599 82.5312 11.3262 82.6159 11.3255C82.7 11.3279 82.78 11.3621 82.8396 11.421C82.8991 11.48 82.9336 11.5592 82.936 11.6426V15.726C82.936 17.1 83.7219 18.4644 85.2645 18.4644C87.4279 18.4644 87.9421 16.4563 87.9421 14.2368V11.633C87.9428 11.5816 87.956 11.5311 87.9804 11.4857C88.0049 11.4404 88.04 11.4015 88.0827 11.3723C88.1255 11.3432 88.1746 11.3246 88.2261 11.3181C88.2776 11.3116 88.33 11.3175 88.3787 11.3351C88.4397 11.3632 88.4913 11.408 88.5274 11.4641C88.5635 11.5203 88.5826 11.5856 88.5824 11.6522Z" fill="url(#paint6_linear_1_183)"/>
<path d="M104.872 18.5797V14.4962C104.872 12.7667 103.795 11.1429 101.903 11.1429C100.574 11.1429 99.5357 11.9788 99.0021 13.1703C98.5849 11.9692 97.5663 11.1429 96.2565 11.1429C95.102 11.1429 94.1124 11.7867 93.5594 12.7667V11.6041C93.5602 11.5589 93.5512 11.514 93.5329 11.4726C93.5146 11.4312 93.4875 11.3941 93.4534 11.364C93.4193 11.3339 93.3791 11.3115 93.3354 11.2982C93.2918 11.2849 93.2457 11.2811 93.2005 11.2871C93.1195 11.2996 93.0457 11.3404 92.9923 11.4021C92.939 11.4637 92.9096 11.5422 92.9094 11.6233V18.5893C92.9086 18.6345 92.9176 18.6793 92.936 18.7208C92.9542 18.7622 92.9814 18.7992 93.0154 18.8294C93.0495 18.8595 93.0898 18.8819 93.1334 18.8952C93.1771 18.9085 93.2231 18.9123 93.2684 18.9063C93.3494 18.8938 93.4232 18.853 93.4765 18.7913C93.5299 18.7297 93.5593 18.6512 93.5594 18.57V15.505C93.5726 15.4854 93.5679 15.4391 93.5635 15.3964C93.5614 15.3763 93.5594 15.3571 93.5594 15.3417C93.4915 13.3048 94.2968 11.7771 96.2565 11.7771C97.7991 11.7771 98.5849 13.1222 98.5849 14.4962V18.5797C98.5837 18.6216 98.5912 18.6634 98.6068 18.7024C98.6225 18.7414 98.646 18.7768 98.676 18.8065C98.706 18.8362 98.7418 18.8595 98.7812 18.875C98.8205 18.8905 98.8627 18.8979 98.9051 18.8967C98.9892 18.8943 99.0692 18.8601 99.1288 18.8012C99.1883 18.7422 99.2228 18.663 99.2252 18.5797V15.4282C99.2252 13.8332 99.9626 11.7771 101.903 11.7771C103.445 11.7771 104.231 13.1222 104.231 14.4962V18.5797C104.23 18.6216 104.238 18.6634 104.253 18.7024C104.269 18.7414 104.292 18.7768 104.322 18.8065C104.352 18.8362 104.388 18.8595 104.428 18.875C104.467 18.8905 104.509 18.8979 104.551 18.8967C104.636 18.8943 104.716 18.8601 104.775 18.8012C104.835 18.7422 104.869 18.663 104.872 18.5797Z" fill="url(#paint7_linear_1_183)"/>
<path d="M8.26133 17.9497C8.18287 17.9761 8.13815 17.9085 8.0848 17.8774C5.46946 16.3487 2.85699 14.819 0.247406 13.2883C0.222136 13.2756 0.195902 13.265 0.168945 13.2564V13.2222L0.215239 13.1958C0.280968 13.1787 0.345673 13.158 0.409038 13.1336L6.57208 10.3565C7.12131 10.1086 7.67053 9.86465 8.21975 9.61911H8.25898C8.25898 9.69681 8.25898 9.76597 8.25898 9.83979C8.26107 12.5433 8.26185 15.2466 8.26133 17.9497Z" fill="url(#paint8_linear_1_183)"/>
<path d="M8.26523 9.62099H8.226C8.226 9.54329 8.23384 9.46559 8.23384 9.384C8.23384 6.34735 8.23384 3.31044 8.23384 0.273275C8.22482 0.195271 8.23014 0.116293 8.24954 0.040165H8.26601C8.58848 0.511825 8.86937 1.00913 9.16595 1.49633C11.5156 5.35611 13.8639 9.21538 16.2109 13.0741C16.2336 13.1122 16.2517 13.1518 16.2721 13.1938C16.2056 13.1797 16.1403 13.1608 16.0767 13.1371C15.646 12.9444 15.2137 12.7486 14.7868 12.552C14.1184 12.2489 13.4496 11.9464 12.7806 11.6444L9.55747 10.1983C9.12829 10.0025 8.69676 9.81214 8.26523 9.62099Z" fill="url(#paint9_linear_1_183)"/>
<path d="M8.25212 0.0361491C8.23272 0.112277 8.22741 0.191255 8.23643 0.269259C8.23643 3.30591 8.23643 6.34281 8.23643 9.37998C8.23643 9.45768 8.23172 9.53539 8.22858 9.61698C7.67936 9.86252 7.13014 10.1065 6.58092 10.3544L0.417871 13.1315C0.354505 13.1558 0.289801 13.1766 0.224072 13.1937C0.402176 12.8269 0.633637 12.4943 0.844695 12.1431C3.29004 8.11756 5.73721 4.09279 8.18621 0.0687855C8.20239 0.0464938 8.21995 0.0252137 8.23878 0.00506821L8.25212 0.0361491Z" fill="url(#paint10_linear_1_183)"/>
<path d="M8.26523 9.62099C8.69676 9.81214 9.12842 10.0026 9.55917 10.1953L12.7823 11.6413C13.4518 11.9428 14.1206 12.2454 14.7885 12.5489C15.2185 12.744 15.6516 12.9413 16.0784 13.134C16.142 13.1577 16.2073 13.1767 16.2738 13.1908C16.3523 13.2879 16.2361 13.2918 16.2008 13.3127C15.5316 13.709 14.8592 14.0999 14.1883 14.4931C12.2629 15.6213 10.338 16.7493 8.41365 17.877C8.365 17.905 8.31233 17.9256 8.26133 17.9497C8.26133 15.2472 8.26143 12.5448 8.26143 9.84174C8.26222 9.76792 8.26444 9.69481 8.26523 9.62099Z" fill="url(#paint11_linear_1_183)"/>
<path d="M8.23376 19.4849L13.2748 16.5422C14.2373 15.9797 15.1992 15.4166 16.1606 14.853L16.2477 14.8056C16.2563 14.8833 16.2022 14.9244 16.1692 14.9695C13.9723 18.0367 11.7755 21.1029 9.57857 24.168C9.16273 24.7493 8.74768 25.3336 8.32792 25.9102C8.30595 25.9405 8.27221 26.0827 8.20473 25.9319C8.25809 25.8868 8.23455 25.8262 8.23455 25.7765C8.23507 23.6785 8.23481 21.5813 8.23376 19.4849Z" fill="url(#paint12_linear_1_183)"/>
<path d="M8.23333 19.4852C8.23333 21.5817 8.23333 23.6776 8.23333 25.773C8.23333 25.8266 8.25687 25.8872 8.20351 25.9284C8.09132 25.8616 8.04267 25.7419 7.96813 25.6432C5.42079 22.0896 2.87476 18.5355 0.330035 14.9808C0.297867 14.9357 0.26805 14.8875 0.235097 14.8378C0.301003 14.7997 0.336313 14.8518 0.374758 14.8743C2.95087 16.3807 5.52645 17.8884 8.10152 19.3974C8.14938 19.427 8.19018 19.4573 8.23333 19.4852Z" fill="url(#paint13_linear_1_183)"/>
<path d="M8.2527 0.0361062L8.23387 0.00735633C8.26839 -0.0144006 8.26369 0.0174575 8.26918 0.0337752L8.2527 0.0361062Z" fill="url(#paint14_linear_1_183)"/>
<defs>
<linearGradient id="paint0_linear_1_183" x1="132.274" y1="17.9328" x2="1.10002" y2="-4.96754" gradientUnits="userSpaceOnUse">
<stop stop-color="#00BDE2"/>
<stop offset="1" stop-color="#525AC1"/>
</linearGradient>
<linearGradient id="paint1_linear_1_183" x1="132.274" y1="17.9328" x2="1.10002" y2="-4.96754" gradientUnits="userSpaceOnUse">
<stop stop-color="#00BDE2"/>
<stop offset="1" stop-color="#525AC1"/>
</linearGradient>
<linearGradient id="paint2_linear_1_183" x1="132.274" y1="17.9328" x2="1.10002" y2="-4.96754" gradientUnits="userSpaceOnUse">
<stop stop-color="#00BDE2"/>
<stop offset="1" stop-color="#525AC1"/>
</linearGradient>
<linearGradient id="paint3_linear_1_183" x1="132.274" y1="17.9328" x2="1.10002" y2="-4.96754" gradientUnits="userSpaceOnUse">
<stop stop-color="#00BDE2"/>
<stop offset="1" stop-color="#525AC1"/>
</linearGradient>
<linearGradient id="paint4_linear_1_183" x1="132.274" y1="17.9328" x2="1.10002" y2="-4.96754" gradientUnits="userSpaceOnUse">
<stop stop-color="#00BDE2"/>
<stop offset="1" stop-color="#525AC1"/>
</linearGradient>
<linearGradient id="paint5_linear_1_183" x1="132.274" y1="17.9328" x2="1.10002" y2="-4.96754" gradientUnits="userSpaceOnUse">
<stop stop-color="#00BDE2"/>
<stop offset="1" stop-color="#525AC1"/>
</linearGradient>
<linearGradient id="paint6_linear_1_183" x1="132.274" y1="17.9328" x2="1.10002" y2="-4.96754" gradientUnits="userSpaceOnUse">
<stop stop-color="#00BDE2"/>
<stop offset="1" stop-color="#525AC1"/>
</linearGradient>
<linearGradient id="paint7_linear_1_183" x1="132.274" y1="17.9328" x2="1.10002" y2="-4.96754" gradientUnits="userSpaceOnUse">
<stop stop-color="#00BDE2"/>
<stop offset="1" stop-color="#525AC1"/>
</linearGradient>
<linearGradient id="paint8_linear_1_183" x1="132.274" y1="17.9328" x2="1.10002" y2="-4.96754" gradientUnits="userSpaceOnUse">
<stop stop-color="#00BDE2"/>
<stop offset="1" stop-color="#525AC1"/>
</linearGradient>
<linearGradient id="paint9_linear_1_183" x1="132.274" y1="17.9328" x2="1.10002" y2="-4.96754" gradientUnits="userSpaceOnUse">
<stop stop-color="#00BDE2"/>
<stop offset="1" stop-color="#525AC1"/>
</linearGradient>
<linearGradient id="paint10_linear_1_183" x1="132.274" y1="17.9328" x2="1.10002" y2="-4.96754" gradientUnits="userSpaceOnUse">
<stop stop-color="#00BDE2"/>
<stop offset="1" stop-color="#525AC1"/>
</linearGradient>
<linearGradient id="paint11_linear_1_183" x1="132.274" y1="17.9328" x2="1.10002" y2="-4.96754" gradientUnits="userSpaceOnUse">
<stop stop-color="#00BDE2"/>
<stop offset="1" stop-color="#525AC1"/>
</linearGradient>
<linearGradient id="paint12_linear_1_183" x1="132.274" y1="17.9328" x2="1.10002" y2="-4.96754" gradientUnits="userSpaceOnUse">
<stop stop-color="#00BDE2"/>
<stop offset="1" stop-color="#525AC1"/>
</linearGradient>
<linearGradient id="paint13_linear_1_183" x1="132.274" y1="17.9328" x2="1.10002" y2="-4.96754" gradientUnits="userSpaceOnUse">
<stop stop-color="#00BDE2"/>
<stop offset="1" stop-color="#525AC1"/>
</linearGradient>
<linearGradient id="paint14_linear_1_183" x1="132.274" y1="17.9328" x2="1.10002" y2="-4.96754" gradientUnits="userSpaceOnUse">
<stop stop-color="#00BDE2"/>
<stop offset="1" stop-color="#525AC1"/>
</linearGradient>
</defs>
</svg>
