<svg width="37" height="37" viewBox="0 0 37 37" fill="none" xmlns="http://www.w3.org/2000/svg">
<path d="M36.4218 18.2122C36.4218 27.4102 29.6037 35.0143 20.7465 36.2483C19.9183 36.3631 19.071 36.4231 18.2109 36.4231C17.2181 36.4231 16.2432 36.344 15.2938 36.1909C6.62285 34.7948 0 27.2762 0 18.2122C0 8.15414 8.15414 0 18.2122 0C28.2702 0 36.4244 8.15414 36.4244 18.2122H36.4218Z" fill="url(#paint0_linear_1_1310)"/>
<path d="M20.7465 14.6239V18.5912H25.6543L24.8772 23.9355H20.7465V36.2483C19.9183 36.3632 19.071 36.4232 18.2109 36.4232C17.2182 36.4232 16.2432 36.3441 15.2938 36.1909V23.9355H10.7676V18.5912H15.2938V13.737C15.2938 10.7255 17.735 8.28308 20.7478 8.28308V8.28564C20.7567 8.28564 20.7644 8.28308 20.7733 8.28308H25.6556V12.905H22.4654C21.5173 12.905 20.7478 13.6745 20.7478 14.6226L20.7465 14.6239Z" fill="white"/>
<defs>
<linearGradient id="paint0_linear_1_1310" x1="45.9571" y1="25.1219" x2="-0.978698" y2="23.087" gradientUnits="userSpaceOnUse">
<stop stop-color="#85EAFE"/>
<stop offset="1" stop-color="#525AC1"/>
</linearGradient>
</defs>
</svg>
