<svg width="77" height="77" viewBox="0 0 77 77" fill="none" xmlns="http://www.w3.org/2000/svg">
<rect x="2.15991" y="2.05951" width="73.5" height="73.5" rx="36.75" fill="url(#paint0_linear_1_319)"/>
<rect x="2.15991" y="2.05951" width="73.5" height="73.5" rx="36.75" stroke="#BBE1F7" stroke-width="2.5"/>
<path d="M32.9931 35.2064C32.8193 34.6433 32.5795 34.1393 32.2736 33.6944C31.9747 33.2426 31.6132 32.8568 31.1892 32.537C30.7721 32.2172 30.2924 31.9774 29.7502 31.8175C29.208 31.6507 28.6171 31.5672 27.9775 31.5672C26.8305 31.5672 25.8086 31.8557 24.9119 32.4327C24.0151 33.0097 23.3095 33.8578 22.7951 34.977C22.2876 36.0893 22.0339 37.4448 22.0339 39.0437C22.0339 40.6565 22.2876 42.0225 22.7951 43.1417C23.3026 44.2609 24.0081 45.1125 24.9119 45.6964C25.8156 46.2734 26.8653 46.5619 28.0609 46.5619C29.1454 46.5619 30.0839 46.3533 30.8763 45.9362C31.6758 45.5191 32.291 44.9283 32.722 44.1636C33.153 43.3919 33.3685 42.4882 33.3685 41.4524L34.2444 41.588H28.4468V38.564H37.112V41.1292C37.112 42.9575 36.7227 44.539 35.9441 45.8737C35.1655 47.2084 34.0949 48.2372 32.7324 48.9602C31.3699 49.6762 29.8058 50.0342 28.0401 50.0342C26.0728 50.0342 24.3453 49.5928 22.8577 48.7099C21.377 47.8201 20.2195 46.5584 19.3853 44.9248C18.5581 43.2842 18.1445 41.3377 18.1445 39.0854C18.1445 37.3614 18.3878 35.8216 18.8744 34.4661C19.3679 33.1105 20.0562 31.96 20.939 31.0146C21.8219 30.0622 22.8577 29.3392 24.0464 28.8457C25.2351 28.3452 26.5281 28.0949 27.9254 28.0949C29.1072 28.0949 30.209 28.2687 31.2309 28.6163C32.2528 28.9569 33.16 29.4435 33.9524 30.0761C34.7519 30.7087 35.4088 31.4595 35.9232 32.3284C36.4376 33.1974 36.7748 34.1567 36.9347 35.2064H32.9931ZM59.935 39.0646C59.935 41.3655 59.504 43.3363 58.642 44.9769C57.7869 46.6105 56.6191 47.8618 55.1384 48.7308C53.6646 49.5997 51.9928 50.0342 50.1228 50.0342C48.2528 50.0342 46.5774 49.5997 45.0968 48.7308C43.623 47.8549 42.4551 46.6001 41.5931 44.9665C40.7381 43.3259 40.3106 41.3586 40.3106 39.0646C40.3106 36.7636 40.7381 34.7963 41.5931 33.1626C42.4551 31.5221 43.623 30.2673 45.0968 29.3983C46.5774 28.5294 48.2528 28.0949 50.1228 28.0949C51.9928 28.0949 53.6646 28.5294 55.1384 29.3983C56.6191 30.2673 57.7869 31.5221 58.642 33.1626C59.504 34.7963 59.935 36.7636 59.935 39.0646ZM56.0456 39.0646C56.0456 37.4448 55.7918 36.0788 55.2843 34.9666C54.7838 33.8474 54.0887 33.0028 53.1989 32.4327C52.3091 31.8557 51.2837 31.5672 50.1228 31.5672C48.9619 31.5672 47.9365 31.8557 47.0467 32.4327C46.1569 33.0028 45.4582 33.8474 44.9508 34.9666C44.4503 36.0788 44.2 37.4448 44.2 39.0646C44.2 40.6843 44.4503 42.0538 44.9508 43.173C45.4582 44.2852 46.1569 45.1298 47.0467 45.7068C47.9365 46.2769 48.9619 46.5619 50.1228 46.5619C51.2837 46.5619 52.3091 46.2769 53.1989 45.7068C54.0887 45.1298 54.7838 44.2852 55.2843 43.173C55.7918 42.0538 56.0456 40.6843 56.0456 39.0646Z" fill="white"/>
<defs>
<linearGradient id="paint0_linear_1_319" x1="96.8002" y1="53.2285" x2="-1.13217" y2="48.9829" gradientUnits="userSpaceOnUse">
<stop stop-color="#85EAFE"/>
<stop offset="1" stop-color="#525AC1"/>
</linearGradient>
</defs>
</svg>
