<svg width="58" height="58" viewBox="0 0 58 58" fill="none" xmlns="http://www.w3.org/2000/svg">
<rect x="1" y="1" width="56" height="56" rx="15" fill="url(#paint0_linear_1_260)" fill-opacity="0.1"/>
<rect x="1" y="1" width="56" height="56" rx="15" stroke="url(#paint1_linear_1_260)" stroke-width="2"/>
<path d="M44.8333 27.3692V30.6308C44.8333 31.5017 44.1366 32.2142 43.2499 32.2458H40.1466C38.4366 32.2458 36.8691 30.995 36.7266 29.285C36.6316 28.2875 37.0116 27.3533 37.6766 26.7042C38.2624 26.1025 39.0699 25.7542 39.9566 25.7542H43.2499C44.1366 25.7858 44.8333 26.4983 44.8333 27.3692Z" fill="url(#paint2_linear_1_260)"/>
<path d="M42.4109 34.6208H40.1467C37.1384 34.6208 34.6051 32.3566 34.3517 29.475C34.2092 27.8283 34.8109 26.1816 36.0142 25.01C37.0276 23.965 38.4367 23.3791 39.9567 23.3791H42.4109C42.8701 23.3791 43.2501 22.9991 43.2026 22.54C42.8542 18.6925 40.3051 16.0641 36.5209 15.6208C36.1409 15.5575 35.7451 15.5416 35.3334 15.5416H21.0834C20.6401 15.5416 20.2126 15.5733 19.8009 15.6366C15.7634 16.1433 13.1667 19.1516 13.1667 23.4583V34.5416C13.1667 38.9116 16.7134 42.4583 21.0834 42.4583H35.3334C39.7667 42.4583 42.8226 39.6875 43.2026 35.46C43.2501 35.0008 42.8701 34.6208 42.4109 34.6208ZM30.5834 25.4375H21.0834C20.4342 25.4375 19.8959 24.8991 19.8959 24.25C19.8959 23.6008 20.4342 23.0625 21.0834 23.0625H30.5834C31.2326 23.0625 31.7709 23.6008 31.7709 24.25C31.7709 24.8991 31.2326 25.4375 30.5834 25.4375Z" fill="url(#paint3_linear_1_260)"/>
<defs>
<linearGradient id="paint0_linear_1_260" x1="73.1794" y1="40.004" x2="-1.55843" y2="36.7639" gradientUnits="userSpaceOnUse">
<stop stop-color="#85EAFE"/>
<stop offset="1" stop-color="#525AC1"/>
</linearGradient>
<linearGradient id="paint1_linear_1_260" x1="73.1794" y1="40.004" x2="-1.55843" y2="36.7639" gradientUnits="userSpaceOnUse">
<stop stop-color="#85EAFE"/>
<stop offset="1" stop-color="#525AC1"/>
</linearGradient>
<linearGradient id="paint2_linear_1_260" x1="46.9587" y1="30.2316" x2="36.505" y2="29.6647" gradientUnits="userSpaceOnUse">
<stop stop-color="#85EAFE"/>
<stop offset="1" stop-color="#525AC1"/>
</linearGradient>
<linearGradient id="paint3_linear_1_260" x1="51.0685" y1="34.1067" x2="12.3774" y2="32.2347" gradientUnits="userSpaceOnUse">
<stop stop-color="#85EAFE"/>
<stop offset="1" stop-color="#525AC1"/>
</linearGradient>
</defs>
</svg>
