<svg width="43" height="43" viewBox="0 0 43 43" fill="none" xmlns="http://www.w3.org/2000/svg">
<path d="M37.005 15.5674L24.8775 5.8724C23.005 4.3674 19.9775 4.3674 18.1225 5.8549L5.99498 15.5674C4.62998 16.6524 3.75498 18.9449 4.05248 20.6599L6.37998 34.5899C6.79998 37.0749 9.17998 39.0874 11.7 39.0874H31.3C33.8025 39.0874 36.2 37.0574 36.62 34.5899L38.9475 20.6599C39.2275 18.9449 38.3525 16.6524 37.005 15.5674ZM21.5 28.0449C19.085 28.0449 17.125 26.0849 17.125 23.6699C17.125 21.2549 19.085 19.2949 21.5 19.2949C23.915 19.2949 25.875 21.2549 25.875 23.6699C25.875 26.0849 23.915 28.0449 21.5 28.0449Z" fill="#727D91"/>
</svg>
