<svg width="86" height="25" viewBox="0 0 86 25" fill="none" xmlns="http://www.w3.org/2000/svg">
<path d="M31.9313 13.2854H24.6965V7.14238C24.6965 6.63753 24.2737 6.22799 23.7525 6.22799H21.3033V23.1142C21.3033 23.619 21.7261 24.0286 22.2473 24.0286H24.6965V16.1521H31.9349V23.1106C31.9276 23.6155 32.3431 24.0321 32.8643 24.0392H35.3281V7.14238C35.3281 6.63753 34.9054 6.22799 34.3842 6.22799H31.9313V13.2854ZM46.2987 10.6446V19.1071C46.306 19.8767 45.8905 20.5934 45.2053 20.9888C43.2882 22.0621 41.3018 20.717 41.3018 18.9518V11.559C41.3018 11.0541 40.879 10.6446 40.3578 10.6446H37.9086V19.2554C37.9159 22.0303 40.2339 24.2757 43.0987 24.2898H44.491C47.3593 24.2828 49.6847 22.0303 49.692 19.2519V11.559C49.692 11.0541 49.2692 10.6446 48.748 10.6446H46.2987Z" fill="url(#paint0_linear_1_176)"/>
<path d="M85.8038 24.0392V12.0497C85.8038 11.5449 85.381 11.1353 84.8598 11.1353H82.4105V23.1177C82.4069 23.6226 82.826 24.0356 83.3472 24.0392H85.8038Z" fill="url(#paint1_linear_1_176)"/>
<path d="M85.8555 8.73728C86.2553 7.80233 85.797 6.73045 84.8318 6.34318C83.8666 5.9559 82.76 6.39988 82.3602 7.33483C81.9604 8.26977 82.4187 9.34164 83.3839 9.72892C84.3491 10.1162 85.4557 9.67222 85.8555 8.73728Z" fill="url(#paint2_linear_1_176)"/>
<path d="M58.4466 10.6375C54.893 10.6375 51.9845 13.0983 51.9845 16.5405V18.401C51.9845 21.8432 54.893 24.2898 58.4466 24.2898C62.0001 24.2898 64.9086 21.8432 64.9086 18.401V16.5405C64.9123 13.0983 62.0038 10.6375 58.4466 10.6375ZM61.5008 18.6234C61.5008 20.251 60.1268 21.3348 58.4429 21.3348C56.7591 21.3348 55.3886 20.251 55.3886 18.6234V16.3004C55.3886 14.6728 56.7627 13.589 58.4429 13.589C60.1231 13.589 61.5008 14.6728 61.5008 16.3004V18.6234Z" fill="url(#paint3_linear_1_176)"/>
<path d="M73.6632 10.6375C72.599 10.6305 71.5493 10.8635 70.5907 11.3119V7.16003C70.5907 6.65518 70.168 6.24565 69.6468 6.24565H67.1975V18.401C67.1975 21.8432 70.106 24.2898 73.6596 24.2898C77.2132 24.2898 80.1217 21.8432 80.1217 18.401V16.5405C80.1253 13.0983 77.2241 10.6375 73.6632 10.6375ZM76.7212 18.6234C76.7212 20.251 75.3471 21.3348 73.6632 21.3348C71.983 21.3348 70.609 20.251 70.609 18.6234V16.3004C70.609 14.6728 71.983 13.589 73.6632 13.589C75.3434 13.589 76.7212 14.6728 76.7212 16.3004V18.6234Z" fill="url(#paint4_linear_1_176)"/>
<path d="M11.047 7.6896C11.047 4.10266 9.24291 1.0135 7.86885 0.0108544C7.86885 0.0108544 7.76315 -0.0456329 7.77409 0.0991158C7.6611 7.02941 4.00545 8.90761 1.99722 11.4354C-2.63886 17.2748 1.66919 23.6755 6.06472 24.8582C8.51397 25.5219 5.49614 23.6861 5.10616 19.8132C4.6287 15.1389 11.047 11.566 11.047 7.6896Z" fill="url(#paint5_linear_1_176)"/>
<path d="M13.1537 10.0515C13.1245 10.0338 13.0844 10.0197 13.0589 10.0656C12.9824 10.9376 12.0639 12.8017 10.8976 14.5175C6.9431 20.3286 9.19554 23.1318 10.4639 24.6393C11.2001 25.5114 10.4639 24.6393 12.3008 23.7461C14.5715 22.4116 16.044 20.1027 16.2626 17.5396C16.6235 13.4089 14.0649 10.807 13.1537 10.0515Z" fill="url(#paint6_linear_1_176)"/>
<path d="M45.2265 21.0255L45.226 21.0258C43.2815 22.1144 41.2595 20.7504 41.2595 18.9518V11.559C41.2595 11.0788 40.8569 10.687 40.3578 10.687H37.951V19.2553C37.9582 22.0056 40.256 24.2333 43.0987 24.2475C43.0987 24.2475 43.0988 24.2475 43.0989 24.2475M45.2265 21.0255L43.0987 24.2898L43.0989 24.2475M45.2265 21.0255C45.9244 20.6228 46.3484 19.8923 46.3411 19.1071M45.2265 21.0255L46.3411 19.1071M43.0989 24.2475L44.4908 24.2475M43.0989 24.2475L44.4908 24.2475M44.4908 24.2475C47.3372 24.2404 49.6424 22.0056 49.6496 19.2517M44.4908 24.2475L49.692 11.559C49.692 11.0541 49.2692 10.6446 48.748 10.6446H46.3411V10.687M49.6496 19.2517V19.2519H49.692L49.6496 19.2517ZM49.6496 19.2517V11.559C49.6496 11.0788 49.2471 10.687 48.748 10.687H46.3411M46.3411 10.687L46.3411 19.1067M46.3411 10.687H46.2987M46.2987 10.687V19.1071L46.3411 19.1067M46.2987 10.687L46.3411 19.1071M46.2987 10.687L46.3411 19.1067M46.3411 19.1067L46.3411 19.1071M31.9313 13.3277H31.9736V13.2854V6.27036H34.3842C34.8832 6.27036 35.2858 6.66219 35.2858 7.14238V23.9968H32.8646C32.3658 23.9899 31.9703 23.5915 31.9773 23.1113V23.1106V16.1521V16.1097H31.9349H24.6965H24.6541V16.1521V23.9862H22.2473C21.7482 23.9862 21.3456 23.5944 21.3456 23.1142V6.27036H23.7525C24.2516 6.27036 24.6541 6.66219 24.6541 7.14238V13.2854V13.3277H24.6965H31.9313ZM82.4529 23.118V23.1177V11.1777H84.8598C85.3589 11.1777 85.7614 11.5695 85.7614 12.0497V23.9968L83.3475 23.9968C83.3474 23.9968 83.3473 23.9968 83.3472 23.9968C82.8484 23.9933 82.4494 23.5982 82.4529 23.118ZM73.6629 10.6799H73.6632C77.2054 10.6799 80.0829 13.126 80.0793 16.5404V18.401C80.0793 21.8153 77.1946 24.2475 73.6596 24.2475C70.1246 24.2475 67.2399 21.8153 67.2399 18.401V6.28801H69.6468C70.1458 6.28801 70.5484 6.67984 70.5484 7.16003V11.3119V11.3784L70.6087 11.3502C71.5616 10.9045 72.6051 10.6729 73.6629 10.6799ZM7.81645 0.0998064L7.81663 0.0998094L7.81633 0.0959246C7.81389 0.0636043 7.81868 0.0495816 7.82131 0.044843C7.82248 0.042742 7.82274 0.042709 7.82361 0.0426009C7.82373 0.0425862 7.82386 0.0425702 7.824 0.0425474C7.82734 0.0420179 7.83302 0.0425929 7.83991 0.0447378C7.84283 0.0456488 7.84532 0.0466378 7.84704 0.0473882C8.52554 0.543848 9.31471 1.55883 9.93477 2.89891C10.5553 4.24011 11.0047 5.90308 11.0047 7.6896C11.0047 8.64711 10.6083 9.58915 10.0157 10.5395C9.51425 11.3438 8.87493 12.1502 8.22157 12.9743C8.10269 13.1242 7.98334 13.2748 7.86427 13.426C6.32122 15.3857 4.8233 17.4607 5.06401 19.8175C5.25461 21.7102 6.06976 23.1187 6.57154 23.9857C6.58577 24.0103 6.59976 24.0344 6.61347 24.0581C6.73802 24.2737 6.83889 24.4513 6.90191 24.5921C6.9334 24.6625 6.95458 24.7218 6.96476 24.7709C6.97504 24.8204 6.97319 24.855 6.9637 24.8789C6.955 24.9008 6.93787 24.9187 6.90425 24.9313C6.86909 24.9446 6.81738 24.9513 6.74434 24.9485C6.59839 24.943 6.38164 24.9002 6.0758 24.8173L6.07573 24.8173C3.89162 24.2296 1.72545 22.3435 0.683141 19.8766C-0.358075 17.4122 -0.277537 14.3687 2.0304 11.4618C2.45382 10.9288 2.9507 10.4248 3.47407 9.89401C3.56908 9.79765 3.66497 9.70039 3.76145 9.60192C4.38864 8.96177 5.03932 8.27152 5.63085 7.44281C6.81496 5.78394 7.75982 3.57345 7.81645 0.0998064ZM10.9326 14.5413L10.9327 14.5413C11.5168 13.6819 12.0391 12.7852 12.425 11.9937C12.8071 11.2102 13.0581 10.5247 13.1002 10.0799C13.1016 10.0783 13.1025 10.0777 13.1028 10.0775C13.1031 10.0773 13.1035 10.0771 13.1049 10.0771C13.1069 10.0771 13.1103 10.0776 13.1153 10.0795C13.1196 10.0811 13.1243 10.0834 13.1292 10.0862C14.0382 10.8408 16.5791 13.4295 16.2204 17.5359L16.2204 17.536C16.003 20.0845 14.5391 22.3809 12.2808 23.7088C11.8189 23.9335 11.5171 24.1577 11.313 24.3546C11.1084 24.552 11.003 24.721 10.9337 24.8322L10.9337 24.8323C10.8979 24.8896 10.8753 24.9253 10.8549 24.945C10.8456 24.9539 10.8397 24.9565 10.8365 24.9572C10.8339 24.9578 10.8292 24.9583 10.8198 24.9543C10.7976 24.9448 10.7643 24.9175 10.7099 24.8591C10.6568 24.8021 10.5886 24.7214 10.4963 24.612C9.86249 23.8587 8.98965 22.7891 8.76413 21.1864C8.53871 19.5844 8.9592 17.4413 10.9326 14.5413ZM84.816 6.3825C85.76 6.76127 86.2067 7.80838 85.8166 8.72062C85.4261 9.6336 84.3444 10.0686 83.3997 9.6896C82.4557 9.31083 82.009 8.26372 82.3991 7.35149C82.7896 6.43851 83.8713 6.00347 84.816 6.3825ZM52.0268 16.5405C52.0268 13.1261 54.9117 10.6799 58.4466 10.6799C61.9851 10.6799 64.8699 13.1261 64.8663 16.5404V18.401C64.8663 21.8153 61.9815 24.2474 58.4466 24.2474C54.9116 24.2474 52.0268 21.8153 52.0268 18.401V16.5405ZM58.4429 21.3772C60.1438 21.3772 61.5432 20.2803 61.5432 18.6234V16.3004C61.5432 14.6435 60.1401 13.5466 58.4429 13.5466C56.7457 13.5466 55.3463 14.6436 55.3463 16.3004V18.6234C55.3463 20.2802 56.742 21.3772 58.4429 21.3772ZM73.6632 21.3772C75.3641 21.3772 76.7635 20.2803 76.7635 18.6234V16.3004C76.7635 14.6435 75.3604 13.5466 73.6632 13.5466C71.966 13.5466 70.5666 14.6436 70.5666 16.3004V18.6234C70.5666 20.2803 71.966 21.3772 73.6632 21.3772Z" stroke="url(#paint7_linear_1_176)" stroke-width="0.084731"/>
<defs>
<linearGradient id="paint0_linear_1_176" x1="108.507" y1="17.2431" x2="-0.103523" y2="1.0458" gradientUnits="userSpaceOnUse">
<stop stop-color="#85EAFE"/>
<stop offset="1" stop-color="#525AC1"/>
</linearGradient>
<linearGradient id="paint1_linear_1_176" x1="108.507" y1="17.2431" x2="-0.103523" y2="1.0458" gradientUnits="userSpaceOnUse">
<stop stop-color="#85EAFE"/>
<stop offset="1" stop-color="#525AC1"/>
</linearGradient>
<linearGradient id="paint2_linear_1_176" x1="108.507" y1="17.2431" x2="-0.103523" y2="1.0458" gradientUnits="userSpaceOnUse">
<stop stop-color="#85EAFE"/>
<stop offset="1" stop-color="#525AC1"/>
</linearGradient>
<linearGradient id="paint3_linear_1_176" x1="108.507" y1="17.2431" x2="-0.103523" y2="1.0458" gradientUnits="userSpaceOnUse">
<stop stop-color="#85EAFE"/>
<stop offset="1" stop-color="#525AC1"/>
</linearGradient>
<linearGradient id="paint4_linear_1_176" x1="108.507" y1="17.2431" x2="-0.103523" y2="1.0458" gradientUnits="userSpaceOnUse">
<stop stop-color="#85EAFE"/>
<stop offset="1" stop-color="#525AC1"/>
</linearGradient>
<linearGradient id="paint5_linear_1_176" x1="108.507" y1="17.2431" x2="-0.103523" y2="1.0458" gradientUnits="userSpaceOnUse">
<stop stop-color="#85EAFE"/>
<stop offset="1" stop-color="#525AC1"/>
</linearGradient>
<linearGradient id="paint6_linear_1_176" x1="108.507" y1="17.2431" x2="-0.103523" y2="1.0458" gradientUnits="userSpaceOnUse">
<stop stop-color="#85EAFE"/>
<stop offset="1" stop-color="#525AC1"/>
</linearGradient>
<linearGradient id="paint7_linear_1_176" x1="108.507" y1="17.2431" x2="-0.103523" y2="1.0458" gradientUnits="userSpaceOnUse">
<stop stop-color="#85EAFE"/>
<stop offset="1" stop-color="#525AC1"/>
</linearGradient>
</defs>
</svg>
