<svg width="59" height="58" viewBox="0 0 59 58" fill="none" xmlns="http://www.w3.org/2000/svg">
<rect x="1.5" y="1" width="56" height="56" rx="15" fill="url(#paint0_linear_1_285)" fill-opacity="0.1"/>
<rect x="1.5" y="1" width="56" height="56" rx="15" stroke="url(#paint1_linear_1_285)" stroke-width="2"/>
<path d="M37.4167 13.1666H21.5834C17.2134 13.1666 13.6667 16.6975 13.6667 21.0516V30.52V32.1033C13.6667 36.4575 17.2134 39.9883 21.5834 39.9883H23.9584C24.3859 39.9883 24.9559 40.2733 25.2251 40.6216L27.6001 43.7725C28.6451 45.1658 30.3551 45.1658 31.4001 43.7725L33.7751 40.6216C34.0759 40.2258 34.5509 39.9883 35.0417 39.9883H37.4167C41.7867 39.9883 45.3334 36.4575 45.3334 32.1033V21.0516C45.3334 16.6975 41.7867 13.1666 37.4167 13.1666ZM23.1667 29C22.2801 29 21.5834 28.2875 21.5834 27.4166C21.5834 26.5458 22.2959 25.8333 23.1667 25.8333C24.0376 25.8333 24.7501 26.5458 24.7501 27.4166C24.7501 28.2875 24.0534 29 23.1667 29ZM29.5001 29C28.6134 29 27.9167 28.2875 27.9167 27.4166C27.9167 26.5458 28.6292 25.8333 29.5001 25.8333C30.3709 25.8333 31.0834 26.5458 31.0834 27.4166C31.0834 28.2875 30.3867 29 29.5001 29ZM35.8334 29C34.9467 29 34.2501 28.2875 34.2501 27.4166C34.2501 26.5458 34.9626 25.8333 35.8334 25.8333C36.7042 25.8333 37.4167 26.5458 37.4167 27.4166C37.4167 28.2875 36.7201 29 35.8334 29Z" fill="url(#paint2_linear_1_285)"/>
<defs>
<linearGradient id="paint0_linear_1_285" x1="73.6794" y1="40.004" x2="-1.05843" y2="36.7639" gradientUnits="userSpaceOnUse">
<stop stop-color="#85EAFE"/>
<stop offset="1" stop-color="#525AC1"/>
</linearGradient>
<linearGradient id="paint1_linear_1_285" x1="73.6794" y1="40.004" x2="-1.05843" y2="36.7639" gradientUnits="userSpaceOnUse">
<stop stop-color="#85EAFE"/>
<stop offset="1" stop-color="#525AC1"/>
</linearGradient>
<linearGradient id="paint2_linear_1_285" x1="53.621" y1="34.997" x2="12.816" y2="33.2271" gradientUnits="userSpaceOnUse">
<stop stop-color="#85EAFE"/>
<stop offset="1" stop-color="#525AC1"/>
</linearGradient>
</defs>
</svg>
