<svg width="58" height="58" viewBox="0 0 58 58" fill="none" xmlns="http://www.w3.org/2000/svg">
<rect x="1" y="1" width="56" height="56" rx="15" fill="url(#paint0_linear_1_421)" fill-opacity="0.1"/>
<rect x="1" y="1" width="56" height="56" rx="15" stroke="url(#paint1_linear_1_421)" stroke-width="2"/>
<path d="M44.1366 27.005L41.9991 24.5033C41.6033 24.0283 41.2708 23.1416 41.2708 22.5083V19.8166C41.2708 18.1383 39.8933 16.7608 38.215 16.7608H35.5233C34.89 16.7608 33.9875 16.4283 33.5125 16.0325L31.0108 13.895C29.9183 12.9608 28.1291 12.9608 27.0366 13.895L24.5033 16.0325C24.0283 16.4283 23.1416 16.7608 22.5083 16.7608H19.7691C18.0908 16.7608 16.7133 18.1383 16.7133 19.8166V22.5083C16.7133 23.1258 16.3966 24.0125 16.0008 24.4875L13.8633 27.005C12.945 28.1133 12.945 29.8866 13.8633 30.9633L16.0008 33.4808C16.3966 33.94 16.7133 34.8425 16.7133 35.46V38.1675C16.7133 39.8458 18.0908 41.2233 19.7691 41.2233H22.5241C23.1416 41.2233 24.0441 41.5558 24.5191 41.9516L27.0208 44.0891C28.1133 45.0233 29.9025 45.0233 30.995 44.0891L33.4966 41.9516C33.9716 41.5558 34.8583 41.2233 35.4916 41.2233H38.1833C39.8616 41.2233 41.2391 39.8458 41.2391 38.1675V35.4758C41.2391 34.8425 41.5716 33.9558 41.9675 33.4808L44.105 30.9791C45.0708 29.9025 45.0708 28.1133 44.1366 27.005ZM27.8125 22.8725C27.8125 22.2233 28.3508 21.685 29 21.685C29.6491 21.685 30.1875 22.2233 30.1875 22.8725V30.52C30.1875 31.1691 29.6491 31.7075 29 31.7075C28.3508 31.7075 27.8125 31.1691 27.8125 30.52V22.8725ZM29 36.7108C28.1291 36.7108 27.4166 35.9983 27.4166 35.1275C27.4166 34.2566 28.1133 33.5441 29 33.5441C29.8708 33.5441 30.5833 34.2566 30.5833 35.1275C30.5833 35.9983 29.8866 36.7108 29 36.7108Z" fill="url(#paint2_linear_1_421)"/>
<defs>
<linearGradient id="paint0_linear_1_421" x1="73.1794" y1="40.004" x2="-1.55843" y2="36.7639" gradientUnits="userSpaceOnUse">
<stop stop-color="#85EAFE"/>
<stop offset="1" stop-color="#525AC1"/>
</linearGradient>
<linearGradient id="paint1_linear_1_421" x1="73.1794" y1="40.004" x2="-1.55843" y2="36.7639" gradientUnits="userSpaceOnUse">
<stop stop-color="#85EAFE"/>
<stop offset="1" stop-color="#525AC1"/>
</linearGradient>
<linearGradient id="paint2_linear_1_421" x1="53.1189" y1="34.9864" x2="12.3242" y2="33.2144" gradientUnits="userSpaceOnUse">
<stop stop-color="#85EAFE"/>
<stop offset="1" stop-color="#525AC1"/>
</linearGradient>
</defs>
</svg>
