<svg width="37" height="37" viewBox="0 0 37 37" fill="none" xmlns="http://www.w3.org/2000/svg">
<path d="M18.6773 0H18.5944C8.55934 0 0.424316 8.13501 0.424316 18.1701V18.253C0.424316 28.2881 8.55934 36.4231 18.5944 36.4231H18.6773C28.7124 36.4231 36.8474 28.2881 36.8474 18.253V18.1701C36.8474 8.13501 28.7124 0 18.6773 0Z" fill="url(#paint0_linear_1_1313)"/>
<path d="M24.2717 7.41016H13.0014C9.88775 7.41016 7.35474 9.94317 7.35474 13.0568V23.3675C7.35474 26.4811 9.88775 29.0142 13.0014 29.0142H24.2717C27.3853 29.0142 29.9184 26.4811 29.9184 23.3675V13.0568C29.9184 9.94317 27.3853 7.41016 24.2717 7.41016ZM9.3467 13.0568C9.3467 11.0419 10.9865 9.40211 13.0014 9.40211H24.2717C26.2866 9.40211 27.9264 11.0419 27.9264 13.0568V23.3675C27.9264 25.3824 26.2866 27.0222 24.2717 27.0222H13.0014C10.9865 27.0222 9.3467 25.3824 9.3467 23.3675V13.0568Z" fill="white"/>
<path d="M18.6366 23.4631C21.532 23.4631 23.889 21.1075 23.889 18.2108C23.889 15.3141 21.5333 12.9584 18.6366 12.9584C15.7399 12.9584 13.3843 15.3141 13.3843 18.2108C13.3843 21.1075 15.7399 23.4631 18.6366 23.4631ZM18.6366 14.9517C20.4346 14.9517 21.897 16.4141 21.897 18.2121C21.897 20.01 20.4346 21.4724 18.6366 21.4724C16.8386 21.4724 15.3762 20.01 15.3762 18.2121C15.3762 16.4141 16.8386 14.9517 18.6366 14.9517Z" fill="white"/>
<path d="M24.3751 13.807C25.1548 13.807 25.7903 13.1728 25.7903 12.3918C25.7903 11.6108 25.1561 10.9766 24.3751 10.9766C23.5942 10.9766 22.96 11.6108 22.96 12.3918C22.96 13.1728 23.5942 13.807 24.3751 13.807Z" fill="white"/>
<defs>
<linearGradient id="paint0_linear_1_1313" x1="46.3799" y1="25.1219" x2="-0.554353" y2="23.0872" gradientUnits="userSpaceOnUse">
<stop stop-color="#85EAFE"/>
<stop offset="1" stop-color="#525AC1"/>
</linearGradient>
</defs>
</svg>
