<svg width="128" height="107" viewBox="0 0 128 107" fill="none" xmlns="http://www.w3.org/2000/svg">
<path d="M42.313 91.4829V102.635H40.857V91.4829H42.313ZM49.0665 93.7069C50.1332 93.7069 50.9972 94.0322 51.6585 94.6829C52.3198 95.3229 52.6505 96.2509 52.6505 97.4669V102.635H51.2105V97.6749C51.2105 96.8002 50.9918 96.1336 50.5545 95.6749C50.1172 95.2056 49.5198 94.9709 48.7625 94.9709C47.9945 94.9709 47.3812 95.2109 46.9225 95.6909C46.4745 96.1709 46.2505 96.8696 46.2505 97.7869V102.635H44.7945V93.8669H46.2505V95.1149C46.5385 94.6669 46.9278 94.3202 47.4185 94.0749C47.9198 93.8296 48.4692 93.7069 49.0665 93.7069ZM58.2929 101.291L61.0129 93.8669H62.5649L59.1249 102.635H57.4289L53.9889 93.8669H55.5569L58.2929 101.291ZM71.9976 97.9149C71.9976 98.1922 71.9816 98.4856 71.9496 98.7949H64.9416C64.995 99.6589 65.2883 100.336 65.8216 100.827C66.3656 101.307 67.0216 101.547 67.7896 101.547C68.419 101.547 68.9416 101.403 69.3576 101.115C69.7843 100.816 70.083 100.422 70.2536 99.9309H71.8216C71.587 100.774 71.1176 101.462 70.4136 101.995C69.7096 102.518 68.835 102.779 67.7896 102.779C66.9576 102.779 66.211 102.592 65.5496 102.219C64.899 101.846 64.387 101.318 64.0136 100.635C63.6403 99.9416 63.4536 99.1416 63.4536 98.2349C63.4536 97.3282 63.635 96.5336 63.9976 95.8509C64.3603 95.1682 64.867 94.6456 65.5176 94.2829C66.179 93.9096 66.9363 93.7229 67.7896 93.7229C68.6216 93.7229 69.3576 93.9042 69.9976 94.2669C70.6376 94.6296 71.1283 95.1309 71.4696 95.7709C71.8216 96.4002 71.9976 97.1149 71.9976 97.9149ZM70.4936 97.6109C70.4936 97.0562 70.371 96.5816 70.1256 96.1869C69.8803 95.7816 69.5443 95.4776 69.1176 95.2749C68.7016 95.0616 68.2376 94.9549 67.7256 94.9549C66.9896 94.9549 66.3603 95.1896 65.8376 95.6589C65.3256 96.1282 65.0323 96.7789 64.9576 97.6109H70.4936ZM77.0235 102.779C76.3515 102.779 75.7488 102.667 75.2155 102.443C74.6822 102.208 74.2608 101.888 73.9515 101.483C73.6422 101.067 73.4715 100.592 73.4395 100.059H74.9435C74.9862 100.496 75.1888 100.854 75.5515 101.131C75.9248 101.408 76.4102 101.547 77.0075 101.547C77.5622 101.547 77.9995 101.424 78.3195 101.179C78.6395 100.934 78.7995 100.624 78.7995 100.251C78.7995 99.8669 78.6288 99.5842 78.2875 99.4029C77.9462 99.2109 77.4182 99.0242 76.7035 98.8429C76.0528 98.6722 75.5195 98.5016 75.1035 98.3309C74.6982 98.1496 74.3462 97.8882 74.0475 97.5469C73.7595 97.1949 73.6155 96.7362 73.6155 96.1709C73.6155 95.7229 73.7488 95.3122 74.0155 94.9389C74.2822 94.5656 74.6608 94.2722 75.1515 94.0589C75.6422 93.8349 76.2022 93.7229 76.8315 93.7229C77.8022 93.7229 78.5862 93.9682 79.1835 94.4589C79.7808 94.9496 80.1008 95.6216 80.1435 96.4749H78.6875C78.6555 96.0162 78.4688 95.6482 78.1275 95.3709C77.7968 95.0936 77.3488 94.9549 76.7835 94.9549C76.2608 94.9549 75.8448 95.0669 75.5355 95.2909C75.2262 95.5149 75.0715 95.8082 75.0715 96.1709C75.0715 96.4589 75.1622 96.6989 75.3435 96.8909C75.5355 97.0722 75.7702 97.2216 76.0475 97.3389C76.3355 97.4456 76.7302 97.5682 77.2315 97.7069C77.8608 97.8776 78.3728 98.0482 78.7675 98.2189C79.1622 98.3789 79.4982 98.6242 79.7755 98.9549C80.0635 99.2856 80.2128 99.7176 80.2235 100.251C80.2235 100.731 80.0902 101.163 79.8235 101.547C79.5568 101.931 79.1782 102.235 78.6875 102.459C78.2075 102.672 77.6528 102.779 77.0235 102.779ZM84.0549 95.0669V100.235C84.0549 100.662 84.1455 100.966 84.3269 101.147C84.5082 101.318 84.8229 101.403 85.2709 101.403H86.3429V102.635H85.0309C84.2202 102.635 83.6122 102.448 83.2069 102.075C82.8015 101.702 82.5989 101.088 82.5989 100.235V95.0669H81.4629V93.8669H82.5989V91.6589H84.0549V93.8669H86.3429V95.0669H84.0549Z" fill="#727D91"/>
<circle cx="63.5" cy="41.9199" r="41" fill="url(#paint0_linear_1_349)"/>
<path d="M44.8754 56.6755C43.0491 56.109 41.637 54.3002 41.2299 52.0058C40.9234 50.2777 40.9233 47.7223 41.2299 45.9942C41.637 43.6998 43.0491 41.891 44.8754 41.3245C46.2706 40.8918 47.7294 40.8918 49.1246 41.3245C50.9509 41.891 52.363 43.6998 52.7701 45.9942C53.0766 47.7223 53.0767 50.2777 52.7701 52.0058C52.3631 54.3002 50.9509 56.109 49.1246 56.6755C47.7294 57.1082 46.2706 57.1082 44.8754 56.6755Z" fill="white"/>
<path d="M49.1246 56.6755L49.3467 57.3918V57.3918L49.1246 56.6755ZM44.8754 56.6755L45.0976 55.9591L44.8754 56.6755ZM44.8754 41.3245L44.6532 40.6082L44.8754 41.3245ZM49.1246 41.3245L48.9024 42.0409L49.1246 41.3245ZM52.7701 45.9942L52.0316 46.1252L52.7701 45.9942ZM52.7701 52.0058L53.5085 52.1369L52.7701 52.0058ZM41.2299 52.0058L41.9684 51.8748L41.2299 52.0058ZM41.2299 45.9942L41.9684 46.1252L41.2299 45.9942ZM48.9024 55.9591C47.6519 56.347 46.3481 56.347 45.0976 55.9591L44.6532 57.3918C46.1931 57.8694 47.8068 57.8694 49.3467 57.3918L48.9024 55.9591ZM45.0976 42.0409C46.3481 41.653 47.6519 41.653 48.9024 42.0409L49.3467 40.6082C47.8068 40.1306 46.1931 40.1306 44.6532 40.6082L45.0976 42.0409ZM52.0316 46.1252C52.3228 47.7666 52.3228 50.2334 52.0316 51.8748L53.5085 52.1369C53.8305 50.322 53.8305 47.678 53.5085 45.8631L52.0316 46.1252ZM41.9684 51.8748C41.6772 50.2333 41.6772 47.7666 41.9684 46.1252L40.4915 45.8631C40.1695 47.678 40.1695 50.3221 40.4915 52.1369L41.9684 51.8748ZM52.0316 51.8748C51.6607 53.9653 50.397 55.4956 48.9024 55.9591L49.3467 57.3918C51.5049 56.7224 53.0654 54.6351 53.5085 52.1369L52.0316 51.8748ZM53.5085 45.8631C53.0653 43.3649 51.5049 41.2776 49.3467 40.6082L48.9024 42.0409C50.397 42.5044 51.6607 44.0347 52.0316 46.1252L53.5085 45.8631ZM41.9684 46.1252C42.3393 44.0347 43.603 42.5044 45.0976 42.0409L44.6532 40.6082C42.4951 41.2776 40.9346 43.3649 40.4915 45.8631L41.9684 46.1252ZM40.4915 52.1369C40.9347 54.635 42.4951 56.7224 44.6532 57.3918L45.0976 55.9591C43.603 55.4956 42.3393 53.9654 41.9684 51.8748L40.4915 52.1369Z" fill="white"/>
<path d="M60.8754 56.6755C59.0491 56.109 57.637 54.3002 57.2299 52.0058C56.9234 50.2777 56.9233 37.7223 57.2299 35.9942C57.637 33.6998 59.0491 31.891 60.8754 31.3245C62.2706 30.8918 63.7294 30.8918 65.1246 31.3245C66.9509 31.891 68.363 33.6998 68.7701 35.9942C69.0766 37.7223 69.0767 50.2777 68.7701 52.0058C68.3631 54.3002 66.9509 56.109 65.1246 56.6755C63.7294 57.1082 62.2706 57.1082 60.8754 56.6755Z" fill="white"/>
<path d="M65.1246 56.6755L65.3467 57.3918L65.3467 57.3918L65.1246 56.6755ZM60.8754 56.6755L61.0976 55.9591L60.8754 56.6755ZM60.8754 31.3245L60.6532 30.6082L60.8754 31.3245ZM65.1246 31.3245L64.9024 32.0409L65.1246 31.3245ZM68.7701 35.9942L68.0316 36.1252L68.7701 35.9942ZM68.7701 52.0058L69.5086 52.1369L68.7701 52.0058ZM57.2299 52.0058L57.9684 51.8748L57.2299 52.0058ZM57.2299 35.9942L57.9684 36.1252L57.2299 35.9942ZM64.9024 55.9591C63.6519 56.347 62.3481 56.347 61.0976 55.9591L60.6532 57.3918C62.1931 57.8694 63.8068 57.8694 65.3467 57.3918L64.9024 55.9591ZM61.0976 32.0409C62.3481 31.653 63.6519 31.653 64.9024 32.0409L65.3467 30.6082C63.8068 30.1306 62.1931 30.1306 60.6532 30.6082L61.0976 32.0409ZM68.0316 36.1252C68.0962 36.4895 68.1539 37.5335 68.1928 39.0019C68.2309 40.4405 68.25 42.2191 68.25 44C68.25 45.7809 68.2309 47.5595 68.1928 48.9981C68.1539 50.4666 68.0962 51.5105 68.0316 51.8748L69.5086 52.1369C69.5972 51.6371 69.6545 50.4636 69.6923 49.0378C69.7308 47.5823 69.75 45.7899 69.75 44C69.75 42.2101 69.7308 40.4177 69.6923 38.9622C69.6545 37.5364 69.5972 36.3629 69.5085 35.8631L68.0316 36.1252ZM57.9684 51.8748C57.9038 51.5105 57.8461 50.4665 57.8072 48.9981C57.7691 47.5595 57.75 45.7809 57.75 44C57.75 42.2191 57.7691 40.4405 57.8072 39.0019C57.8461 37.5335 57.9038 36.4895 57.9684 36.1252L56.4915 35.8631C56.4028 36.3629 56.3455 37.5364 56.3077 38.9622C56.2692 40.4177 56.25 42.2101 56.25 44C56.25 45.7899 56.2692 47.5823 56.3078 49.0378C56.3455 50.4636 56.4028 51.6371 56.4915 52.1369L57.9684 51.8748ZM68.0316 51.8748C67.6607 53.9653 66.397 55.4956 64.9024 55.9591L65.3467 57.3918C67.5049 56.7224 69.0654 54.6351 69.5086 52.1369L68.0316 51.8748ZM69.5085 35.8631C69.0653 33.3649 67.5049 31.2776 65.3467 30.6082L64.9024 32.0409C66.397 32.5044 67.6607 34.0347 68.0316 36.1252L69.5085 35.8631ZM57.9684 36.1252C58.3393 34.0347 59.603 32.5044 61.0976 32.0409L60.6532 30.6082C58.4951 31.2776 56.9346 33.3649 56.4915 35.8631L57.9684 36.1252ZM56.4915 52.1369C56.9347 54.635 58.4951 56.7224 60.6532 57.3918L61.0976 55.9591C59.603 55.4956 58.3393 53.9654 57.9684 51.8748L56.4915 52.1369Z" fill="white"/>
<path d="M76.8754 56.6755C75.0491 56.109 73.637 54.3002 73.2299 52.0058C72.9234 50.2777 72.9233 27.7223 73.2299 25.9942C73.6369 23.6998 75.0491 21.891 76.8754 21.3245C78.2706 20.8918 79.7294 20.8918 81.1246 21.3245C82.9509 21.891 84.363 23.6998 84.7701 25.9942C85.0766 27.7223 85.0767 50.2777 84.7701 52.0058C84.363 54.3002 82.9509 56.109 81.1246 56.6755C79.7294 57.1082 78.2706 57.1082 76.8754 56.6755Z" fill="white"/>
<path d="M81.1246 56.6755L81.3467 57.3918V57.3918L81.1246 56.6755ZM76.8754 56.6755L77.0976 55.9591L76.8754 56.6755ZM76.8754 21.3245L76.6532 20.6082L76.8754 21.3245ZM81.1246 21.3245L80.9024 22.0409L81.1246 21.3245ZM84.7701 25.9942L84.0316 26.1252L84.7701 25.9942ZM84.7701 52.0058L85.5085 52.1369L84.7701 52.0058ZM73.2299 52.0058L73.9684 51.8748L73.2299 52.0058ZM73.2299 25.9942L73.9684 26.1252L73.2299 25.9942ZM80.9024 55.9591C79.6519 56.347 78.3481 56.347 77.0976 55.9591L76.6532 57.3918C78.1931 57.8694 79.8068 57.8694 81.3467 57.3918L80.9024 55.9591ZM77.0976 22.0409C78.3481 21.653 79.6519 21.653 80.9024 22.0409L81.3467 20.6082C79.8068 20.1306 78.1931 20.1306 76.6532 20.6082L77.0976 22.0409ZM84.0316 26.1252C84.0587 26.2781 84.0917 26.7593 84.1212 27.5646C84.1496 28.3427 84.1735 29.3665 84.1926 30.5566C84.2309 32.9359 84.25 35.9671 84.25 39C84.25 42.0329 84.2309 45.0641 84.1926 47.4434C84.1735 48.6335 84.1496 49.6573 84.1212 50.4354C84.0917 51.2407 84.0587 51.7219 84.0316 51.8748L85.5085 52.1369C85.5581 51.8577 85.5922 51.2561 85.6202 50.4903C85.6492 49.6974 85.6732 48.662 85.6924 47.4675C85.7308 45.0777 85.75 42.038 85.75 39C85.75 35.962 85.7308 32.9223 85.6924 30.5325C85.6732 29.338 85.6492 28.3026 85.6202 27.5097C85.5921 26.7439 85.558 26.1423 85.5085 25.8632L84.0316 26.1252ZM73.9684 51.8748C73.9413 51.7219 73.9083 51.2407 73.8788 50.4354C73.8504 49.6573 73.8265 48.6335 73.8074 47.4434C73.7692 45.0641 73.75 42.0329 73.75 39C73.75 35.9671 73.7691 32.9359 73.8074 30.5566C73.8265 29.3665 73.8504 28.3427 73.8788 27.5646C73.9083 26.7593 73.9413 26.2781 73.9684 26.1252L72.4915 25.8631C72.4419 26.1423 72.4078 26.7439 72.3798 27.5097C72.3508 28.3026 72.3268 29.338 72.3076 30.5325C72.2692 32.9223 72.25 35.962 72.25 39C72.25 42.038 72.2692 45.0777 72.3076 47.4675C72.3268 48.662 72.3508 49.6974 72.3799 50.4903C72.4079 51.2561 72.442 51.8577 72.4915 52.1369L73.9684 51.8748ZM84.0316 51.8748C83.6607 53.9653 82.397 55.4956 80.9024 55.9591L81.3467 57.3918C83.5049 56.7224 85.0654 54.6351 85.5085 52.1369L84.0316 51.8748ZM85.5085 25.8632C85.0653 23.365 83.5049 21.2776 81.3467 20.6082L80.9024 22.0409C82.397 22.5044 83.6607 24.0347 84.0316 26.1252L85.5085 25.8632ZM73.9684 26.1252C74.3393 24.0347 75.603 22.5044 77.0976 22.0409L76.6532 20.6082C74.4951 21.2776 72.9346 23.3649 72.4915 25.8631L73.9684 26.1252ZM72.4915 52.1369C72.9347 54.635 74.4951 56.7224 76.6532 57.3918L77.0976 55.9591C75.603 55.4956 74.3393 53.9654 73.9684 51.8748L72.4915 52.1369Z" fill="white"/>
<defs>
<linearGradient id="paint0_linear_1_349" x1="22.5" y1="41.9199" x2="104.5" y2="41.9199" gradientUnits="userSpaceOnUse">
<stop stop-color="#4562C5"/>
<stop offset="1" stop-color="#18C7FE"/>
</linearGradient>
</defs>
</svg>
