<svg width="102" height="24" viewBox="0 0 102 24" fill="none" xmlns="http://www.w3.org/2000/svg">
<path d="M13.7774 19.0933L6.80635 12.0001L13.8008 4.90669L18.2052 9.38789C18.9821 10.1788 20.2539 10.1788 21.0313 9.38789C21.8082 8.59712 21.8082 7.30309 21.0313 6.5122L15.2139 0.593162C14.437 -0.197721 13.1651 -0.197721 12.3878 0.593162L4.00368 9.12438V4.09193C4.00368 2.96558 3.10856 2.05499 2.00184 2.05499C0.895124 2.05499 0 2.96558 0 4.09193V19.956C0 21.0824 0.895124 21.993 2.00184 21.993C3.10856 21.993 4.00368 21.0584 4.00368 19.956V14.8757L12.3643 23.4068C13.1417 24.1977 14.4131 24.1977 15.1904 23.4068L21.0074 17.4878C21.7847 16.6969 21.7847 15.4029 21.0074 14.6121C20.2304 13.8212 18.9586 13.8212 18.1812 14.6121L13.7774 19.0933Z" fill="url(#paint0_linear_1_189)"/>
<path d="M11.799 12.0001C11.799 10.8737 12.6941 9.96312 13.8008 9.96312C14.8841 9.96312 15.7792 10.8737 15.8027 12.0001C15.8027 13.1263 14.908 14.037 13.8008 14.037C12.6941 14.037 11.799 13.1263 11.799 12.0001Z" fill="url(#paint1_linear_1_189)"/>
<path d="M60.0552 12.0001C60.0552 11.329 60.0552 10.7539 60.0791 10.2986C60.1026 9.8433 60.126 9.48384 60.173 9.19622C60.385 7.97403 61.3036 7.25511 62.4811 7.25511C63.2585 7.25511 63.9411 7.54273 64.3887 8.21367C64.5773 8.50129 64.7185 8.83676 64.8128 9.22021C64.8128 9.26818 64.8362 9.29205 64.8832 9.29205H67.5212C67.5428 9.29205 67.5543 9.28702 67.5607 9.27684C67.5681 9.26491 67.5681 9.24607 67.5681 9.22021C67.2856 7.56672 66.414 6.05691 64.8597 5.31412C64.1532 4.97853 63.3289 4.78687 62.4342 4.78687C60.9503 4.78687 59.6785 5.31412 58.666 6.34453C58.0773 6.94363 57.7001 7.66255 57.5354 8.4773C57.3707 9.26818 57.2999 10.4424 57.2999 12.0001C57.2999 13.5577 57.3707 14.7319 57.5354 15.5227C57.7001 16.3376 58.1007 17.0565 58.666 17.6556C59.6785 18.686 60.9503 19.2133 62.4342 19.2133C63.3289 19.2133 64.1297 19.0455 64.8597 18.686C66.3905 17.9431 67.2856 16.4574 67.5681 14.7799C67.5681 14.7319 67.5681 14.7079 67.5212 14.7079H64.8832C64.8611 14.7079 64.8441 14.7133 64.8326 14.7241C64.8192 14.736 64.8128 14.7546 64.8128 14.7799C64.7185 15.1632 64.5773 15.4988 64.3887 15.7863C63.9411 16.4334 63.2585 16.7209 62.4811 16.7449C61.3036 16.7449 60.385 16.026 60.173 14.8038C60.126 14.5163 60.0791 14.1568 60.0791 13.7015C60.0552 13.2461 60.0552 12.671 60.0552 12.0001Z" fill="url(#paint2_linear_1_189)"/>
<path fill-rule="evenodd" clip-rule="evenodd" d="M80.2856 12.0001C80.2856 11.377 80.2856 10.8019 80.2617 10.2746C80.2383 9.74746 80.1914 9.2442 80.1205 8.7889C80.0501 8.33349 79.9085 7.90219 79.7203 7.49475C79.5317 7.08743 79.2493 6.70399 78.896 6.34453C78.4016 5.84126 77.8597 5.45781 77.2475 5.1943C76.6352 4.93067 75.9287 4.78687 75.1279 4.78687C75.0405 4.78687 74.9545 4.78862 74.8694 4.79201C74.7102 4.79833 74.5547 4.81062 74.4034 4.82852C74.2056 4.85181 74.0147 4.8848 73.8307 4.92705C73.54 4.99363 73.2659 5.08337 73.0083 5.1943C72.396 5.45781 71.8307 5.84126 71.3362 6.34453C70.983 6.70399 70.7235 7.08743 70.5354 7.49475C70.3468 7.90219 70.2056 8.33349 70.1348 8.7889C70.0644 9.2442 70.017 9.74746 69.9936 10.2746C69.9701 10.8019 69.9701 11.377 69.9701 12.0001C69.9701 12.6231 69.9701 13.1743 69.9936 13.7254C70.017 14.2527 70.0644 14.7559 70.1348 15.2112C70.2056 15.6665 70.3468 16.0979 70.5354 16.5052C70.7235 16.9127 71.0064 17.2961 71.3362 17.6556C71.8307 18.1587 72.3721 18.5422 73.0083 18.8058C73.6205 19.0694 74.327 19.2133 75.1279 19.2133C75.9287 19.2133 76.6113 19.0694 77.2475 18.8058C77.8597 18.5422 78.425 18.1587 78.896 17.6556C79.0667 17.4818 79.2153 17.3024 79.3473 17.1175C79.4885 16.9198 79.6109 16.7158 79.7203 16.5052C79.9085 16.0979 80.0501 15.6665 80.1205 15.2112C80.1914 14.7559 80.2617 14.2527 80.2617 13.7254C80.2856 13.1743 80.2856 12.6231 80.2856 12.0001ZM77.5773 12.0001C77.5773 12.671 77.5773 13.2461 77.5534 13.7015C77.5299 14.1568 77.5064 14.5163 77.4356 14.8038C77.4025 15.0067 77.3574 15.1857 77.3008 15.3324C77.2774 15.3938 77.2516 15.4494 77.224 15.4988C77.1808 15.5871 77.1375 15.6701 77.0897 15.7482L77.0501 15.8094L77.0189 15.8543C76.9811 15.906 76.9402 15.9553 76.8942 16.002C76.7056 16.2416 76.4466 16.4094 76.1642 16.5532C75.8579 16.697 75.5281 16.7449 75.1513 16.7689C75.0115 16.7689 74.8781 16.7589 74.7498 16.7392C74.5331 16.7056 74.3312 16.6436 74.1385 16.5532C73.8326 16.4094 73.5971 16.2416 73.385 16.002C73.3174 15.9333 73.2608 15.8591 73.2097 15.7794L73.1789 15.7293L73.1251 15.6356L73.0957 15.5791L73.0552 15.4988C72.9609 15.307 72.8905 15.0914 72.8431 14.8038C72.8284 14.7146 72.8137 14.6184 72.8004 14.5146L72.787 14.4024L72.7746 14.2737C72.7594 14.1019 72.7493 13.9119 72.7493 13.7015C72.7254 13.2461 72.7254 12.695 72.7254 12.0001C72.7254 11.329 72.7254 10.7539 72.7493 10.2986C72.7728 9.8433 72.7962 9.48384 72.8431 9.19622C72.8537 9.13128 72.8657 9.0688 72.8786 9.00889L72.8924 8.94956L72.92 8.84273C72.9361 8.78656 72.9531 8.73367 72.9715 8.68429C72.9968 8.61643 73.0248 8.55511 73.0552 8.50129C73.0971 8.41599 73.1389 8.33548 73.1854 8.25966C73.2429 8.165 73.3068 8.07782 73.385 7.99802C73.5736 7.75838 73.8326 7.5907 74.1385 7.4469C74.4448 7.30309 74.7746 7.25511 75.1513 7.23124C75.5281 7.23124 75.8579 7.30309 76.1642 7.4469C76.3293 7.53091 76.4862 7.62323 76.626 7.73322C76.7254 7.81139 76.816 7.89844 76.8942 7.99802C77.0354 8.14183 77.1297 8.30962 77.224 8.50129C77.3178 8.69295 77.3887 8.90872 77.4356 9.19622C77.483 9.48384 77.5299 9.8433 77.5534 10.2986C77.5534 10.4147 77.5552 10.5386 77.5575 10.6699L77.563 10.9618L77.5658 11.0972C77.5718 11.3739 77.5773 11.6758 77.5773 12.0001Z" fill="url(#paint3_linear_1_189)"/>
<path d="M102 5.14633C102 5.00252 101.882 4.90669 101.764 4.90669H99.5271C99.3855 4.90669 99.2916 5.02651 99.2916 5.14633V13.6056L93.804 4.97853C93.7571 4.93067 93.7332 4.90669 93.6628 4.90669H91.5667C91.4489 4.90669 91.3312 5.02651 91.3312 5.14633V18.8538C91.3312 18.9975 91.4489 19.0934 91.5667 19.0934H93.804C93.9453 19.0934 94.0396 18.9736 94.0396 18.8538V10.3704L99.5271 19.0215L99.5612 19.0549C99.5754 19.0677 99.5892 19.0773 99.6058 19.0837C99.6127 19.0865 99.6205 19.0886 99.6288 19.0903C99.6403 19.0924 99.6536 19.0934 99.6684 19.0934H101.764C101.906 19.0934 102 18.9736 102 18.8538V5.14633Z" fill="url(#paint4_linear_1_189)"/>
<path d="M86.897 5.02861C86.9034 5.04055 86.9089 5.05318 86.9135 5.06652L86.9177 5.07928C86.9236 5.10022 86.9269 5.12257 86.9269 5.14633V18.8538C86.9269 18.9736 86.8326 19.0934 86.6914 19.0934H84.454C84.3362 19.0934 84.2185 18.9975 84.2185 18.8538V5.14633C84.2185 5.02651 84.3128 4.90669 84.454 4.90669H86.6914C86.7728 4.90669 86.8542 4.95267 86.897 5.02861Z" fill="url(#paint5_linear_1_189)"/>
<path d="M31.8882 4.90669C32.006 4.90669 32.1237 5.00252 32.1237 5.14633V10.8977L37.0225 4.93067C37.046 4.8827 37.0695 4.8827 37.1164 4.8827H40.1076C40.2488 4.8827 40.2958 4.97853 40.2019 5.09835L35.7507 10.5382L40.6021 18.9016C40.649 19.0215 40.6256 19.0933 40.5078 19.0933H37.776C37.7052 19.0933 37.6582 19.0694 37.6348 19.0215L33.937 12.623L32.1237 14.8278V18.8537C32.1237 18.9735 32.0294 19.0933 31.8882 19.0933H29.6509C29.5989 19.0933 29.5469 19.0747 29.5051 19.0415C29.4522 18.9995 29.4154 18.9341 29.4154 18.8537V5.14633C29.4154 5.02651 29.5097 4.90669 29.6509 4.90669H31.8882Z" fill="url(#paint6_linear_1_189)"/>
<path d="M48.4917 16.7449C47.2203 16.7449 46.0897 15.5467 46.0897 14.1328V5.14633C46.0897 5.07588 46.0616 5.01703 46.0189 4.97525C45.9747 4.93161 45.9144 4.90669 45.8542 4.90669H43.6168C43.4756 4.90669 43.3813 5.02651 43.3813 5.14633V14.1088C43.3813 17.2482 45.6895 19.2371 48.5156 19.2371C51.3418 19.2371 53.6495 17.2482 53.6495 14.1088V5.14633C53.6495 5.00252 53.5317 4.90669 53.414 4.90669H51.1766C51.0354 4.90669 50.9411 5.02651 50.9411 5.14633V14.1328C50.8942 15.5467 49.7401 16.7449 48.4917 16.7449Z" fill="url(#paint7_linear_1_189)"/>
<defs>
<linearGradient id="paint0_linear_1_189" x1="128.695" y1="16.5534" x2="1.33573" y2="-6.91211" gradientUnits="userSpaceOnUse">
<stop stop-color="#85EAFE"/>
<stop offset="1" stop-color="#525AC1"/>
</linearGradient>
<linearGradient id="paint1_linear_1_189" x1="128.695" y1="16.5534" x2="1.33573" y2="-6.91211" gradientUnits="userSpaceOnUse">
<stop stop-color="#85EAFE"/>
<stop offset="1" stop-color="#525AC1"/>
</linearGradient>
<linearGradient id="paint2_linear_1_189" x1="128.695" y1="16.5534" x2="1.33573" y2="-6.91211" gradientUnits="userSpaceOnUse">
<stop stop-color="#85EAFE"/>
<stop offset="1" stop-color="#525AC1"/>
</linearGradient>
<linearGradient id="paint3_linear_1_189" x1="128.695" y1="16.5534" x2="1.33573" y2="-6.91211" gradientUnits="userSpaceOnUse">
<stop stop-color="#85EAFE"/>
<stop offset="1" stop-color="#525AC1"/>
</linearGradient>
<linearGradient id="paint4_linear_1_189" x1="128.695" y1="16.5534" x2="1.33573" y2="-6.91211" gradientUnits="userSpaceOnUse">
<stop stop-color="#85EAFE"/>
<stop offset="1" stop-color="#525AC1"/>
</linearGradient>
<linearGradient id="paint5_linear_1_189" x1="128.695" y1="16.5534" x2="1.33573" y2="-6.91211" gradientUnits="userSpaceOnUse">
<stop stop-color="#85EAFE"/>
<stop offset="1" stop-color="#525AC1"/>
</linearGradient>
<linearGradient id="paint6_linear_1_189" x1="128.695" y1="16.5534" x2="1.33573" y2="-6.91211" gradientUnits="userSpaceOnUse">
<stop stop-color="#85EAFE"/>
<stop offset="1" stop-color="#525AC1"/>
</linearGradient>
<linearGradient id="paint7_linear_1_189" x1="128.695" y1="16.5534" x2="1.33573" y2="-6.91211" gradientUnits="userSpaceOnUse">
<stop stop-color="#85EAFE"/>
<stop offset="1" stop-color="#525AC1"/>
</linearGradient>
</defs>
</svg>
