<svg xmlns="http://www.w3.org/2000/svg" width="20" height="21" viewBox="0 0 20 21" fill="none">
<path d="M14.1971 0.5H5.8129C2.17108 0.5 0 2.67 0 6.31V14.68C0 18.33 2.17108 20.5 5.8129 20.5H14.1871C17.8289 20.5 20 18.33 20 14.69V6.31C20.01 2.67 17.8389 0.5 14.1971 0.5ZM15.0075 15.97C13.2966 15.97 11.6958 15.23 10.4152 13.86C8.96447 15.17 7.07352 15.97 5.00249 15.97C4.59229 15.97 4.25212 15.63 4.25212 15.22C4.25212 14.81 4.59229 14.47 5.00249 14.47C8.47422 14.47 11.3457 11.72 11.7158 8.2H10.005H5.0125C4.60229 8.2 4.26212 7.86 4.26212 7.45C4.26212 7.04 4.60229 6.71 5.0125 6.71H9.25461V5.78C9.25461 5.37 9.59478 5.03 10.005 5.03C10.4152 5.03 10.7554 5.37 10.7554 5.78V6.71H12.4462C12.4662 6.71 12.4862 6.7 12.5062 6.7C12.5262 6.7 12.5463 6.71 12.5663 6.71H14.9975C15.4077 6.71 15.7478 7.05 15.7478 7.46C15.7478 7.87 15.4077 8.21 14.9975 8.21H13.2166C13.0665 9.92 12.4262 11.49 11.4457 12.77C12.4462 13.88 13.6968 14.48 15.0075 14.48C15.4177 14.48 15.7579 14.82 15.7579 15.23C15.7579 15.64 15.4177 15.97 15.0075 15.97Z" fill="#525AC1"/>
</svg>