<svg width="58" height="58" viewBox="0 0 58 58" fill="none" xmlns="http://www.w3.org/2000/svg">
<rect x="1" y="1" width="56" height="56" rx="15" fill="url(#paint0_linear_1_492)" fill-opacity="0.1"/>
<rect x="1" y="1" width="56" height="56" rx="15" stroke="url(#paint1_linear_1_492)" stroke-width="2"/>
<path d="M35.6342 13.1667H22.3659C16.6026 13.1667 13.1667 16.6025 13.1667 22.3659V35.6184C13.1667 41.3975 16.6026 44.8334 22.3659 44.8334H35.6184C41.3817 44.8334 44.8176 41.3975 44.8176 35.6342V22.3659C44.8334 16.6025 41.3976 13.1667 35.6342 13.1667ZM29.0001 38.5159C23.9809 38.5159 19.8959 34.4309 19.8959 29.4117C19.8959 27.6067 20.4184 25.8492 21.4317 24.3609C21.7959 23.8067 22.5401 23.6642 23.0784 24.0284C22.3659 22.4609 17.001 22.3817 20.5001 25.0575C16.1052 24.44 19.0001 29.1701 19.0001 30.5001C19.0001 34.2051 24.6301 39.5001 28.3351 39.5001C32.0401 39.5001 39.0001 35.7051 39.0001 32.0001C39.0001 28.2951 38.7051 21.3684 35.0001 21.3684C36.0002 15.6859 24.2659 19.0001 28.1134 22.7459L29.0001 23.395C29.5226 23.775 29.0634 21.2575 28.6676 21.7959C28.4301 22.1125 28.7151 19.1517 28.3351 22.2392C28.0976 22.2392 28.206 20.6426 28.0001 20.5001L24.5192 23.0625C24.5192 23.0625 24.5034 23.0467 24.4876 23.0309C24.4717 23.015 25.516 24.0159 25.5001 24.0001C25.4526 23.9684 24.3767 22.9042 24.3292 22.8567C24.2817 22.7934 24.2342 22.7459 24.1867 22.6667C24.1551 22.6034 24.1392 22.5242 24.1076 22.4609C24.0917 22.3817 24.0601 22.3184 24.0601 22.2392C24.0601 22.16 24.0601 22.0967 24.0759 22.0175C24.0759 21.9384 24.0759 21.875 24.1076 21.7959C24.1076 21.7167 24.1551 21.6534 24.1867 21.5742C23.5001 22.5001 24.4526 23.0634 24.5001 23.0001C25.2343 24.6626 27.1868 24.6318 26.0001 22.5001C26.016 22.4842 26.9734 22.8725 26.9892 22.8567L29.0001 21.0001C29.4276 20.5092 29.0093 19.5567 29.5001 20.0001C29.991 20.4276 29.2059 19.3734 28.7784 19.8642L28.3351 20.3709C28.5567 20.355 28.7784 20.3234 29.0159 20.3234C34.0351 20.3234 38.1201 24.4084 38.1201 29.4275C38.1201 34.4467 34.0192 38.5159 29.0001 38.5159Z" fill="url(#paint2_linear_1_492)"/>
<defs>
<linearGradient id="paint0_linear_1_492" x1="73.1794" y1="40.004" x2="-1.55843" y2="36.7639" gradientUnits="userSpaceOnUse">
<stop stop-color="#85EAFE"/>
<stop offset="1" stop-color="#525AC1"/>
</linearGradient>
<linearGradient id="paint1_linear_1_492" x1="73.1794" y1="40.004" x2="-1.55843" y2="36.7639" gradientUnits="userSpaceOnUse">
<stop stop-color="#85EAFE"/>
<stop offset="1" stop-color="#525AC1"/>
</linearGradient>
<linearGradient id="paint2_linear_1_492" x1="53.1011" y1="35.0079" x2="12.3162" y2="33.2407" gradientUnits="userSpaceOnUse">
<stop stop-color="#85EAFE"/>
<stop offset="1" stop-color="#525AC1"/>
</linearGradient>
</defs>
</svg>
