<svg width="59" height="58" viewBox="0 0 59 58" fill="none" xmlns="http://www.w3.org/2000/svg">
<rect x="1.5" y="1" width="56" height="56" rx="15" fill="url(#paint0_linear_1_440)" fill-opacity="0.1"/>
<rect x="1.5" y="1" width="56" height="56" rx="15" stroke="url(#paint1_linear_1_440)" stroke-width="2"/>
<path d="M42.1666 29V38.5C42.1666 41.9992 39.3324 44.8334 35.8333 44.8334H23.1666C19.6674 44.8334 16.8333 41.9992 16.8333 38.5V29C16.8333 28.1292 17.5458 27.4167 18.4166 27.4167H21.5358C22.4066 27.4167 23.1191 28.1292 23.1191 29V33.9717C23.1191 35.1434 23.7683 36.22 24.7974 36.7742C25.2566 37.0275 25.7633 37.1542 26.2858 37.1542C26.8874 37.1542 27.4891 36.98 28.0116 36.6317L29.5158 35.65L30.9091 36.5842C31.8749 37.2334 33.1099 37.3125 34.1391 36.7584C35.1841 36.2042 35.8333 35.1434 35.8333 33.9559V29C35.8333 28.1292 36.5458 27.4167 37.4166 27.4167H40.5833C41.4541 27.4167 42.1666 28.1292 42.1666 29Z" fill="url(#paint2_linear_1_440)"/>
<path d="M44.5416 21.0834V22.6667C44.5416 24.4084 43.7024 25.8334 41.3749 25.8334H17.6249C15.2024 25.8334 14.4583 24.4084 14.4583 22.6667V21.0834C14.4583 19.3417 15.2024 17.9167 17.6249 17.9167H41.3749C43.7024 17.9167 44.5416 19.3417 44.5416 21.0834Z" fill="url(#paint3_linear_1_440)"/>
<path d="M28.9301 17.9167H20.1901C19.6517 17.3309 19.6676 16.4284 20.2376 15.8584L22.4859 13.61C23.0717 13.0242 24.0376 13.0242 24.6234 13.61L28.9301 17.9167Z" fill="url(#paint4_linear_1_440)"/>
<path d="M38.7942 17.9167H30.0542L34.3609 13.61C34.9467 13.0242 35.9125 13.0242 36.4984 13.61L38.7467 15.8584C39.3167 16.4284 39.3325 17.3309 38.7942 17.9167Z" fill="url(#paint5_linear_1_440)"/>
<path d="M32.6192 27.4167C33.49 27.4167 34.2025 28.1292 34.2025 29V33.9559C34.2025 35.2225 32.7934 35.9825 31.7484 35.27L30.3234 34.32C29.8009 33.9717 29.12 33.9717 28.5817 34.32L27.0934 35.3017C26.0484 35.9984 24.655 35.2384 24.655 33.9875V29C24.655 28.1292 25.3675 27.4167 26.2384 27.4167H32.6192Z" fill="url(#paint6_linear_1_440)"/>
<defs>
<linearGradient id="paint0_linear_1_440" x1="73.6794" y1="40.004" x2="-1.05843" y2="36.7639" gradientUnits="userSpaceOnUse">
<stop stop-color="#85EAFE"/>
<stop offset="1" stop-color="#525AC1"/>
</linearGradient>
<linearGradient id="paint1_linear_1_440" x1="73.6794" y1="40.004" x2="-1.05843" y2="36.7639" gradientUnits="userSpaceOnUse">
<stop stop-color="#85EAFE"/>
<stop offset="1" stop-color="#525AC1"/>
</linearGradient>
<linearGradient id="paint2_linear_1_440" x1="48.7967" y1="39.4294" x2="16.2207" y2="37.3752" gradientUnits="userSpaceOnUse">
<stop stop-color="#85EAFE"/>
<stop offset="1" stop-color="#525AC1"/>
</linearGradient>
<linearGradient id="paint3_linear_1_440" x1="52.4148" y1="23.377" x2="14.6032" y2="17.148" gradientUnits="userSpaceOnUse">
<stop stop-color="#85EAFE"/>
<stop offset="1" stop-color="#525AC1"/>
</linearGradient>
<linearGradient id="paint4_linear_1_440" x1="31.3201" y1="16.4441" x2="19.6118" y2="15.4674" gradientUnits="userSpaceOnUse">
<stop stop-color="#85EAFE"/>
<stop offset="1" stop-color="#525AC1"/>
</linearGradient>
<linearGradient id="paint5_linear_1_440" x1="41.5764" y1="16.4441" x2="29.8682" y2="15.4674" gradientUnits="userSpaceOnUse">
<stop stop-color="#85EAFE"/>
<stop offset="1" stop-color="#525AC1"/>
</linearGradient>
<linearGradient id="paint6_linear_1_440" x1="36.7012" y1="33.0379" x2="24.4071" y2="32.4135" gradientUnits="userSpaceOnUse">
<stop stop-color="#85EAFE"/>
<stop offset="1" stop-color="#525AC1"/>
</linearGradient>
</defs>
</svg>
