<svg width="38" height="38" viewBox="0 0 38 38" fill="none" xmlns="http://www.w3.org/2000/svg">
<path d="M18.9999 19C23.3722 19 26.9166 15.4556 26.9166 11.0834C26.9166 6.7111 23.3722 3.16669 18.9999 3.16669C14.6277 3.16669 11.0833 6.7111 11.0833 11.0834C11.0833 15.4556 14.6277 19 18.9999 19Z" fill="url(#paint0_linear_1_544)"/>
<path d="M18.9999 22.9583C11.0674 22.9583 4.60742 28.2783 4.60742 34.8333C4.60742 35.2766 4.95576 35.625 5.39909 35.625H32.6008C33.0441 35.625 33.3924 35.2766 33.3924 34.8333C33.3924 28.2783 26.9324 22.9583 18.9999 22.9583Z" fill="url(#paint1_linear_1_544)"/>
<defs>
<linearGradient id="paint0_linear_1_544" x1="11.0833" y1="11.0834" x2="26.9166" y2="11.0834" gradientUnits="userSpaceOnUse">
<stop stop-color="#4562C5"/>
<stop offset="1" stop-color="#18C7FE"/>
</linearGradient>
<linearGradient id="paint1_linear_1_544" x1="4.60742" y1="29.2916" x2="33.3924" y2="29.2916" gradientUnits="userSpaceOnUse">
<stop stop-color="#4562C5"/>
<stop offset="1" stop-color="#18C7FE"/>
</linearGradient>
</defs>
</svg>
