<svg width="59" height="58" viewBox="0 0 59 58" fill="none" xmlns="http://www.w3.org/2000/svg">
<rect x="1.5" y="1" width="56" height="56" rx="15" fill="url(#paint0_linear_1_485)" fill-opacity="0.1"/>
<rect x="1.5" y="1" width="56" height="56" rx="15" stroke="url(#paint1_linear_1_485)" stroke-width="2"/>
<path d="M42.4675 32.2617L40.6783 29.285C40.2825 28.6358 39.9342 27.385 39.9342 26.625V23.6642C39.9342 17.9167 35.2633 13.2458 29.5317 13.2458C23.7842 13.2617 19.1133 17.9167 19.1133 23.6642V26.6092C19.1133 27.3692 18.765 28.62 18.385 29.2692L16.5958 32.2458C15.915 33.4017 15.7567 34.7158 16.1842 35.8559C16.6117 37.0117 17.5775 37.93 18.8442 38.3417C20.5542 38.9117 22.28 39.3234 24.0375 39.6242C24.2117 39.6558 24.3858 39.6717 24.56 39.7034C24.7817 39.735 25.0192 39.7667 25.2567 39.7984C25.6683 39.8617 26.08 39.9092 26.5075 39.9409C27.505 40.0359 28.5183 40.0834 29.5317 40.0834C30.5292 40.0834 31.5267 40.0359 32.5083 39.9409C32.8725 39.9092 33.2367 39.8775 33.585 39.83C33.87 39.7984 34.155 39.7667 34.44 39.7192C34.6142 39.7034 34.7883 39.6717 34.9625 39.64C36.7358 39.355 38.4933 38.9117 40.2033 38.3417C41.4225 37.93 42.3567 37.0117 42.8 35.84C43.2433 34.6525 43.1167 33.3542 42.4675 32.2617ZM30.6875 25.8333C30.6875 26.4983 30.1492 27.0367 29.4842 27.0367C28.8192 27.0367 28.2808 26.4983 28.2808 25.8333V20.925C28.2808 20.26 28.8192 19.7217 29.4842 19.7217C30.1492 19.7217 30.6875 20.26 30.6875 20.925V25.8333Z" fill="url(#paint2_linear_1_485)"/>
<path d="M33.9807 41.6825C33.3157 43.5192 31.5582 44.8334 29.4999 44.8334C28.2491 44.8334 27.0141 44.3267 26.1432 43.4242C25.6366 42.9492 25.2566 42.3159 25.0349 41.6667C25.2407 41.6984 25.4466 41.7142 25.6682 41.7459C26.0324 41.7934 26.4124 41.8409 26.7924 41.8725C27.6949 41.9517 28.6132 41.9992 29.5316 41.9992C30.4341 41.9992 31.3366 41.9517 32.2232 41.8725C32.5557 41.8409 32.8882 41.825 33.2049 41.7775C33.4582 41.7459 33.7116 41.7142 33.9807 41.6825Z" fill="url(#paint3_linear_1_485)"/>
<defs>
<linearGradient id="paint0_linear_1_485" x1="73.6794" y1="40.004" x2="-1.05843" y2="36.7639" gradientUnits="userSpaceOnUse">
<stop stop-color="#85EAFE"/>
<stop offset="1" stop-color="#525AC1"/>
</linearGradient>
<linearGradient id="paint1_linear_1_485" x1="73.6794" y1="40.004" x2="-1.05843" y2="36.7639" gradientUnits="userSpaceOnUse">
<stop stop-color="#85EAFE"/>
<stop offset="1" stop-color="#525AC1"/>
</linearGradient>
<linearGradient id="paint2_linear_1_485" x1="50.1577" y1="31.7563" x2="15.2198" y2="30.2261" gradientUnits="userSpaceOnUse">
<stop stop-color="#85EAFE"/>
<stop offset="1" stop-color="#525AC1"/>
</linearGradient>
<linearGradient id="paint3_linear_1_485" x1="36.322" y1="43.8508" x2="24.9435" y2="42.4573" gradientUnits="userSpaceOnUse">
<stop stop-color="#85EAFE"/>
<stop offset="1" stop-color="#525AC1"/>
</linearGradient>
</defs>
</svg>
