<svg width="58" height="58" viewBox="0 0 58 58" fill="none" xmlns="http://www.w3.org/2000/svg">
<rect x="1" y="1" width="56" height="56" rx="15" fill="url(#paint0_linear_1_479)" fill-opacity="0.1"/>
<rect x="1" y="1" width="56" height="56" rx="15" stroke="url(#paint1_linear_1_479)" stroke-width="2"/>
<path d="M41.8251 24.5983C38.9592 24.5983 37.7876 22.5716 39.2126 20.0858C40.0359 18.645 39.5451 16.8083 38.1042 15.985L35.3651 14.4175C34.1143 13.6733 32.4992 14.1166 31.7551 15.3675L31.5809 15.6683C30.1559 18.1541 27.8126 18.1541 26.3717 15.6683L26.1976 15.3675C25.4851 14.1166 23.8701 13.6733 22.6192 14.4175L19.8801 15.985C18.4392 16.8083 17.9484 18.6608 18.7717 20.1016C20.2126 22.5716 19.0409 24.5983 16.1751 24.5983C14.5284 24.5983 13.1667 25.9441 13.1667 27.6066V30.3933C13.1667 32.04 14.5126 33.4016 16.1751 33.4016C19.0409 33.4016 20.2126 35.4283 18.7717 37.9141C17.9484 39.355 18.4392 41.1916 19.8801 42.015L22.6192 43.5825C23.8701 44.3266 25.4851 43.8833 26.2292 42.6325L26.4034 42.3316C27.8284 39.8458 30.1717 39.8458 31.6126 42.3316L31.7867 42.6325C32.5309 43.8833 34.1459 44.3266 35.3967 43.5825L38.1359 42.015C39.5767 41.1916 40.0676 39.3391 39.2442 37.9141C37.8034 35.4283 38.9751 33.4016 41.8409 33.4016C43.4876 33.4016 44.8492 32.0558 44.8492 30.3933V27.6066C44.8334 25.96 43.4876 24.5983 41.8251 24.5983ZM29.0001 34.1458C26.1659 34.1458 23.8542 31.8341 23.8542 29C23.8542 26.1658 26.1659 23.8541 29.0001 23.8541C31.8342 23.8541 34.1459 26.1658 34.1459 29C34.1459 31.8341 31.8342 34.1458 29.0001 34.1458Z" fill="url(#paint2_linear_1_479)"/>
<defs>
<linearGradient id="paint0_linear_1_479" x1="73.1794" y1="40.004" x2="-1.55843" y2="36.7639" gradientUnits="userSpaceOnUse">
<stop stop-color="#85EAFE"/>
<stop offset="1" stop-color="#525AC1"/>
</linearGradient>
<linearGradient id="paint1_linear_1_479" x1="73.1794" y1="40.004" x2="-1.55843" y2="36.7639" gradientUnits="userSpaceOnUse">
<stop stop-color="#85EAFE"/>
<stop offset="1" stop-color="#525AC1"/>
</linearGradient>
<linearGradient id="paint2_linear_1_479" x1="53.141" y1="34.6708" x2="12.3249" y2="32.7952" gradientUnits="userSpaceOnUse">
<stop stop-color="#85EAFE"/>
<stop offset="1" stop-color="#525AC1"/>
</linearGradient>
</defs>
</svg>
