<svg width="36" height="34" viewBox="0 0 36 34" fill="none" xmlns="http://www.w3.org/2000/svg">
<path d="M26.2392 0.710964L9.5204 4.04641C-1.72099 6.31231 -2.45351 12.1973 7.89159 17.1321L12.4595 19.3076L13.4488 24.2694C15.6969 35.5086 21.5997 36.2433 26.5345 25.8982L33.8823 10.5273C37.161 3.62316 33.7386 -0.792974 26.2392 0.710964ZM25.6175 10.3471L18.0159 16.2979C17.716 16.5314 17.3627 16.6138 17.0249 16.5718C16.6871 16.5297 16.3648 16.3632 16.1313 16.0633C15.6799 15.4836 15.7861 14.6301 16.3659 14.1787L23.9674 8.22793C24.5472 7.7765 25.4006 7.88273 25.8521 8.46251C26.3035 9.04229 26.1973 9.89571 25.6175 10.3471Z" fill="#727D91"/>
</svg>
