<svg width="59" height="58" viewBox="0 0 59 58" fill="none" xmlns="http://www.w3.org/2000/svg">
<rect x="1.5" y="1" width="56" height="56" rx="15" fill="url(#paint0_linear_1_274)" fill-opacity="0.1"/>
<rect x="1.5" y="1" width="56" height="56" rx="15" stroke="url(#paint1_linear_1_274)" stroke-width="2"/>
<path d="M36.0549 14.6866L21.7574 19.4366C12.1466 22.6508 12.1466 27.8916 21.7574 31.0899L26.0008 32.4991L27.4099 36.7424C30.6083 46.3533 35.8649 46.3533 39.0633 36.7424L43.8291 22.4608C45.9508 16.0483 42.4674 12.5491 36.0549 14.6866ZM36.5616 23.2049L30.5449 29.2533C30.3074 29.4908 30.0066 29.6016 29.7058 29.6016C29.4049 29.6016 29.1041 29.4908 28.8666 29.2533C28.4074 28.7941 28.4074 28.0341 28.8666 27.5749L34.8833 21.5266C35.3424 21.0674 36.1024 21.0674 36.5616 21.5266C37.0208 21.9858 37.0208 22.7458 36.5616 23.2049Z" fill="url(#paint2_linear_1_274)"/>
<defs>
<linearGradient id="paint0_linear_1_274" x1="73.6794" y1="40.004" x2="-1.05843" y2="36.7639" gradientUnits="userSpaceOnUse">
<stop stop-color="#85EAFE"/>
<stop offset="1" stop-color="#525AC1"/>
</linearGradient>
<linearGradient id="paint1_linear_1_274" x1="73.6794" y1="40.004" x2="-1.05843" y2="36.7639" gradientUnits="userSpaceOnUse">
<stop stop-color="#85EAFE"/>
<stop offset="1" stop-color="#525AC1"/>
</linearGradient>
<linearGradient id="paint2_linear_1_274" x1="52.2766" y1="34.6758" x2="13.7459" y2="33.0049" gradientUnits="userSpaceOnUse">
<stop stop-color="#85EAFE"/>
<stop offset="1" stop-color="#525AC1"/>
</linearGradient>
</defs>
</svg>
