<svg width="36" height="34" viewBox="0 0 36 34" fill="none" xmlns="http://www.w3.org/2000/svg">
<path d="M26.2393 0.710964L9.52052 4.04641C-1.72087 6.31231 -2.45339 12.1973 7.89171 17.1321L12.4596 19.3076L13.4489 24.2694C15.697 35.5086 21.5998 36.2433 26.5346 25.8982L33.8824 10.5273C37.1611 3.62316 33.7387 -0.792973 26.2393 0.710964ZM25.6176 10.3471L18.016 16.2979C17.7161 16.5314 17.3628 16.6138 17.025 16.5718C16.6872 16.5297 16.3649 16.3632 16.1314 16.0633C15.68 15.4836 15.7862 14.6301 16.366 14.1787L23.9676 8.22793C24.5474 7.7765 25.4008 7.88273 25.8522 8.46251C26.3036 9.04229 26.1974 9.89571 25.6176 10.3471Z" fill="url(#paint0_linear_1_1265)"/>
<defs>
<linearGradient id="paint0_linear_1_1265" x1="0.0890738" y1="13.783" x2="33.666" y2="17.9624" gradientUnits="userSpaceOnUse">
<stop stop-color="#4562C5"/>
<stop offset="1" stop-color="#18C7FE"/>
</linearGradient>
</defs>
</svg>
