<svg width="22" height="18" viewBox="0 0 22 18" fill="none" xmlns="http://www.w3.org/2000/svg">
<path d="M17 13.8116C16.84 13.8116 16.69 13.7616 16.55 13.6616C16.22 13.4116 16.15 12.9416 16.4 12.6116C17.97 10.5216 17.97 7.60155 16.4 5.51155C16.15 5.18155 16.22 4.71155 16.55 4.46155C16.88 4.21155 17.35 4.28155 17.6 4.61155C19.56 7.23155 19.56 10.8916 17.6 13.5116C17.45 13.7116 17.23 13.8116 17 13.8116Z" fill="url(#paint0_linear_1_242)"/>
<path d="M18.8301 16.3116C18.6701 16.3116 18.5201 16.2616 18.3801 16.1616C18.0501 15.9116 17.9801 15.4416 18.2301 15.1116C20.9001 11.5516 20.9001 6.57155 18.2301 3.01155C17.9801 2.68155 18.0501 2.21155 18.3801 1.96155C18.7101 1.71155 19.1801 1.78155 19.4301 2.11155C22.5001 6.20155 22.5001 11.9216 19.4301 16.0116C19.2901 16.2116 19.0601 16.3116 18.8301 16.3116Z" fill="url(#paint1_linear_1_242)"/>
<path d="M13.02 0.841491C11.9 0.221491 10.47 0.381491 9.01 1.29149L6.09 3.12149C5.89 3.24149 5.66 3.31149 5.43 3.31149H4.5H4C1.58 3.31149 0.25 4.64149 0.25 7.06149V11.0615C0.25 13.4815 1.58 14.8115 4 14.8115H4.5H5.43C5.66 14.8115 5.89 14.8815 6.09 15.0015L9.01 16.8315C9.89 17.3815 10.75 17.6515 11.55 17.6515C12.07 17.6515 12.57 17.5315 13.02 17.2815C14.13 16.6615 14.75 15.3715 14.75 13.6515V4.47149C14.75 2.75149 14.13 1.46149 13.02 0.841491Z" fill="url(#paint2_linear_1_242)"/>
<defs>
<linearGradient id="paint0_linear_1_242" x1="19.8081" y1="10.8638" x2="16.1677" y2="10.817" gradientUnits="userSpaceOnUse">
<stop stop-color="#85EAFE"/>
<stop offset="1" stop-color="#525AC1"/>
</linearGradient>
<linearGradient id="paint1_linear_1_242" x1="22.6886" y1="11.8125" x2="17.9734" y2="11.761" gradientUnits="userSpaceOnUse">
<stop stop-color="#85EAFE"/>
<stop offset="1" stop-color="#525AC1"/>
</linearGradient>
<linearGradient id="paint2_linear_1_242" x1="18.5449" y1="12.3205" x2="-0.1497" y2="11.6365" gradientUnits="userSpaceOnUse">
<stop stop-color="#85EAFE"/>
<stop offset="1" stop-color="#525AC1"/>
</linearGradient>
</defs>
</svg>
