<svg width="99" height="94" viewBox="0 0 99 94" fill="none" xmlns="http://www.w3.org/2000/svg">
<rect x="1.25" y="1.25" width="96.5" height="91.5" rx="8.75" fill="url(#paint0_linear_1_588)"/>
<rect x="1.25" y="1.25" width="96.5" height="91.5" rx="8.75" stroke="#BBE1F7" stroke-width="2.5"/>
<path d="M79.7483 40.35L72.1483 25.0867C70.66 22.0783 66.7017 19.64 63.345 19.64H34.655C31.2983 19.64 27.34 22.0783 25.8517 25.0867L18.2516 40.35C16.415 44.0233 17.4283 49.2484 20.4366 52.0033L42.3817 71.9217C46.0233 75.215 51.945 75.215 55.5867 71.9217L77.5316 52.0033C80.5716 49.2484 81.585 43.9917 79.7483 40.35ZM61.6667 38.2917H51.375V54.9167C51.375 56.215 50.2983 57.2917 49 57.2917C47.7017 57.2917 46.625 56.215 46.625 54.9167V38.2917H36.3333C35.035 38.2917 33.9583 37.215 33.9583 35.9167C33.9583 34.6183 35.035 33.5417 36.3333 33.5417H61.6667C62.965 33.5417 64.0417 34.6183 64.0417 35.9167C64.0417 37.215 62.965 38.2917 61.6667 38.2917Z" fill="white"/>
<defs>
<linearGradient id="paint0_linear_1_588" x1="124.91" y1="64.834" x2="-2.63395" y2="59.0106" gradientUnits="userSpaceOnUse">
<stop stop-color="#85EAFE"/>
<stop offset="1" stop-color="#525AC1"/>
</linearGradient>
</defs>
</svg>
