<svg width="58" height="58" viewBox="0 0 58 58" fill="none" xmlns="http://www.w3.org/2000/svg">
<rect x="1" y="1" width="56" height="56" rx="15" fill="url(#paint0_linear_1_279)" fill-opacity="0.1"/>
<rect x="1" y="1" width="56" height="56" rx="15" stroke="url(#paint1_linear_1_279)" stroke-width="2"/>
<path d="M28.9999 29C33.3722 29 36.9166 25.4555 36.9166 21.0833C36.9166 16.711 33.3722 13.1666 28.9999 13.1666C24.6277 13.1666 21.0833 16.711 21.0833 21.0833C21.0833 25.4555 24.6277 29 28.9999 29Z" fill="url(#paint2_linear_1_279)"/>
<path d="M28.9999 32.9584C21.0674 32.9584 14.6074 38.2784 14.6074 44.8334C14.6074 45.2767 14.9558 45.625 15.3991 45.625H42.6008C43.0441 45.625 43.3924 45.2767 43.3924 44.8334C43.3924 38.2784 36.9324 32.9584 28.9999 32.9584Z" fill="url(#paint3_linear_1_279)"/>
<defs>
<linearGradient id="paint0_linear_1_279" x1="73.1794" y1="40.004" x2="-1.55843" y2="36.7639" gradientUnits="userSpaceOnUse">
<stop stop-color="#85EAFE"/>
<stop offset="1" stop-color="#525AC1"/>
</linearGradient>
<linearGradient id="paint1_linear_1_279" x1="73.1794" y1="40.004" x2="-1.55843" y2="36.7639" gradientUnits="userSpaceOnUse">
<stop stop-color="#85EAFE"/>
<stop offset="1" stop-color="#525AC1"/>
</linearGradient>
<linearGradient id="paint2_linear_1_279" x1="41.0604" y1="24.0873" x2="20.6578" y2="23.2028" gradientUnits="userSpaceOnUse">
<stop stop-color="#85EAFE"/>
<stop offset="1" stop-color="#525AC1"/>
</linearGradient>
<linearGradient id="paint3_linear_1_279" x1="50.9259" y1="41.6949" x2="14.1215" y2="38.069" gradientUnits="userSpaceOnUse">
<stop stop-color="#85EAFE"/>
<stop offset="1" stop-color="#525AC1"/>
</linearGradient>
</defs>
</svg>
