<svg width="37" height="37" viewBox="0 0 37 37" fill="none" xmlns="http://www.w3.org/2000/svg">
<path d="M18.2665 0H18.1835C8.14844 0 0.0134277 8.13501 0.0134277 18.1701V18.253C0.0134277 28.2881 8.14844 36.4231 18.1835 36.4231H18.2665C28.3015 36.4231 36.4365 28.2881 36.4365 18.253V18.1701C36.4365 8.13501 28.3015 0 18.2665 0Z" fill="url(#paint0_linear_1_1330)"/>
<path d="M6.91195 17.5894C6.96299 17.5639 7.01406 17.5396 7.06382 17.5166C7.92901 17.1159 8.80567 16.7408 9.68106 16.3656C9.72828 16.3656 9.80737 16.3107 9.85204 16.2929C9.91967 16.2635 9.98731 16.2355 10.0549 16.2061C10.1851 16.15 10.3153 16.0951 10.4442 16.0389C10.7045 15.9279 10.9635 15.8169 11.2238 15.7059L12.7819 15.0385C13.8206 14.5944 14.8607 14.1491 15.8994 13.705C16.9381 13.2609 17.9781 12.8156 19.0168 12.3715C20.0556 11.9274 21.0956 11.4821 22.1343 11.038C23.173 10.5939 24.213 10.1486 25.2518 9.70448C25.4827 9.60495 25.7328 9.45692 25.9804 9.41353C26.1884 9.37653 26.3913 9.30508 26.6006 9.26552C26.9974 9.19023 27.4351 9.1596 27.8154 9.32421C27.9468 9.38164 28.0681 9.46203 28.1689 9.56284C28.6512 10.0401 28.5836 10.8236 28.4815 11.4948C27.7707 16.1729 27.0599 20.8523 26.3479 25.5304C26.2509 26.1723 26.1182 26.8767 25.6116 27.2825C25.1828 27.6257 24.5729 27.664 24.0433 27.5185C23.5137 27.3718 23.0467 27.0643 22.5886 26.7618C20.6885 25.5036 18.7872 24.2454 16.8871 22.9872C16.4353 22.6886 15.9326 22.2981 15.9377 21.7558C15.9402 21.4291 16.1355 21.1381 16.3345 20.8791C17.9858 18.7251 20.3682 17.2448 22.1407 15.1903C22.3908 14.9007 22.5873 14.3775 22.244 14.2103C22.0399 14.1108 21.8051 14.246 21.6187 14.3749C19.2759 16.0019 16.9343 17.6302 14.5914 19.2572C13.827 19.788 13.0257 20.3342 12.1043 20.4644C11.28 20.5818 10.4505 20.3521 9.65299 20.1173C8.98433 19.9208 8.31692 19.7191 7.65208 19.5111C7.2986 19.4014 6.93364 19.2827 6.66056 19.0339C6.38748 18.7851 6.23055 18.3665 6.39516 18.0347C6.49852 17.8267 6.69887 17.6953 6.90942 17.5881L6.91195 17.5894Z" fill="#FEFFFC"/>
<defs>
<linearGradient id="paint0_linear_1_1330" x1="45.969" y1="25.1219" x2="-0.965242" y2="23.0872" gradientUnits="userSpaceOnUse">
<stop stop-color="#85EAFE"/>
<stop offset="1" stop-color="#525AC1"/>
</linearGradient>
</defs>
</svg>
