<svg width="108" height="23" viewBox="0 0 108 23" fill="none" xmlns="http://www.w3.org/2000/svg">
<path d="M14.2421 11.4289C17.7391 11.4289 20.662 10.8417 21.3773 10.0577C20.7707 9.39274 18.5766 8.86948 15.7912 8.7258V10.3822C15.2919 10.4079 14.7737 10.4215 14.2421 10.4215C13.7107 10.4215 13.1924 10.4079 12.6931 10.3822V8.7258C9.90768 8.86948 7.71364 9.39274 7.10706 10.0577C7.82238 10.8417 10.7453 11.4289 14.2421 11.4289Z" fill="url(#paint0_linear_1_196)"/>
<path fill-rule="evenodd" clip-rule="evenodd" d="M6.19292 0H22.5715C22.9624 0 23.3234 0.204738 23.5183 0.536893L28.2901 8.66907C28.5375 9.09077 28.464 9.62308 28.111 9.96508L14.9766 22.6908C14.5512 23.1031 13.8667 23.1031 13.4412 22.6908L0.324577 9.98222C-0.0365888 9.63231 -0.104219 9.08451 0.161367 8.66019L5.26201 0.510804C5.46065 0.193423 5.81317 0 6.19292 0ZM20.4568 3.63072V5.91248H15.7912V7.4945C19.068 7.66356 21.5264 8.35788 21.5448 9.19015L21.5446 10.9252C21.5264 11.7575 19.068 12.4518 15.7912 12.6209V16.5033H12.6931V12.6209C9.41638 12.4518 6.95786 11.7575 6.93962 10.9252L6.93973 9.19015C6.95796 8.35788 9.41638 7.66356 12.6931 7.4945V5.91248H8.02753V3.63072H20.4568Z" fill="url(#paint1_linear_1_196)"/>
<path d="M34.6839 4.41299L38.47 3.99541V7.59695H41.7565V10.7287H38.4437V15.583C38.4437 16.7313 38.9345 17.3055 39.9161 17.3055C40.547 17.3055 41.0729 17.2011 41.4936 16.9923L42.3613 20.124C41.5024 20.4546 40.5909 20.6461 39.6269 20.6982C38.1019 20.7678 36.8925 20.4111 35.9985 19.6282C35.1221 18.8278 34.6839 17.4794 34.6839 15.583V10.7287H32.3701V7.59695H34.6839V4.41299Z" fill="url(#paint2_linear_1_196)"/>
<path fill-rule="evenodd" clip-rule="evenodd" d="M46.3825 15.1915H55.9267C56.3299 12.6339 55.9179 10.6591 54.6909 9.26717C53.4815 7.87529 51.7286 7.17934 49.4325 7.17934C47.329 7.17934 45.6551 7.797 44.4106 9.0323C43.166 10.2503 42.5438 11.8509 42.5438 13.8343C42.5438 15.9396 43.1748 17.6099 44.4369 18.8452C45.7164 20.0805 47.5131 20.6981 49.8268 20.6981C52.2457 20.6981 54.1038 20.0631 55.4008 18.793L53.2712 16.4442C52.4823 17.1227 51.3606 17.462 49.9057 17.462C48.8891 17.462 48.074 17.2532 47.4605 16.8356C46.847 16.4007 46.4877 15.8526 46.3825 15.1915ZM52.5349 12.4512H46.3825C46.5753 11.8074 46.9435 11.3029 47.4868 10.9375C48.0302 10.5721 48.6787 10.3894 49.4325 10.3894C50.2738 10.3894 50.9925 10.5721 51.5884 10.9375C52.1844 11.2855 52.4999 11.79 52.5349 12.4512Z" fill="url(#paint3_linear_1_196)"/>
<path d="M59.0831 4.41299L62.8693 3.99541V7.59695H66.1559V10.7287H62.843V15.583C62.843 16.7313 63.3338 17.3055 64.3153 17.3055C64.9464 17.3055 65.4722 17.2011 65.8929 16.9923L66.7606 20.124C65.9017 20.4546 64.9902 20.6461 64.0262 20.6982C62.5012 20.7678 61.2917 20.4111 60.3978 19.6282C59.5214 18.8278 59.0831 17.4794 59.0831 15.583V10.7287H56.7694V7.59695H59.0831V4.41299Z" fill="url(#paint4_linear_1_196)"/>
<path d="M71.9927 2.1424H68.1803V20.4111H71.9664V13.8865C71.9664 12.8948 72.238 12.1206 72.7814 11.5638C73.3423 11.0071 74.0348 10.7287 74.8586 10.7287C75.6123 10.7287 76.2083 10.9723 76.6464 11.4594C77.1022 11.9466 77.3301 12.6339 77.3301 13.5212V20.4111H81.1162V13.4951C81.1162 9.3716 79.3896 7.30984 75.9366 7.30984C74.2363 7.30984 72.9217 7.91009 71.9927 9.11062V2.1424Z" fill="url(#paint5_linear_1_196)"/>
<path fill-rule="evenodd" clip-rule="evenodd" d="M95.9649 15.1915H86.421C86.5262 15.8526 86.8856 16.4007 87.4986 16.8356C88.1123 17.2532 88.9276 17.462 89.9446 17.462C91.399 17.462 92.5212 17.1227 93.3094 16.4442L95.4397 18.793C94.1422 20.0631 92.2845 20.6981 89.8657 20.6981C87.5512 20.6981 85.755 20.0805 84.4753 18.8452C83.2133 17.6099 82.5823 15.9396 82.5823 13.8343C82.5823 11.8509 83.2046 10.2503 84.4491 9.0323C85.6936 7.797 87.3671 7.17934 89.4712 7.17934C91.7673 7.17934 93.5198 7.87529 94.7296 9.26717C95.9561 10.6591 96.3682 12.6339 95.9649 15.1915ZM86.421 12.4512H92.5738C92.5388 11.79 92.2231 11.2855 91.627 10.9375C91.0308 10.5721 90.3119 10.3894 89.4712 10.3894C88.7172 10.3894 88.0685 10.5721 87.5249 10.9375C86.9819 11.3029 86.6139 11.8074 86.421 12.4512Z" fill="url(#paint6_linear_1_196)"/>
<path d="M101.058 7.54471H97.5349V20.4111H101.321V13.7039C101.321 12.7817 101.611 12.0597 102.189 11.5377C102.768 10.9984 103.486 10.7287 104.345 10.7287C105.117 10.7287 105.808 10.9462 106.422 11.3811L108 8.40592C107.106 7.623 106.045 7.23153 104.818 7.23153C103.328 7.23153 102.172 7.80569 101.348 8.95398L101.058 7.54471Z" fill="url(#paint7_linear_1_196)"/>
<defs>
<linearGradient id="paint0_linear_1_196" x1="136.265" y1="15.8636" x2="2.38447" y2="-11.39" gradientUnits="userSpaceOnUse">
<stop stop-color="#85EAFE"/>
<stop offset="1" stop-color="#525AC1"/>
</linearGradient>
<linearGradient id="paint1_linear_1_196" x1="136.265" y1="15.8636" x2="2.38447" y2="-11.39" gradientUnits="userSpaceOnUse">
<stop stop-color="#85EAFE"/>
<stop offset="1" stop-color="#525AC1"/>
</linearGradient>
<linearGradient id="paint2_linear_1_196" x1="136.265" y1="15.8636" x2="2.38447" y2="-11.39" gradientUnits="userSpaceOnUse">
<stop stop-color="#85EAFE"/>
<stop offset="1" stop-color="#525AC1"/>
</linearGradient>
<linearGradient id="paint3_linear_1_196" x1="136.265" y1="15.8636" x2="2.38447" y2="-11.39" gradientUnits="userSpaceOnUse">
<stop stop-color="#85EAFE"/>
<stop offset="1" stop-color="#525AC1"/>
</linearGradient>
<linearGradient id="paint4_linear_1_196" x1="136.265" y1="15.8636" x2="2.38447" y2="-11.39" gradientUnits="userSpaceOnUse">
<stop stop-color="#85EAFE"/>
<stop offset="1" stop-color="#525AC1"/>
</linearGradient>
<linearGradient id="paint5_linear_1_196" x1="136.265" y1="15.8636" x2="2.38447" y2="-11.39" gradientUnits="userSpaceOnUse">
<stop stop-color="#85EAFE"/>
<stop offset="1" stop-color="#525AC1"/>
</linearGradient>
<linearGradient id="paint6_linear_1_196" x1="136.265" y1="15.8636" x2="2.38447" y2="-11.39" gradientUnits="userSpaceOnUse">
<stop stop-color="#85EAFE"/>
<stop offset="1" stop-color="#525AC1"/>
</linearGradient>
<linearGradient id="paint7_linear_1_196" x1="136.265" y1="15.8636" x2="2.38447" y2="-11.39" gradientUnits="userSpaceOnUse">
<stop stop-color="#85EAFE"/>
<stop offset="1" stop-color="#525AC1"/>
</linearGradient>
</defs>
</svg>
