<svg width="90" height="114" viewBox="0 0 90 114" fill="none" xmlns="http://www.w3.org/2000/svg">
<path d="M27.3069 10.1985L27.4672 12.4484L49.425 71.2759L50.2436 71.6487L71.5259 45.315L27.3069 10.1985Z" fill="white"/>
<path d="M27.3071 10.1984L16.9119 65.7L50.2439 71.6488L39.5862 43.0957L27.3071 10.1984Z" fill="white"/>
<path d="M53.5594 80.5332L53.3762 81.0684L61.1981 102.024L61.9006 102.88L74.8611 54.2015L53.5594 80.5332Z" fill="white"/>
<path d="M61.9013 102.88L53.56 80.533L20.2312 74.5925L61.9013 102.88Z" fill="white"/>
<path d="M50.2434 71.6487L71.5254 45.3154L39.5859 43.0961L50.2434 71.6487Z" fill="white"/>
<path d="M16.912 65.7001L50.2434 71.6488L39.5858 43.0959L16.912 65.7001Z" fill="white"/>
</svg>
