<svg width="40" height="40" viewBox="0 0 40 40" fill="none" xmlns="http://www.w3.org/2000/svg">
<path d="M24.875 26.1074C24.875 31.9412 20.1462 36.6699 14.3125 36.6699C8.47875 36.6699 3.75 31.9412 3.75 26.1074C3.75 20.2737 8.47875 15.5449 14.3125 15.5449C14.5887 15.5449 14.8813 15.5612 15.1575 15.5774C20.3088 15.9837 24.4362 20.1112 24.8425 25.2624C24.8587 25.5387 24.875 25.8312 24.875 26.1074Z" fill="#727D91"/>
<path d="M36.2499 14.7324C36.2499 20.0299 32.3499 24.4012 27.2799 25.1649V25.0674C26.7761 18.7624 21.6574 13.6437 15.3036 13.1399H15.2549C16.0186 8.06992 20.3899 4.16992 25.6874 4.16992C31.5211 4.16992 36.2499 8.89867 36.2499 14.7324Z" fill="#727D91"/>
<path d="M9.58375 4.16992H5.375C4.48125 4.16992 3.75 4.90117 3.75 5.79492V10.0037C3.75 11.4499 5.505 12.1812 6.52875 11.1574L10.7375 6.94867C11.745 5.92492 11.03 4.16992 9.58375 4.16992Z" fill="#727D91"/>
<path d="M30.4163 36.67H34.625C35.5188 36.67 36.25 35.9387 36.25 35.045V30.8362C36.25 29.39 34.495 28.6587 33.4713 29.6825L29.2625 33.8912C28.255 34.915 28.97 36.67 30.4163 36.67Z" fill="#727D91"/>
</svg>
