<svg width="58" height="58" viewBox="0 0 58 58" fill="none" xmlns="http://www.w3.org/2000/svg">
<rect x="1" y="1" width="56" height="56" rx="15" fill="url(#paint0_linear_1_427)" fill-opacity="0.1"/>
<rect x="1" y="1" width="56" height="56" rx="15" stroke="url(#paint1_linear_1_427)" stroke-width="2"/>
<path d="M42.1467 18.2333C39.0489 14.4178 34.3267 12 29 12C24.9956 12 21.2933 13.3978 18.3844 15.74C14.4556 18.8378 12 23.6356 12 29C12 34.3267 14.4178 39.0489 18.2333 42.1467C21.1422 44.5644 24.92 46 29 46C33.3067 46 37.1978 44.3756 40.22 41.7689C43.7333 38.6333 46 34.1 46 29C46 24.92 44.5644 21.1422 42.1467 18.2333ZM32.8911 30.0578C32.8911 31.04 32.3622 31.9844 31.5311 32.4756L26.2044 35.6489C25.7511 35.9133 25.26 36.0644 24.7311 36.0644C23.7867 36.0644 22.8422 35.5733 22.3133 34.7044C21.52 33.3444 21.9356 31.6067 23.2956 30.8133L27.2244 28.4711V23.7111C27.2244 22.1622 28.5089 20.8778 30.0578 20.8778C31.6067 20.8778 32.8911 22.1622 32.8911 23.7111V30.0578Z" fill="url(#paint2_linear_1_427)"/>
<defs>
<linearGradient id="paint0_linear_1_427" x1="73.1794" y1="40.004" x2="-1.55843" y2="36.7639" gradientUnits="userSpaceOnUse">
<stop stop-color="#85EAFE"/>
<stop offset="1" stop-color="#525AC1"/>
</linearGradient>
<linearGradient id="paint1_linear_1_427" x1="73.1794" y1="40.004" x2="-1.55843" y2="36.7639" gradientUnits="userSpaceOnUse">
<stop stop-color="#85EAFE"/>
<stop offset="1" stop-color="#525AC1"/>
</linearGradient>
<linearGradient id="paint2_linear_1_427" x1="54.8983" y1="35.4506" x2="11.0864" y2="33.5513" gradientUnits="userSpaceOnUse">
<stop stop-color="#85EAFE"/>
<stop offset="1" stop-color="#525AC1"/>
</linearGradient>
</defs>
</svg>
