<svg width="93" height="27" viewBox="0 0 93 27" fill="none" xmlns="http://www.w3.org/2000/svg">
<path d="M91.4288 6.52297V17.4917L80.3397 5.55723V20.5177H81.9038V9.54556L93 21.4834V6.52297H91.4288Z" fill="url(#paint0_linear_1_193)"/>
<path d="M31.7418 6.52297H44.4057V8.02748H31.7418V6.52297Z" fill="url(#paint1_linear_1_193)"/>
<path d="M35.892 10.6841H37.4456V20.5075H35.892V10.6841Z" fill="url(#paint2_linear_1_193)"/>
<path d="M40.252 10.6841H38.6984V20.5075H40.252V10.6841Z" fill="url(#paint3_linear_1_193)"/>
<path d="M84.7417 20.5177H83.1741V12.9138L84.7417 14.6013V20.5177Z" fill="url(#paint4_linear_1_193)"/>
<path d="M70.1883 12.5072C69.6144 12.5072 69.149 12.9578 69.149 13.5136C69.149 14.0693 69.6144 14.52 70.1883 14.52C70.7622 14.52 71.2276 14.0693 71.2276 13.5136C71.2276 12.9578 70.7622 12.5072 70.1883 12.5072Z" fill="url(#paint5_linear_1_193)"/>
<path fill-rule="evenodd" clip-rule="evenodd" d="M62.9623 13.5136C62.9623 9.65399 66.2026 6.51619 70.1883 6.51619C74.174 6.51619 77.4143 9.65738 77.4143 13.5136C77.4143 17.3731 74.174 20.5109 70.1883 20.5109C66.2026 20.5109 62.9623 17.3731 62.9623 13.5136ZM64.5195 13.5136C64.5195 16.5429 67.0635 19.003 70.1883 19.003C73.3131 19.003 75.8571 16.5395 75.8571 13.5136C75.8571 10.4842 73.3131 8.0241 70.1883 8.0241C67.0599 8.0241 64.5195 10.4842 64.5195 13.5136Z" fill="url(#paint6_linear_1_193)"/>
<path d="M55.8448 6.52635C58.2698 6.52635 60.2434 8.45105 60.2434 10.8163C60.2434 12.6529 58.9976 14.32 57.2165 14.8927L60.2993 20.5177H58.5042L55.5508 15.1062H51.9361V20.5211H50.3929V13.5881L55.8763 13.5915C57.4195 13.5745 58.6687 12.3377 58.6687 10.8163C58.6687 9.28802 57.402 8.04443 55.8448 8.04443H49.1227V20.5211H47.5795V6.52635H55.8448Z" fill="url(#paint7_linear_1_193)"/>
<path d="M21.0586 3.75113L0 0L11.0822 27L26.5209 8.78313L21.0586 3.75113ZM20.7227 5.40474L23.9455 8.36973L15.1343 9.91491L20.7227 5.40474ZM13.2202 9.60655L3.93318 2.14834L19.1095 4.85241L13.2202 9.60655ZM12.5554 10.9281L11.0437 23.0489L2.8799 3.15136L12.5554 10.9281ZM13.9551 11.5685L23.711 9.8573L12.5239 23.0591L13.9551 11.5685Z" fill="url(#paint8_linear_1_193)"/>
<defs>
<linearGradient id="paint0_linear_1_193" x1="117.339" y1="18.6225" x2="-0.105342" y2="1.08522" gradientUnits="userSpaceOnUse">
<stop stop-color="#85EAFE"/>
<stop offset="1" stop-color="#525AC1"/>
</linearGradient>
<linearGradient id="paint1_linear_1_193" x1="117.339" y1="18.6225" x2="-0.105342" y2="1.08522" gradientUnits="userSpaceOnUse">
<stop stop-color="#85EAFE"/>
<stop offset="1" stop-color="#525AC1"/>
</linearGradient>
<linearGradient id="paint2_linear_1_193" x1="117.339" y1="18.6225" x2="-0.105342" y2="1.08522" gradientUnits="userSpaceOnUse">
<stop stop-color="#85EAFE"/>
<stop offset="1" stop-color="#525AC1"/>
</linearGradient>
<linearGradient id="paint3_linear_1_193" x1="117.339" y1="18.6225" x2="-0.105342" y2="1.08522" gradientUnits="userSpaceOnUse">
<stop stop-color="#85EAFE"/>
<stop offset="1" stop-color="#525AC1"/>
</linearGradient>
<linearGradient id="paint4_linear_1_193" x1="117.339" y1="18.6225" x2="-0.105342" y2="1.08522" gradientUnits="userSpaceOnUse">
<stop stop-color="#85EAFE"/>
<stop offset="1" stop-color="#525AC1"/>
</linearGradient>
<linearGradient id="paint5_linear_1_193" x1="117.339" y1="18.6225" x2="-0.105342" y2="1.08522" gradientUnits="userSpaceOnUse">
<stop stop-color="#85EAFE"/>
<stop offset="1" stop-color="#525AC1"/>
</linearGradient>
<linearGradient id="paint6_linear_1_193" x1="117.339" y1="18.6225" x2="-0.105342" y2="1.08522" gradientUnits="userSpaceOnUse">
<stop stop-color="#85EAFE"/>
<stop offset="1" stop-color="#525AC1"/>
</linearGradient>
<linearGradient id="paint7_linear_1_193" x1="117.339" y1="18.6225" x2="-0.105342" y2="1.08522" gradientUnits="userSpaceOnUse">
<stop stop-color="#85EAFE"/>
<stop offset="1" stop-color="#525AC1"/>
</linearGradient>
<linearGradient id="paint8_linear_1_193" x1="117.339" y1="18.6225" x2="-0.105342" y2="1.08522" gradientUnits="userSpaceOnUse">
<stop stop-color="#85EAFE"/>
<stop offset="1" stop-color="#525AC1"/>
</linearGradient>
</defs>
</svg>
