<svg width="38" height="37" viewBox="0 0 38 37" fill="none" xmlns="http://www.w3.org/2000/svg">
<path d="M19.1004 0H19.0175C8.98244 0 0.847412 8.13501 0.847412 18.1701V18.253C0.847412 28.2881 8.98244 36.4231 19.0175 36.4231H19.1004C29.1355 36.4231 37.2705 28.2881 37.2705 18.253V18.1701C37.2705 8.13501 29.1355 0 19.1004 0Z" fill="url(#paint0_linear_1_1319)"/>
<path d="M29.6944 11.6187C29.1954 12.1228 28.5038 12.4354 27.7369 12.4354C27.6386 12.4354 27.5429 12.4303 27.4472 12.4201C28.2473 11.9403 28.8649 11.1887 29.1725 10.2929C29.1725 10.2929 29.1737 10.2929 29.1737 10.2916C29.2171 10.1716 29.2528 10.0504 29.2809 9.92535C28.648 10.6017 27.7828 11.0598 26.8117 11.1695C26.6624 11.1874 26.5106 11.1963 26.3587 11.1963C26.3102 11.1963 26.263 11.1951 26.2171 11.1925C25.8891 10.848 25.4974 10.5621 25.0635 10.3528C24.5799 10.1168 24.0388 9.97768 23.4684 9.95981C23.4212 9.95726 23.3752 9.95598 23.3267 9.95598C22.8431 9.95598 22.3786 10.0415 21.9499 10.1997C21.8401 10.2393 21.7329 10.2839 21.6283 10.335C20.2693 10.9717 19.3288 12.3537 19.3288 13.9539C19.3288 14.2819 19.3683 14.6022 19.4436 14.9072C19.0276 14.8906 18.6155 14.851 18.2109 14.7898C18.0808 14.7693 17.9519 14.7464 17.823 14.7221C16.7919 14.5307 15.8081 14.2015 14.8944 13.7523C14.0765 13.3529 13.3146 12.8591 12.6205 12.2848C12.0373 11.8037 11.5039 11.2678 11.0266 10.6808C11.0062 10.6566 10.9858 10.6298 10.9654 10.6055C10.9373 10.6476 10.9118 10.691 10.8888 10.7357C10.5557 11.3188 10.3669 11.9926 10.3669 12.7123C10.3669 12.734 10.3669 12.7582 10.3682 12.7799C10.3758 13.3184 10.4907 13.8314 10.6948 14.2985C10.7816 14.5052 10.8875 14.7004 11.0088 14.8867C11.3661 15.4367 11.8535 15.8948 12.4303 16.2113C12.4571 16.2279 12.4826 16.2419 12.5107 16.2547C12.4699 16.2624 12.4265 16.27 12.3844 16.2738C12.2657 16.2892 12.1445 16.2968 12.022 16.2968C11.4082 16.2968 10.8378 16.1054 10.3707 15.7787C10.3682 15.8132 10.3682 15.8476 10.3682 15.8834C10.3682 17.0255 10.8467 18.0553 11.6136 18.7813C12.2108 19.3505 12.9829 19.7346 13.8404 19.8456C13.5316 19.9592 13.1985 20.0191 12.8501 20.0191C12.4737 20.0191 12.1138 19.9477 11.7846 19.8162C12.2759 21.4126 13.7396 22.5828 15.4852 22.6364C14.4197 23.744 12.9216 24.4318 11.2653 24.4318C10.2355 24.4318 9.26691 24.1651 8.42725 23.6993C10.4447 25.445 13.0747 26.4991 15.9523 26.4991C22.311 26.4991 27.4651 21.345 27.4651 14.9863C27.4651 14.6366 27.4498 14.2895 27.4178 13.9476C28.4693 13.5328 29.3039 12.683 29.6982 11.6187H29.6944Z" fill="white"/>
<defs>
<linearGradient id="paint0_linear_1_1319" x1="46.8029" y1="25.1219" x2="-0.131258" y2="23.0872" gradientUnits="userSpaceOnUse">
<stop stop-color="#85EAFE"/>
<stop offset="1" stop-color="#525AC1"/>
</linearGradient>
</defs>
</svg>
