<svg width="37" height="37" viewBox="0 0 37 37" fill="none" xmlns="http://www.w3.org/2000/svg">
<path d="M18.5235 0H18.4406C8.40553 0 0.270508 8.13501 0.270508 18.1701V18.253C0.270508 28.2881 8.40553 36.4231 18.4406 36.4231H18.5235C28.5586 36.4231 36.6936 28.2881 36.6936 18.253V18.1701C36.6936 8.13501 28.5586 0 18.5235 0Z" fill="url(#paint0_linear_1_1322)"/>
<path d="M22.0316 23.5385C17.3701 23.5385 13.5776 19.7447 13.5763 15.0832C13.5776 13.9016 14.5397 12.9407 15.7188 12.9407C15.8401 12.9407 15.96 12.9509 16.0748 12.9713C16.3275 13.0134 16.5674 13.0989 16.7882 13.2278C16.8201 13.2469 16.8418 13.2776 16.8469 13.3133L17.3394 16.418C17.3458 16.4537 17.3343 16.4907 17.3101 16.5175C17.0383 16.8187 16.6912 17.0356 16.3045 17.1441L16.1182 17.1964L16.1884 17.3763C16.8239 18.9944 18.1179 20.2871 19.7372 20.9251L19.9171 20.9966L19.9694 20.8103C20.0779 20.4236 20.2948 20.0765 20.596 19.8047C20.6177 19.7843 20.647 19.7741 20.6764 19.7741C20.6828 19.7741 20.6892 19.7741 20.6968 19.7754L23.8015 20.2679C23.8385 20.2743 23.8691 20.2947 23.8883 20.3266C24.0159 20.5474 24.1014 20.7886 24.1448 21.0412C24.1652 21.1535 24.1741 21.2722 24.1741 21.396C24.1741 22.5763 23.2132 23.5372 22.0316 23.5385Z" fill="#FDFDFD"/>
<path d="M30.2979 17.1888C30.0465 14.3482 28.7449 11.7131 26.633 9.76963C24.5084 7.81468 21.752 6.73767 18.8694 6.73767C12.5426 6.73767 7.39488 11.8854 7.39488 18.2122C7.39488 20.3356 7.98058 22.4041 9.08949 24.2059L6.61646 29.6803L14.5345 28.8368C15.9114 29.4008 17.3687 29.6867 18.8681 29.6867C19.2624 29.6867 19.6669 29.6662 20.0727 29.6241C20.43 29.5858 20.7911 29.5297 21.1459 29.4582C26.4442 28.3876 30.312 23.6853 30.3426 18.2734V18.2122C30.3426 17.8676 30.3273 17.5231 30.2966 17.19L30.2979 17.1888ZM14.8395 26.4339L10.4587 26.901L11.7667 24.003L11.5051 23.6521C11.486 23.6266 11.4668 23.601 11.4451 23.5717C10.3094 22.0034 9.70967 20.1505 9.70967 18.2134C9.70967 13.1627 13.8186 9.05376 18.8694 9.05376C23.6011 9.05376 27.6118 12.7454 27.9984 17.458C28.0188 17.7107 28.0303 17.9646 28.0303 18.2147C28.0303 18.2862 28.0291 18.3564 28.0278 18.4317C27.9308 22.6567 24.9792 26.2451 20.8498 27.1588C20.5346 27.2289 20.2118 27.2825 19.8902 27.317C19.5559 27.3553 19.2126 27.3744 18.8719 27.3744C17.6584 27.3744 16.4793 27.1396 15.3653 26.6751C15.2415 26.6253 15.1202 26.5718 15.0067 26.5169L14.8408 26.4365L14.8395 26.4339Z" fill="#FDFDFD"/>
<defs>
<linearGradient id="paint0_linear_1_1322" x1="46.2261" y1="25.1219" x2="-0.708162" y2="23.0872" gradientUnits="userSpaceOnUse">
<stop stop-color="#85EAFE"/>
<stop offset="1" stop-color="#525AC1"/>
</linearGradient>
</defs>
</svg>
