<svg width="80" height="77" viewBox="0 0 80 77" fill="none" xmlns="http://www.w3.org/2000/svg">
<path d="M59.3054 76.0176H17.2788C8.16324 76.0176 0.768311 68.8599 0.768311 60.0367V36.1895C0.768311 27.3664 8.16324 20.2086 17.2788 20.2086H59.3054C68.4209 20.2086 75.8158 27.3664 75.8158 36.1895V41.2921C75.8158 42.7449 74.5712 43.9496 73.0702 43.9496H65.6753C64.394 43.9496 63.2225 44.4103 62.3805 45.2607L62.3439 45.2962C61.3189 46.2529 60.8429 47.5638 60.9528 48.9103C61.1724 51.249 63.4788 53.127 66.1146 53.127H73.0702C74.5712 53.127 75.8158 54.3318 75.8158 55.7846V60.0013C75.8158 68.8598 68.4209 76.0176 59.3054 76.0176ZM17.2788 25.5238C11.2017 25.5238 6.25959 30.3074 6.25959 36.1895V60.0367C6.25959 65.9188 11.2017 70.7025 17.2788 70.7025H59.3054C65.3824 70.7025 70.3246 65.9188 70.3246 60.0367V58.4776H66.1146C60.5867 58.4776 55.9008 54.509 55.4615 49.4064C55.1686 46.5008 56.2669 43.6307 58.4634 41.5401C60.367 39.6621 62.9296 38.6345 65.6753 38.6345H70.3246V36.1895C70.3246 30.3074 65.3824 25.5238 59.3054 25.5238H17.2788Z" fill="#BBE1F7"/>
<path d="M3.51395 42.0362C2.013 42.0362 0.768311 40.8314 0.768311 39.3786V23.1853C0.768311 17.9056 4.20951 13.1218 9.2981 11.2438L38.3653 0.613475C41.3672 -0.484988 44.6986 -0.0950379 47.2978 1.67668C49.9336 3.44839 51.4712 6.31854 51.4712 9.40133V22.8663C51.4712 24.3191 50.2265 25.5239 48.7255 25.5239C47.2246 25.5239 45.9799 24.3191 45.9799 22.8663V9.40133C45.9799 8.05482 45.3209 6.81458 44.1494 6.03502C42.978 5.25547 41.5868 5.07828 40.2689 5.57436L11.2017 16.2046C8.23645 17.3031 6.22298 20.1025 6.22298 23.1853V39.3786C6.25959 40.8668 5.0149 42.0362 3.51395 42.0362Z" fill="#BBE1F7"/>
<path d="M66.1142 58.4774C60.5863 58.4774 55.9004 54.5088 55.4611 49.4062C55.1683 46.4652 56.2665 43.5951 58.463 41.5044C60.3301 39.6619 62.8927 38.6343 65.6383 38.6343H73.2529C76.8771 38.7406 79.6594 41.5043 79.6594 44.906V52.2057C79.6594 55.6074 76.8771 58.3711 73.3627 58.4774H66.1142ZM73.1797 43.9494H65.6749C64.3936 43.9494 63.2222 44.41 62.3802 45.2605C61.3185 46.2526 60.806 47.5991 60.9524 48.9456C61.1721 51.2842 63.4784 53.1622 66.1142 53.1622H73.2895C73.7654 53.1622 74.2047 52.7372 74.2047 52.2057V44.906C74.2047 44.3745 73.7654 43.9849 73.1797 43.9494Z" fill="#BBE1F7"/>
<path d="M45.6138 40.5833H19.9878C18.4869 40.5833 17.2422 39.3786 17.2422 37.9258C17.2422 36.473 18.4869 35.2682 19.9878 35.2682H45.6138C47.1148 35.2682 48.3595 36.473 48.3595 37.9258C48.3595 39.3786 47.1148 40.5833 45.6138 40.5833Z" fill="#BBE1F7"/>
</svg>
