<svg width="58" height="58" viewBox="0 0 58 58" fill="none" xmlns="http://www.w3.org/2000/svg">
<rect x="1" y="1" width="56" height="56" rx="15" fill="url(#paint0_linear_1_467)" fill-opacity="0.1"/>
<rect x="1" y="1" width="56" height="56" rx="15" stroke="url(#paint1_linear_1_467)" stroke-width="2"/>
<g clip-path="url(#clip0_1_467)">
<path d="M35.6342 13.1667H22.3659C16.6026 13.1667 13.1667 16.6025 13.1667 22.3659V35.6184C13.1667 41.3975 16.6026 44.8334 22.3659 44.8334H35.6184C41.3817 44.8334 44.8176 41.3975 44.8176 35.6342V22.3659C44.8334 16.6025 41.3976 13.1667 35.6342 13.1667ZM38.0092 32.2459C37.9459 32.3884 37.8667 32.515 37.7559 32.6259L33.0851 37.2967C32.8476 37.5342 32.5467 37.645 32.2459 37.645C31.9451 37.645 31.6442 37.5342 31.4067 37.2967C30.9476 36.8375 30.9476 36.0775 31.4067 35.6184L34.0509 32.9742H21.0834C20.4342 32.9742 19.8959 32.4359 19.8959 31.7867C19.8959 31.1375 20.4342 30.5992 21.0834 30.5992H36.9167C37.0751 30.5992 37.2176 30.6309 37.3759 30.6942C37.6609 30.8209 37.8984 31.0425 38.0251 31.3434C38.1359 31.6284 38.1359 31.945 38.0092 32.2459ZM36.9167 27.4009H21.0834C20.9251 27.4009 20.7826 27.3692 20.6242 27.3059C20.3392 27.1792 20.1017 26.9575 19.9751 26.6567C19.8484 26.3717 19.8484 26.0392 19.9751 25.7542C20.0542 25.6117 20.1334 25.485 20.2442 25.3742L24.9151 20.7034C25.3742 20.2442 26.1342 20.2442 26.5934 20.7034C27.0526 21.1625 27.0526 21.9225 26.5934 22.3817L23.9492 25.0259H36.9167C37.5659 25.0259 38.1042 25.5642 38.1042 26.2134C38.1042 26.8625 37.5659 27.4009 36.9167 27.4009Z" fill="url(#paint2_linear_1_467)"/>
</g>
<defs>
<linearGradient id="paint0_linear_1_467" x1="73.1794" y1="40.004" x2="-1.55843" y2="36.7639" gradientUnits="userSpaceOnUse">
<stop stop-color="#85EAFE"/>
<stop offset="1" stop-color="#525AC1"/>
</linearGradient>
<linearGradient id="paint1_linear_1_467" x1="73.1794" y1="40.004" x2="-1.55843" y2="36.7639" gradientUnits="userSpaceOnUse">
<stop stop-color="#85EAFE"/>
<stop offset="1" stop-color="#525AC1"/>
</linearGradient>
<linearGradient id="paint2_linear_1_467" x1="53.1011" y1="35.0079" x2="12.3162" y2="33.2407" gradientUnits="userSpaceOnUse">
<stop stop-color="#85EAFE"/>
<stop offset="1" stop-color="#525AC1"/>
</linearGradient>
<clipPath id="clip0_1_467">
<rect width="38" height="38" fill="white" transform="translate(10 10)"/>
</clipPath>
</defs>
</svg>
