<svg width="58" height="58" viewBox="0 0 58 58" fill="none" xmlns="http://www.w3.org/2000/svg">
<rect x="1" y="1" width="56" height="56" rx="15" fill="url(#paint0_linear_1_267)" fill-opacity="0.1"/>
<rect x="1" y="1" width="56" height="56" rx="15" stroke="url(#paint1_linear_1_267)" stroke-width="2"/>
<path d="M40.3525 20.5134C39.6717 17.0775 37.1225 15.5734 33.5759 15.5734H19.6742C15.4942 15.5734 12.7075 17.6634 12.7075 22.54V30.6942C12.7075 34.2092 14.1484 36.2675 16.5234 37.1542C16.8717 37.2809 17.2517 37.3917 17.6475 37.455C18.2809 37.5975 18.9617 37.6609 19.6742 37.6609H33.5917C37.7717 37.6609 40.5584 35.5709 40.5584 30.6942V22.54C40.5584 21.7959 40.495 21.1309 40.3525 20.5134ZM18.7559 29C18.7559 29.6492 18.2175 30.1875 17.5684 30.1875C16.9192 30.1875 16.3809 29.6492 16.3809 29V24.25C16.3809 23.6009 16.9192 23.0625 17.5684 23.0625C18.2175 23.0625 18.7559 23.6009 18.7559 24.25V29ZM26.625 30.805C24.3134 30.805 22.445 28.9367 22.445 26.625C22.445 24.3134 24.3134 22.445 26.625 22.445C28.9367 22.445 30.805 24.3134 30.805 26.625C30.805 28.9367 28.9367 30.805 26.625 30.805ZM36.8534 29C36.8534 29.6492 36.315 30.1875 35.6659 30.1875C35.0167 30.1875 34.4784 29.6492 34.4784 29V24.25C34.4784 23.6009 35.0167 23.0625 35.6659 23.0625C36.315 23.0625 36.8534 23.6009 36.8534 24.25V29Z" fill="url(#paint2_linear_1_267)"/>
<path d="M45.3085 27.2899V35.4441C45.3085 40.3207 42.5218 42.4266 38.326 42.4266H24.4243C23.2368 42.4266 22.176 42.2524 21.2576 41.9041C20.5135 41.6349 19.8643 41.2391 19.3418 40.7324C19.0568 40.4632 19.2785 40.0357 19.6743 40.0357H33.576C39.4343 40.0357 42.9176 36.5524 42.9176 30.7099V22.5399C42.9176 22.1599 43.3451 21.9224 43.6143 22.2074C44.691 23.3474 45.3085 25.0099 45.3085 27.2899Z" fill="url(#paint3_linear_1_267)"/>
<defs>
<linearGradient id="paint0_linear_1_267" x1="73.1794" y1="40.004" x2="-1.55843" y2="36.7639" gradientUnits="userSpaceOnUse">
<stop stop-color="#85EAFE"/>
<stop offset="1" stop-color="#525AC1"/>
</linearGradient>
<linearGradient id="paint1_linear_1_267" x1="73.1794" y1="40.004" x2="-1.55843" y2="36.7639" gradientUnits="userSpaceOnUse">
<stop stop-color="#85EAFE"/>
<stop offset="1" stop-color="#525AC1"/>
</linearGradient>
<linearGradient id="paint2_linear_1_267" x1="47.8473" y1="30.8076" x2="11.9989" y2="28.848" gradientUnits="userSpaceOnUse">
<stop stop-color="#85EAFE"/>
<stop offset="1" stop-color="#525AC1"/>
</linearGradient>
<linearGradient id="paint3_linear_1_267" x1="52.138" y1="36.114" x2="18.5524" y2="34.2465" gradientUnits="userSpaceOnUse">
<stop stop-color="#85EAFE"/>
<stop offset="1" stop-color="#525AC1"/>
</linearGradient>
</defs>
</svg>
