<svg width="26" height="26" viewBox="0 0 26 26" fill="none" xmlns="http://www.w3.org/2000/svg">
<path d="M20.7675 7.19335C20.3017 4.84252 18.5575 3.81335 16.1309 3.81335H6.61921C3.75921 3.81335 1.85254 5.24335 1.85254 8.58002V14.1592C1.85254 16.5642 2.83837 17.9725 4.46337 18.5792C4.70171 18.6659 4.96171 18.7417 5.23254 18.785C5.66587 18.8825 6.13171 18.9259 6.61921 18.9259H16.1417C19.0017 18.9259 20.9084 17.4959 20.9084 14.1592V8.58002C20.9084 8.07086 20.865 7.61585 20.7675 7.19335ZM5.99087 13C5.99087 13.4442 5.62254 13.8125 5.17837 13.8125C4.73421 13.8125 4.36587 13.4442 4.36587 13V9.75002C4.36587 9.30586 4.73421 8.93752 5.17837 8.93752C5.62254 8.93752 5.99087 9.30586 5.99087 9.75002V13ZM11.375 14.235C9.79337 14.235 8.51504 12.9567 8.51504 11.375C8.51504 9.79336 9.79337 8.51502 11.375 8.51502C12.9567 8.51502 14.235 9.79336 14.235 11.375C14.235 12.9567 12.9567 14.235 11.375 14.235ZM18.3734 13C18.3734 13.4442 18.005 13.8125 17.5609 13.8125C17.1167 13.8125 16.7484 13.4442 16.7484 13V9.75002C16.7484 9.30586 17.1167 8.93752 17.5609 8.93752C18.005 8.93752 18.3734 9.30586 18.3734 9.75002V13Z" fill="url(#paint0_linear_1_407)"/>
<path d="M24.1583 11.83V17.4092C24.1583 20.7458 22.2517 22.1867 19.3808 22.1867H9.86916C9.05666 22.1867 8.33083 22.0675 7.70249 21.8292C7.19333 21.645 6.74916 21.3742 6.39166 21.0275C6.19666 20.8433 6.34833 20.5508 6.61916 20.5508H16.1308C20.1392 20.5508 22.5225 18.1675 22.5225 14.17V8.58002C22.5225 8.32002 22.815 8.15752 22.9992 8.35252C23.7358 9.13252 24.1583 10.27 24.1583 11.83Z" fill="url(#paint1_linear_1_407)"/>
<defs>
<linearGradient id="paint0_linear_1_407" x1="25.8956" y1="14.2368" x2="1.36766" y2="12.896" gradientUnits="userSpaceOnUse">
<stop stop-color="#85EAFE"/>
<stop offset="1" stop-color="#525AC1"/>
</linearGradient>
<linearGradient id="paint1_linear_1_407" x1="28.8312" y1="17.8676" x2="5.85153" y2="16.5898" gradientUnits="userSpaceOnUse">
<stop stop-color="#85EAFE"/>
<stop offset="1" stop-color="#525AC1"/>
</linearGradient>
</defs>
</svg>
