<svg width="38" height="38" viewBox="0 0 38 38" fill="none" xmlns="http://www.w3.org/2000/svg">
<path d="M34.8333 17.3692V20.6308C34.8333 21.5017 34.1366 22.2142 33.2499 22.2458H30.1466C28.4366 22.2458 26.8691 20.995 26.7266 19.285C26.6316 18.2875 27.0116 17.3533 27.6766 16.7042C28.2624 16.1025 29.0699 15.7542 29.9566 15.7542H33.2499C34.1366 15.7858 34.8333 16.4983 34.8333 17.3692Z" fill="white"/>
<path d="M32.4109 24.6208H30.1467C27.1384 24.6208 24.605 22.3566 24.3517 19.475C24.2092 17.8283 24.8109 16.1816 26.0142 15.01C27.0275 13.965 28.4367 13.3791 29.9567 13.3791H32.4109C32.87 13.3791 33.25 12.9991 33.2025 12.54C32.8542 8.69246 30.305 6.06413 26.5209 5.62079C26.1409 5.55746 25.745 5.54163 25.3334 5.54163H11.0834C10.64 5.54163 10.2125 5.57329 9.80085 5.63663C5.76335 6.14329 3.16669 9.15163 3.16669 13.4583V24.5416C3.16669 28.9116 6.71335 32.4583 11.0834 32.4583H25.3334C29.7667 32.4583 32.8225 29.6875 33.2025 25.46C33.25 25.0008 32.87 24.6208 32.4109 24.6208ZM20.5834 15.4375H11.0834C10.4342 15.4375 9.89585 14.8991 9.89585 14.25C9.89585 13.6008 10.4342 13.0625 11.0834 13.0625H20.5834C21.2325 13.0625 21.7709 13.6008 21.7709 14.25C21.7709 14.8991 21.2325 15.4375 20.5834 15.4375Z" fill="white"/>
</svg>
