<svg width="38" height="38" viewBox="0 0 38 38" fill="none" xmlns="http://www.w3.org/2000/svg">
<path d="M30.3524 10.5134C29.6716 7.07753 27.1224 5.57336 23.5758 5.57336H9.6741C5.49409 5.57336 2.70743 7.66336 2.70743 12.54V20.6942C2.70743 24.2092 4.14826 26.2675 6.52326 27.1542C6.87159 27.2809 7.25159 27.3917 7.64743 27.455C8.28076 27.5975 8.9616 27.6609 9.6741 27.6609H23.5916C27.7716 27.6609 30.5583 25.5709 30.5583 20.6942V12.54C30.5583 11.7959 30.4949 11.1309 30.3524 10.5134ZM8.75576 19C8.75576 19.6492 8.21743 20.1875 7.56826 20.1875C6.9191 20.1875 6.38076 19.6492 6.38076 19V14.25C6.38076 13.6009 6.9191 13.0625 7.56826 13.0625C8.21743 13.0625 8.75576 13.6009 8.75576 14.25V19ZM16.6249 20.805C14.3133 20.805 12.4449 18.9367 12.4449 16.625C12.4449 14.3134 14.3133 12.445 16.6249 12.445C18.9366 12.445 20.8049 14.3134 20.8049 16.625C20.8049 18.9367 18.9366 20.805 16.6249 20.805ZM26.8533 19C26.8533 19.6492 26.3149 20.1875 25.6658 20.1875C25.0166 20.1875 24.4783 19.6492 24.4783 19V14.25C24.4783 13.6009 25.0166 13.0625 25.6658 13.0625C26.3149 13.0625 26.8533 13.6009 26.8533 14.25V19Z" fill="white"/>
<path d="M35.3084 17.2899V25.4441C35.3084 30.3207 32.5217 32.4266 28.3259 32.4266H14.4242C13.2367 32.4266 12.1759 32.2524 11.2575 31.9041C10.5134 31.6349 9.8642 31.2391 9.3417 30.7324C9.0567 30.4632 9.27836 30.0357 9.6742 30.0357H23.5759C29.4342 30.0357 32.9175 26.5524 32.9175 20.7099V12.5399C32.9175 12.1599 33.345 11.9224 33.6142 12.2074C34.6909 13.3474 35.3084 15.0099 35.3084 17.2899Z" fill="white"/>
</svg>
