<svg width="38" height="37" viewBox="0 0 38 37" fill="none" xmlns="http://www.w3.org/2000/svg">
<path d="M37.0133 18.1599C37.0133 8.13046 28.8829 0 18.8535 0C8.82406 0 0.693604 8.13046 0.693604 18.1599C0.693604 28.1893 8.82406 36.3197 18.8535 36.3197C28.8829 36.3197 37.0133 28.1893 37.0133 18.1599Z" fill="url(#paint0_linear_1_1327)"/>
<path d="M30.2885 14.398C30.1456 13.0186 29.838 11.4936 28.7062 10.6923C27.8295 10.0708 26.6772 10.0478 25.6015 10.0491C23.3275 10.0491 21.0522 10.0529 18.7783 10.0542C16.5911 10.0568 14.4039 10.0581 12.2167 10.0606C11.303 10.0606 10.4149 9.99042 9.56626 10.386C8.83762 10.7254 8.26721 11.3711 7.92395 12.0896C7.44797 13.0887 7.34844 14.2206 7.29102 15.3257C7.1851 17.3381 7.19659 19.3556 7.32292 21.3667C7.41607 22.8342 7.65214 24.456 8.78658 25.3914C9.79213 26.2196 11.2111 26.2604 12.5153 26.2617C16.6549 26.2655 20.7958 26.2693 24.9366 26.2719C25.4675 26.2732 26.0213 26.263 26.5623 26.2043C27.6266 26.0894 28.6411 25.7844 29.325 24.9958C30.0154 24.2008 30.1928 23.0945 30.2974 22.0468C30.5526 19.5049 30.5501 16.9387 30.2885 14.398ZM16.3844 21.724V14.5971L22.5555 18.1599L16.3844 21.724Z" fill="white"/>
<defs>
<linearGradient id="paint0_linear_1_1327" x1="46.5187" y1="25.0506" x2="-0.282289" y2="23.0217" gradientUnits="userSpaceOnUse">
<stop stop-color="#85EAFE"/>
<stop offset="1" stop-color="#525AC1"/>
</linearGradient>
</defs>
</svg>
